<svg id="calendar" xmlns="http://www.w3.org/2000/svg" width="35" height="35" viewBox="0 0 35 35">
  <g id="Group_77" data-name="Group 77">
    <g id="Group_76" data-name="Group 76">
      <circle id="Ellipse_34" data-name="Ellipse 34" cx="1.5" cy="1.5" r="1.5" transform="translate(24.785 13.277)" fill="#0e294e"/>
      <path id="Path_696" data-name="Path 696" d="M29.531,2.734H27.754V1.367a1.367,1.367,0,0,0-2.734,0V2.734H18.8V1.367a1.367,1.367,0,0,0-2.734,0V2.734H9.912V1.367a1.367,1.367,0,0,0-2.734,0V2.734H5.469A5.475,5.475,0,0,0,0,8.2V29.531A5.475,5.475,0,0,0,5.469,35H15.928a1.367,1.367,0,1,0,0-2.734H5.469a2.737,2.737,0,0,1-2.734-2.734V8.2A2.737,2.737,0,0,1,5.469,5.469H7.178V6.836a1.367,1.367,0,0,0,2.734,0V5.469h6.152V6.836a1.367,1.367,0,0,0,2.734,0V5.469H25.02V6.836a1.367,1.367,0,0,0,2.734,0V5.469h1.777A2.737,2.737,0,0,1,32.266,8.2V16A1.367,1.367,0,1,0,35,16V8.2A5.475,5.475,0,0,0,29.531,2.734Z" fill="#0e294e"/>
      <path id="Path_697" data-name="Path 697" d="M279.253,270a9.253,9.253,0,1,0,9.253,9.253A9.263,9.263,0,0,0,279.253,270Zm0,15.447a6.194,6.194,0,1,1,6.194-6.194A6.2,6.2,0,0,1,279.253,285.447Z" transform="translate(-253.505 -253.505)" fill="#0e294e"/>
      <path id="Path_698" data-name="Path 698" d="M374.747,333.135h-.688v-1.606a1.529,1.529,0,1,0-3.059,0v3.135a1.529,1.529,0,0,0,1.529,1.529h2.218a1.529,1.529,0,1,0,0-3.059Z" transform="translate(-346.782 -307.944)" fill="#0e294e"/>
      <circle id="Ellipse_35" data-name="Ellipse 35" cx="1.5" cy="1.5" r="1.5" transform="translate(18.588 13.277)" fill="#0e294e"/>
      <circle id="Ellipse_36" data-name="Ellipse 36" cx="1.5" cy="1.5" r="1.5" transform="translate(13.277 18.588)" fill="#0e294e"/>
      <circle id="Ellipse_37" data-name="Ellipse 37" cx="1.5" cy="1.5" r="1.5" transform="translate(7.081 13.277)" fill="#0e294e"/>
      <circle id="Ellipse_38" data-name="Ellipse 38" cx="1.5" cy="1.5" r="1.5" transform="translate(7.081 18.588)" fill="#0e294e"/>
      <circle id="Ellipse_39" data-name="Ellipse 39" cx="1.5" cy="1.5" r="1.5" transform="translate(7.081 24.785)" fill="#0e294e"/>
      <circle id="Ellipse_40" data-name="Ellipse 40" cx="1.5" cy="1.5" r="1.5" transform="translate(13.277 24.785)" fill="#0e294e"/>
      <circle id="Ellipse_41" data-name="Ellipse 41" cx="1.5" cy="1.5" r="1.5" transform="translate(13.277 13.277)" fill="#0e294e"/>
    </g>
  </g>
</svg>
