<svg xmlns="http://www.w3.org/2000/svg" width="35" height="32.201" viewBox="0 0 35 32.201">
  <g id="comment" transform="translate(0 1.332)">
    <path id="Path_703" data-name="Path 703" d="M30.188-1.332H4.812A4.817,4.817,0,0,0,0,3.48V19.01a4.817,4.817,0,0,0,4.795,4.812v7.047l10.128-7.047H30.188A4.817,4.817,0,0,0,35,19.01V3.48A4.817,4.817,0,0,0,30.188-1.332ZM32.949,19.01a2.764,2.764,0,0,1-2.761,2.761H14.279L6.846,26.943V21.771H4.812A2.764,2.764,0,0,1,2.051,19.01V3.48A2.764,2.764,0,0,1,4.812.719H30.188A2.764,2.764,0,0,1,32.949,3.48Zm0,0" transform="translate(0 0)" fill="#0e294e"/>
    <path id="Path_704" data-name="Path 704" d="M171.293,131.172h19.75v2.49h-19.75Zm0,0" transform="translate(-163.668 -125.363)" fill="#0e294e"/>
    <path id="Path_705" data-name="Path 705" d="M171.293,211.172h19.75v2.49h-19.75Zm0,0" transform="translate(-163.668 -201.052)" fill="#0e294e"/>
    <path id="Path_706" data-name="Path 706" d="M171.293,291.172h19.75v2.49h-19.75Zm0,0" transform="translate(-163.668 -276.741)" fill="#0e294e"/>
  </g>
</svg>
