<?xml version="1.0" encoding="iso-8859-1"?>
<!-- Generator: Adobe Illustrator 18.0.0, SVG Export Plug-In . SVG Version: 6.00 Build 0)  -->
<!DOCTYPE svg PUBLIC "-//W3C//DTD SVG 1.1//EN" "http://www.w3.org/Graphics/SVG/1.1/DTD/svg11.dtd">
<svg version="1.1" id="Capa_1" xmlns="http://www.w3.org/2000/svg" xmlns:xlink="http://www.w3.org/1999/xlink" x="0px" y="0px"
	 viewBox="0 0 472.076 472.076" style="enable-background:new 0 0 472.076 472.076;" xml:space="preserve">
<path d="M458.13,266.117h-0.331c-1.67-13.701-6.306-46.067-7.938-57.391c-0.374-2.595-2.389-4.646-4.977-5.066l-39.64-6.434
	l-32.874-76.363c-0.948-2.201-3.115-3.627-5.511-3.627h-84.653c-3.314,0-6,2.687-6,6v135.338h-52.059
	c4.728-4.785,7.957-11.054,8.901-18.043h25.553c5.522,0,10.015-4.493,10.015-10.015v-7.995c0-5.523-4.493-10.015-10.015-10.015
	h-1.087v-6.788c0-5.331-4.477-8.05-8.18-9.128l-5.296-9.961c-0.61-1.148-1.741-1.928-3.031-2.091l-39.877-5.031l-36.862-58.407
	c-0.733-1.161-2.01-1.865-3.383-1.865H72.502c-1.641,0-3.115,1.002-3.719,2.527l-21.511,54.307H26.792
	c-9.941,0-15.642,5.701-15.642,15.641v20.969C6.515,213.556,3,217.636,3,222.52v7.996c0,5.521,4.493,10.014,10.016,10.014h25.553
	c0.944,6.989,4.173,13.259,8.901,18.044H6c-3.314,0-6,2.687-6,6v9.77c0,3.313,2.686,6,6,6h3v26.23c0,3.314,2.686,6,6,6h29.223
	c-0.001,0.131-0.01,0.26-0.01,0.391c0,23.09,18.784,41.875,41.872,41.875c23.09,0,41.876-18.785,41.876-41.875
	c0-0.131-0.009-0.26-0.01-0.391h222.258c-0.001,0.131-0.01,0.26-0.01,0.391c0,23.09,18.784,41.875,41.871,41.875
	c23.09,0,41.875-18.785,41.875-41.875c0-0.131-0.009-0.26-0.01-0.391h24.194c0,0,1.675-0.023,2.632-0.257
	c6.435-1.235,11.314-6.899,11.314-13.689v-18.563C472.076,272.374,465.82,266.117,458.13,266.117z M201.58,222.498
	c7.589,0,13.764,6.173,13.764,13.762c0,7.588-6.174,13.762-13.764,13.762c-7.587,0-13.76-6.174-13.76-13.763
	C187.82,228.671,193.993,222.498,201.58,222.498z M70.033,222.498c7.588,0,13.762,6.173,13.762,13.762
	c0,7.589-6.174,13.763-13.762,13.763c-7.587,0-13.76-6.174-13.76-13.763C56.273,228.671,62.446,222.498,70.033,222.498z
	 M86.084,336.84c-13.163,0-23.872-10.71-23.872-23.875c0-13.165,10.709-23.876,23.872-23.876c13.165,0,23.876,10.71,23.876,23.876
	C109.96,326.13,99.249,336.84,86.084,336.84z M92.599,258.574c4.728-4.785,7.958-11.055,8.901-18.043h68.615
	c0.944,6.989,4.173,13.259,8.9,18.043H92.599z M340.038,195.9c-1.675,0-3.273,0.7-4.409,1.931l-11.498,12.458h-27.877v-73.11h61.365
	l25.623,58.721H340.038z M392.07,336.84c-13.163,0-23.871-10.71-23.871-23.875c0-13.165,10.709-23.876,23.871-23.876
	c13.165,0,23.875,10.71,23.875,23.876C415.945,326.13,405.235,336.84,392.07,336.84z"/>
<g>
</g>
<g>
</g>
<g>
</g>
<g>
</g>
<g>
</g>
<g>
</g>
<g>
</g>
<g>
</g>
<g>
</g>
<g>
</g>
<g>
</g>
<g>
</g>
<g>
</g>
<g>
</g>
<g>
</g>
</svg>
