<svg xmlns="http://www.w3.org/2000/svg" width="35" height="28.583" viewBox="0 0 35 28.583"><defs><style>.a{fill:#0e294e;}</style></defs><g transform="translate(0 0)"><g transform="translate(0 0)"><path class="a" d="M220.622,207.875l-2.8,1.689c-.99.582-2.038,1.106-3.028,1.572-.291.116-.641.291-.99.466a3.009,3.009,0,0,0-1.572,3.319,2.9,2.9,0,0,0,2.155,2.155,2.836,2.836,0,0,0,.7.058,2.981,2.981,0,0,0,2.621-1.631c.117-.291.291-.641.466-.99.524-.99.99-2.038,1.572-3.028l1.689-2.8a.635.635,0,0,0-.116-.7.539.539,0,0,0-.7-.116Zm-1.864,2.97a26.978,26.978,0,0,0-1.631,3.145,7.584,7.584,0,0,1-.466.99,1.728,1.728,0,0,1-1.98.932,1.615,1.615,0,0,1-1.281-1.281,1.728,1.728,0,0,1,.932-1.98c.291-.175.641-.291.99-.466,1.048-.524,2.155-1.048,3.145-1.631l.757-.466Z" transform="translate(-197.586 -196.725)"/><path class="a" d="M32.75,56.958a.625.625,0,0,0-.034-.116.511.511,0,0,0-.057-.105,17.614,17.614,0,0,0-3.715-5.576.634.634,0,0,0-.172-.172,17.416,17.416,0,0,0-18.748-3.806.623.623,0,0,0-.116.034.513.513,0,0,0-.105.057,17.614,17.614,0,0,0-5.576,3.715.634.634,0,0,0-.172.172A17.442,17.442,0,0,0-1,63.433a17.073,17.073,0,0,0,3.792,10.85.531.531,0,0,0,.467.233H29.742a.531.531,0,0,0,.467-.233A17.073,17.073,0,0,0,34,63.433a17.339,17.339,0,0,0-1.25-6.475ZM29.508,73.35H3.55a16.159,16.159,0,0,1-1.962-3.255L3.2,69.441a.575.575,0,0,0-.467-1.05l-1.58.64a16.152,16.152,0,0,1-.976-5.015H4.25a.583.583,0,0,0,0-1.167H.178a16.169,16.169,0,0,1,1.07-5.243l1.6.693a.351.351,0,0,0,.233.058.561.561,0,0,0,.525-.35.579.579,0,0,0-.292-.758L1.7,56.55a16.449,16.449,0,0,1,2.866-4.236l1.2,1.2a.564.564,0,0,0,.817,0,.564.564,0,0,0,0-.817l-1.2-1.2a16.442,16.442,0,0,1,4.46-2.969l.651,1.605a.51.51,0,0,0,.525.35.441.441,0,0,0,.233-.058.579.579,0,0,0,.292-.758L10.9,48.093a16.172,16.172,0,0,1,5.013-.982v4.072a.583.583,0,1,0,1.167,0V47.111a16.169,16.169,0,0,1,5.243,1.07l-.693,1.6a.579.579,0,0,0,.292.758.351.351,0,0,0,.233.058.591.591,0,0,0,.525-.35l.7-1.618A16.449,16.449,0,0,1,27.619,51.5l-1.2,1.2a.564.564,0,0,0,0,.817.529.529,0,0,0,.408.175.63.63,0,0,0,.408-.175l1.2-1.2a16.442,16.442,0,0,1,2.969,4.46l-1.605.651a.579.579,0,0,0-.292.758.51.51,0,0,0,.525.35c.058,0,.117-.058.233-.058l1.573-.638a16.173,16.173,0,0,1,.982,5.013H28.75a.583.583,0,0,0,0,1.167h4.073a16.371,16.371,0,0,1-1.054,5.25l-1.619-.7a.575.575,0,1,0-.467,1.05l1.639.709a16.55,16.55,0,0,1-1.814,3.024Z" transform="translate(1 -45.933)"/></g></g></svg>