<svg xmlns="http://www.w3.org/2000/svg" width="35.253" height="46.996" viewBox="0 0 35.253 46.996">
  <g id="Group_248" data-name="Group 248" transform="translate(-2592.149 -11658.782)">
    <g id="Group_247" data-name="Group 247">
      <path id="Path_2103" data-name="Path 2103" d="M47.866,312.788c-1,.662-2.015,1.316-3.018,1.982a6.32,6.32,0,0,0-1.412,1.064,2.661,2.661,0,0,0-.8,1.746v.162c0,.9-.017,1.8,0,2.692q0,1.251-.008,2.5A2.337,2.337,0,0,0,43,324.179a2.652,2.652,0,0,0,3.492.975c.051-.028.1-.056.157-.083l.621-.348c.02-.014.041-.025.06-.04h0L59.3,317.932l.828-.466L49.7,311.58Z" transform="translate(2549.647 11380.072)" fill="#0e294e"/>
      <g id="Group_246" data-name="Group 246" transform="translate(2592.274 11659.001)">
        <path id="Path_2042" data-name="Path 2042" d="M192.7,199.5a2.826,2.826,0,0,0-.123.34s0,0,0,.006a2.26,2.26,0,0,0,0,1.21s0,0,0,.006a2.713,2.713,0,0,0,.123.34,3.15,3.15,0,0,0,.77.966,7.357,7.357,0,0,0,.819.607,7.357,7.357,0,0,0,.819-.607,3.162,3.162,0,0,0,.77-.966,2.823,2.823,0,0,0,.123-.34s0,0,0-.006a2.26,2.26,0,0,0,0-1.21s0,0,0-.006a2.716,2.716,0,0,0-.123-.34,3.15,3.15,0,0,0-.77-.966,7.357,7.357,0,0,0-.819-.607,7.357,7.357,0,0,0-.819.607A3.15,3.15,0,0,0,192.7,199.5Z" transform="translate(-176.788 -177.189)" fill="none"/>
        <path id="Path_2043" data-name="Path 2043" d="M221.9,12.674c1-.662,2.015-1.316,3.018-1.982a6.321,6.321,0,0,0,1.412-1.064,2.661,2.661,0,0,0,.8-1.746V7.72c0-.9.017-1.8,0-2.692q0-1.251.008-2.5a2.336,2.336,0,0,0-.368-1.243,2.661,2.661,0,0,0-3.368-1.04L209.64,8l10.43,5.88Q220.986,13.278,221.9,12.674Z" transform="translate(-192.139 -0.003)" fill="#fff" stroke="#0e294e" stroke-width="0.25"/>
        <path id="Path_2044" data-name="Path 2044" d="M77.626,157.411v-.162a2.658,2.658,0,0,0-.8-1.746,6.32,6.32,0,0,0-1.412-1.064c-1-.665-2.013-1.319-3.018-1.982q-.916-.6-1.831-1.209l-3.088-2.038q-2-1.319-4.005-2.634-1.416-.931-2.836-1.858c-.168-.111-.336-.22-.5-.33a7.356,7.356,0,0,1-.819-.607,3.163,3.163,0,0,1-.77-.966,2.824,2.824,0,0,1-.123-.34s0,0,0-.006a2.26,2.26,0,0,1,0-1.21s0,0,0-.006a2.715,2.715,0,0,1,.123-.34,3.15,3.15,0,0,1,.77-.966,7.36,7.36,0,0,1,.819-.607c-.168-.111-.337-.219-.5-.33q-1.418-.929-2.836-1.858-2-1.316-4.005-2.634Q51.242,133.5,49.7,132.48l-5.735,3.234h0a2.627,2.627,0,0,0-1.335,2.347v7.607a2.629,2.629,0,0,0,1.335,2.347h0L49.7,151.25l10.432,5.886.828.466,11.975,6.751h0l.06.04.619.35.157.083a2.653,2.653,0,0,0,3.492-.975,2.327,2.327,0,0,0,.368-1.243q-.009-1.251-.008-2.5C77.642,159.206,77.626,158.308,77.626,157.411Z" transform="translate(-42.63 -118.597)" fill="#fff" stroke="#0e294e" stroke-width="0.25"/>
        <path id="Path_2045" data-name="Path 2045" d="M76.3,17.117h0l-5.735-3.234L60.136,8,46.37.243A2.659,2.659,0,0,0,43,1.282a2.327,2.327,0,0,0-.368,1.243q.009,1.251.008,2.5c-.02.9,0,1.8,0,2.692v.162a2.658,2.658,0,0,0,.8,1.746,6.32,6.32,0,0,0,1.412,1.064c1,.665,2.013,1.319,3.018,1.982q.916.6,1.833,1.21l3.085,2.037q2,1.319,4.005,2.634,1.416.931,2.836,1.858c.168.111.336.22.5.33a7.357,7.357,0,0,1,.819.607,3.163,3.163,0,0,1,.77.966,2.826,2.826,0,0,1,.123.34s0,0,0,.006a2.26,2.26,0,0,1,0,1.21s0,0,0,.006a2.717,2.717,0,0,1-.123.34,3.15,3.15,0,0,1-.77.966,7.358,7.358,0,0,1-.819.607c.168.111.337.219.5.33q1.418.929,2.836,1.858,2,1.316,4.005,2.634l3.088,2.038L76.3,29.416h0a2.627,2.627,0,0,0,1.335-2.347V19.462A2.631,2.631,0,0,0,76.3,17.117Z" transform="translate(-42.634 -0.003)" fill="#0e294e"/>
      </g>
    </g>
  </g>
</svg>
