<svg xmlns="http://www.w3.org/2000/svg" width="209" height="31.002" viewBox="0 0 209 31.002">
  <g id="Group_271" data-name="Group 271" transform="translate(-1010.001 -11691.999)">
    <g id="Intersection_4" data-name="Intersection 4" transform="translate(1219 11723) rotate(180)" fill="#dc8989">
      <path d="M 104.5003051757812 30.49959754943848 L 14.99940872192383 30.49959754943848 C 11.1262092590332 30.49959754943848 7.484848976135254 28.99131774902344 4.746115684509277 26.25258445739746 C 2.007382392883301 23.51385116577148 0.4991024434566498 19.87250328063965 0.4991024434566498 15.99930381774902 L 0.4991024434566498 15.00030422210693 C 0.4991024434566498 11.12749099731445 2.007382392883301 7.486423969268799 4.746115684509277 4.747810840606689 C 7.484889030456543 2.009157419204712 11.12624931335449 0.5009041428565979 14.99940872192383 0.5009041428565979 L 104.5003051757812 0.5009041428565979 L 104.5003051757812 30.49959754943848 Z" stroke="none"/>
      <path d="M 104.0003051757812 29.99960708618164 L 104.0003051757812 1.000908017158508 L 14.99940204620361 1.000908017158508 C 11.25978851318359 1.000908017158508 7.744002342224121 2.45715069770813 5.099659442901611 5.10137939453125 C 2.455373764038086 7.745550632476807 0.9991024732589722 11.26105117797852 0.9991024732589722 15.00029373168945 L 0.9991024732589722 15.99929332733154 C 0.9991024732589722 19.73893737792969 2.455373764038086 23.25473594665527 5.099673748016357 25.8990364074707 C 7.743959426879883 28.54332160949707 11.2597599029541 29.99960708618164 14.99940204620361 29.99960708618164 L 104.0003051757812 29.99960708618164 M 105.0003051757812 30.99960708618164 L 14.99940204620361 30.99960708618164 C 6.714902400970459 30.99960708618164 -0.0008975464152172208 24.28379440307617 -0.0008975464152172208 15.99929332733154 L -0.0008975464152172208 15.00029373168945 C -0.0008975464152172208 6.716708183288574 6.714902400970459 0.000907959183678031 14.99940204620361 0.000907959183678031 L 105.0003051757812 0.000907959183678031 L 105.0003051757812 30.99960708618164 Z" stroke="none" fill="#0f274e"/>
    </g>
    <text id="Deaktiv" transform="translate(1162 11716)" fill="#0e294e" font-size="22" font-family="OpenSans-Light, Open Sans" font-weight="300"><tspan x="-36.174" y="0">Deaktiv</tspan></text>
    <g id="Intersection_3" data-name="Intersection 3" transform="translate(1010 11692)" fill="none">
      <path d="M15.5,31a15.5,15.5,0,0,1,0-31H105V31Z" stroke="none"/>
      <path d="M 103.9994125366211 30.00050163269043 L 103.9994125366211 0.9991006851196289 L 15.50160980224609 0.9991006851196289 C 11.62832355499268 0.9991006851196289 7.986881256103516 2.507443428039551 5.248052597045898 5.246257781982422 C 2.509238243103027 7.985072135925293 1.000895500183105 11.62652969360352 1.000895500183105 15.49980068206787 C 1.000895500183105 19.37307167053223 2.509238243103027 23.01453018188477 5.248052597045898 25.75334358215332 C 7.986881256103516 28.49215698242188 11.62832355499268 30.00050163269043 15.50160980224609 30.00050163269043 L 103.9994125366211 30.00050163269043 M 104.9994125366211 31.00050163269043 L 15.50160980224609 31.00050163269043 C 6.940795421600342 31.00050163269043 0.0008954450604505837 24.06060028076172 0.0008954450604505837 15.49980068206787 C 0.0008954450604505837 6.939000606536865 6.940795421600342 -0.0008993179071694613 15.50160980224609 -0.0008993179071694613 L 104.9994125366211 -0.0008993179071694613 L 104.9994125366211 31.00050163269043 Z" stroke="none" fill="#0f274e"/>
    </g>
    <text id="Aktiv" transform="translate(1063 11716)" fill="rgba(14,41,78,0.5)" font-size="22" font-family="OpenSans-Light, Open Sans" font-weight="300"><tspan x="-23.144" y="0">Aktiv</tspan></text>
  </g>
</svg>
