<svg id="surface1" xmlns="http://www.w3.org/2000/svg" width="169" height="198.461" viewBox="0 0 169 198.461">
  <path id="Path_691" data-name="Path 691" d="M168.8,53.847l-.006-.154c-.086-1.906-.144-3.923-.179-6.167a21.034,21.034,0,0,0-19.8-20.606C126,25.646,108.344,18.205,93.262,3.5l-.129-.123a12.7,12.7,0,0,0-17.261,0l-.129.123c-15.082,14.7-32.734,22.141-55.552,23.416A21.033,21.033,0,0,0,.386,47.527C.353,49.755.294,51.772.208,53.692L.2,54.051C-.245,77.319-.8,106.276,8.891,132.56a99.938,99.938,0,0,0,23.976,37.346c12.053,11.762,27.839,21.1,46.92,27.753a14.507,14.507,0,0,0,1.923.524,14.206,14.206,0,0,0,5.584,0,14.521,14.521,0,0,0,1.931-.527c19.058-6.665,34.828-16.007,46.87-27.768a100.085,100.085,0,0,0,23.976-37.355C169.795,106.17,169.245,77.158,168.8,53.847ZM149.145,128.5c-10.217,27.7-31.075,46.728-63.763,58.159a3,3,0,0,1-.369.1,2.617,2.617,0,0,1-1.024,0,2.952,2.952,0,0,1-.366-.1c-32.723-11.411-53.594-30.425-63.8-58.129-8.929-24.228-8.423-50.81-7.976-74.261l0-.13c.091-2.015.151-4.126.185-6.446a9.349,9.349,0,0,1,8.811-9.15A102.176,102.176,0,0,0,55.52,30.92,90.728,90.728,0,0,0,83.782,11.932a1.074,1.074,0,0,1,1.441,0A90.763,90.763,0,0,0,113.484,30.92a102.176,102.176,0,0,0,34.681,7.628,9.346,9.346,0,0,1,8.809,9.151c.035,2.332.1,4.442.186,6.444C157.606,77.621,158.1,104.225,149.145,128.5Zm0,0" transform="translate(0 0.001)" fill="#0e294e"/>
  <path id="Path_692" data-name="Path 692" d="M141.926,128.41c-28.413,0-51.528,20.878-51.528,46.539s23.114,46.541,51.528,46.541,51.528-20.878,51.528-46.541S170.338,128.41,141.926,128.41Zm0,82.121c-21.723,0-39.4-15.961-39.4-35.582s17.672-35.582,39.4-35.582,39.394,15.961,39.394,35.582S163.648,210.531,141.926,210.531Zm0,0" transform="translate(-57.427 -75.716)" fill="#0e294e"/>
  <path id="Path_693" data-name="Path 693" d="M190.509,213.6l-21.616,21.616-5.867-5.867a5.479,5.479,0,0,0-7.749,7.748l9.742,9.742a5.479,5.479,0,0,0,7.748,0l25.492-25.492a5.479,5.479,0,0,0-7.749-7.748Zm0,0" transform="translate(-92.667 -128.643)" fill="#0e294e"/>
</svg>
