<svg xmlns="http://www.w3.org/2000/svg" width="35" height="17.616" viewBox="0 0 35 17.616">
  <path id="crane" d="M33.966,128.274h-.025c-.124-1.016-.468-3.415-.589-4.255a.445.445,0,0,0-.369-.376l-2.939-.477L27.608,117.5a.445.445,0,0,0-.409-.269H20.923a.445.445,0,0,0-.445.445v10.034h-3.86a2.35,2.35,0,0,0,.66-1.338h1.895a.743.743,0,0,0,.743-.743v-.593a.743.743,0,0,0-.743-.743h-.081v-.5a.74.74,0,0,0-.606-.677l-.393-.739a.3.3,0,0,0-.225-.155l-2.957-.373-2.733-4.33a.3.3,0,0,0-.251-.138H5.375a.3.3,0,0,0-.276.187L3.5,121.6H1.986a1.056,1.056,0,0,0-1.16,1.16v1.555a.744.744,0,0,0-.6.73v.593a.743.743,0,0,0,.743.742H2.86a2.351,2.351,0,0,0,.66,1.338H.445A.445.445,0,0,0,0,128.16v.724a.445.445,0,0,0,.445.445H.667v1.945a.445.445,0,0,0,.445.445H3.279c0,.01,0,.019,0,.029a3.1,3.1,0,1,0,6.209,0c0-.01,0-.019,0-.029H25.965c0,.01,0,.019,0,.029a3.1,3.1,0,1,0,6.209,0c0-.01,0-.019,0-.029h1.794a1.142,1.142,0,0,0,.2-.019A1.035,1.035,0,0,0,35,130.685v-1.376A1.035,1.035,0,0,0,33.966,128.274ZM14.945,125.04a1.02,1.02,0,1,1-1.02,1.02A1.022,1.022,0,0,1,14.945,125.04Zm-9.753,0a1.02,1.02,0,1,1-1.02,1.02A1.021,1.021,0,0,1,5.192,125.04Zm1.19,8.477a1.77,1.77,0,1,1,1.77-1.77A1.772,1.772,0,0,1,6.382,133.518Zm.483-5.8a2.35,2.35,0,0,0,.66-1.338h5.087a2.35,2.35,0,0,0,.66,1.338Zm18.345-4.647a.445.445,0,0,0-.327.143l-.852.924H21.965v-5.42h4.55l1.9,4.354Zm3.858,10.449a1.77,1.77,0,1,1,1.77-1.77A1.772,1.772,0,0,1,29.068,133.518Z" transform="translate(0 -117.236)" fill="#0e294e"/>
</svg>
