<svg id="Group_204" data-name="Group 204" xmlns="http://www.w3.org/2000/svg" width="71.262" height="65.819" viewBox="0 0 71.262 65.819">
  <path id="Path_2069" data-name="Path 2069" d="M366.893,334.909c-.559,3.853-.924,4.233-4.054,4.256-4.114.03-4.382-.194-5.046-4.218-1.178-.462-1.722-.164-1.856,1.215-.224,2.3-.991,2.936-3.249,3-.85.022-1.7.022-2.541-.007a2.708,2.708,0,0,1-2.817-2.653,6.015,6.015,0,0,0-.947-1.751c-.365.537-.961,1.043-1.058,1.625-.3,1.848-1.26,2.616-3.123,2.825-3.086.343-5.038-.641-6.551-3.533-4.248-8.139-7.952-16.4-8.75-25.705a37.491,37.491,0,0,1,4.151-20.779,10.689,10.689,0,0,0,1.043-4.032c.171-2.206.007-4.427.06-6.648a4.92,4.92,0,0,1,4.971-4.956,4.971,4.971,0,0,1,5.105,4.83,10.561,10.561,0,0,1-2.579,8.37c-6.223,7.371-8.347,16.039-6.812,25.586,1.26,7.848,7.155,13.855,15.838,15.853a31.269,31.269,0,0,0,6.961.8,171.348,171.348,0,0,0,18.156-.425c9.793-1.036,16.851-7.908,18.133-16.7a31.093,31.093,0,0,0-7.647-26.115c-2.527-2.877-1.983-5.933-1.468-8.988.365-2.206,3.078-3.51,5.418-3.19a4.994,4.994,0,0,1,4.323,4.822c.082,2.542.007,5.083.06,7.624a4.5,4.5,0,0,0,.4,2.057c6.536,11.47,6.208,23.32,1.662,35.238a151.15,151.15,0,0,1-6.633,13.907c-1.066,2.109-5.9,2.877-7.587,1.237-.574-.559-.641-1.61-1.029-2.392a8.722,8.722,0,0,0-.984-1.327c-.358.41-.961.783-1.036,1.237-.4,2.542-1.006,3.153-3.5,3.19-.589.007-1.17.007-1.759-.007-2.415-.067-3.115-.641-3.346-3.078C368.682,334.812,368.138,334.529,366.893,334.909Z" transform="translate(-326.756 -273.515)" fill="#0e294e"/>
  <path id="Path_2070" data-name="Path 2070" d="M367.676,294.7c0-3.51-.03-7.028.007-10.539.037-3.406,1.953-5.5,4.979-5.538,3.138-.037,5.2,2.05,5.232,5.515q.078,10.442-.008,20.891c-.03,3.317-2.124,5.478-5.105,5.485-3.018.015-5.076-2.251-5.105-5.657C367.661,301.463,367.676,298.08,367.676,294.7Z" transform="translate(-337.175 -274.815)" fill="#0e294e"/>
  <path id="Path_2071" data-name="Path 2071" d="M377.843,332.087a4.97,4.97,0,0,1-5.165,4.956,5.066,5.066,0,0,1-5.008-5.157,4.985,4.985,0,0,1,5.195-4.926A4.926,4.926,0,0,1,377.843,332.087Z" transform="translate(-337.176 -287.128)" fill="#0e294e"/>
</svg>
