<svg id="headset" xmlns="http://www.w3.org/2000/svg" width="35" height="35" viewBox="0 0 35 35">
  <g id="Group_154" data-name="Group 154" transform="translate(0 0)">
    <g id="Group_153" data-name="Group 153">
      <path id="Path_1438" data-name="Path 1438" d="M8.248,13.209H5.532C5.99,7.288,11.226,2.6,17.6,2.6a12.14,12.14,0,0,1,11.349,7.479,1.4,1.4,0,0,0,1.766.769,1.283,1.283,0,0,0,.812-1.672,14.145,14.145,0,0,0-5.352-6.6A15.485,15.485,0,0,0,7.1,4.117a13.6,13.6,0,0,0-4.346,9.792A5.165,5.165,0,0,0,0,18.415V22.84a5.364,5.364,0,0,0,5.5,5.206H8.248a1.34,1.34,0,0,0,1.375-1.3V14.511A1.34,1.34,0,0,0,8.248,13.209ZM6.873,25.443H5.5a2.682,2.682,0,0,1-2.749-2.6V18.415a2.682,2.682,0,0,1,2.749-2.6H6.873Z" transform="translate(0 0)" fill="#0e294e"/>
      <path id="Path_1439" data-name="Path 1439" d="M230.055,203h-2.6a1.3,1.3,0,0,0-1.3,1.3v13.6a1.3,1.3,0,0,1-1.3,1.3H220.88v.041a2.6,2.6,0,1,0,0,2.52v.041h3.969a3.909,3.909,0,0,0,3.9-3.9v-.065h1.3a5.212,5.212,0,0,0,5.206-5.206v-4.425A5.212,5.212,0,0,0,230.055,203Zm2.6,9.63a2.606,2.606,0,0,1-2.6,2.6h-1.3V205.6h1.3a2.606,2.606,0,0,1,2.6,2.6Z" transform="translate(-200.261 -188.107)" fill="#0e294e"/>
    </g>
  </g>
</svg>
