<svg xmlns="http://www.w3.org/2000/svg" width="35" height="35" viewBox="0 0 35 35"><defs><style>.a{fill:#0e294e;}</style></defs><path class="a" d="M35,23.687a11.34,11.34,0,0,0-8.285-10.9A13.364,13.364,0,1,0,1.853,20.157l-1.8,6.522,6.522-1.8a13.314,13.314,0,0,0,6.213,1.839,11.317,11.317,0,0,0,16.659,6.713l5.507,1.523-1.523-5.507A11.273,11.273,0,0,0,35,23.687ZM6.895,22.658l-3.9,1.08,1.08-3.9-.246-.385A11.31,11.31,0,1,1,7.28,22.9ZM32.01,32.01l-2.9-.8-.387.252a9.266,9.266,0,0,1-13.82-4.821A13.39,13.39,0,0,0,26.639,14.9a9.266,9.266,0,0,1,4.82,13.821l-.252.387Zm0,0" transform="translate(0)"/><path class="a" d="M180.5,271h1.728v1.728H180.5Zm0,0" transform="translate(-168.04 -252.293)"/><path class="a" d="M140.684,93.456a1.71,1.71,0,0,1-.562,1.275l-2.029,1.858V98.7h1.728V97.35l1.468-1.344a3.456,3.456,0,1,0-5.788-2.55h1.728a1.728,1.728,0,0,1,3.456,0Zm0,0" transform="translate(-125.791 -83.443)"/></svg>