<?xml version="1.0" encoding="iso-8859-1"?>
<!-- Generator: Adobe Illustrator 19.0.0, SVG Export Plug-In . SVG Version: 6.00 Build 0)  -->
<svg version="1.1" id="Capa_1" xmlns="http://www.w3.org/2000/svg" xmlns:xlink="http://www.w3.org/1999/xlink" x="0px" y="0px"
	 viewBox="0 0 512 512" style="enable-background:new 0 0 512 512;" xml:space="preserve">
<g>
	<g>
		<path d="M511.271,454.803l-41.938-107.84V96c0-4.76-3.167-8.948-7.729-10.26L312.271,43.073c-1.986-0.547-3.999-0.539-5.875,0
			L160,84.9L13.604,43.073c-3.271-0.906-6.667-0.271-9.354,1.74C1.563,46.834,0,49.99,0,53.334v320c0,4.76,3.167,8.948,7.729,10.26
			l149.333,42.667c0.979,0.271,1.958,0.406,2.938,0.406c0.995,0,1.986-0.133,2.938-0.406l146.396-41.828l54.087,15.449
			l-21.358,54.921c-1.479,3.771-0.667,8.052,2.063,11.052c2.708,2.99,6.896,4.156,10.813,3.073l71.729-20.5l71.729,20.5
			c0.979,0.271,1.958,0.406,2.938,0.406c2.958,0,5.833-1.229,7.875-3.479C511.938,462.855,512.75,458.573,511.271,454.803z
			 M149.333,401.855l-128-36.563V67.48l128,36.563V401.855z M298.667,365.282l-128,36.572V104.053l128-36.572V365.282z M320,365.292
			V67.48l128,36.563v188.064l-11.396-29.303c-3.167-8.208-16.708-8.208-19.875,0L371.19,379.904L320,365.292z M429.604,427.073
			c-0.958-0.271-1.958-0.406-2.938-0.406s-1.979,0.135-2.938,0.406l-54,15.438l56.938-146.417l56.938,146.417L429.604,427.073z"/>
	</g>
</g>
<g>
</g>
<g>
</g>
<g>
</g>
<g>
</g>
<g>
</g>
<g>
</g>
<g>
</g>
<g>
</g>
<g>
</g>
<g>
</g>
<g>
</g>
<g>
</g>
<g>
</g>
<g>
</g>
<g>
</g>
</svg>
