<svg xmlns="http://www.w3.org/2000/svg" width="57.912" height="41.89" viewBox="0 0 57.912 41.89"><defs><style>.a{fill:#0e294e;}</style></defs><g transform="translate(0 -60.2)"><g transform="translate(0 60.2)"><path class="a" d="M1.806,65.344h54.3c.993,0,1.806-1.157,1.806-2.572S57.1,60.2,56.106,60.2H1.806C.812,60.2,0,61.357,0,62.772S.812,65.344,1.806,65.344Z" transform="translate(0 -60.2)"/><path class="a" d="M56.106,180.5H1.806C.812,180.5,0,181.657,0,183.072s.812,2.572,1.806,2.572h54.3c.993,0,1.806-1.157,1.806-2.572S57.114,180.5,56.106,180.5Z" transform="translate(0 -162.127)"/><path class="a" d="M56.106,300.8H1.806C.812,300.8,0,301.957,0,303.372s.812,2.572,1.806,2.572h54.3c.993,0,1.806-1.157,1.806-2.572C57.927,301.936,57.114,300.8,56.106,300.8Z" transform="translate(0 -264.054)"/></g></g></svg>