<?xml version="1.0" encoding="iso-8859-1"?>
<!-- Generator: Adobe Illustrator 18.0.0, SVG Export Plug-In . SVG Version: 6.00 Build 0)  -->
<!DOCTYPE svg PUBLIC "-//W3C//DTD SVG 1.1//EN" "http://www.w3.org/Graphics/SVG/1.1/DTD/svg11.dtd">
<svg version="1.1" id="Capa_1" xmlns="http://www.w3.org/2000/svg" xmlns:xlink="http://www.w3.org/1999/xlink" x="0px" y="0px"
	 viewBox="0 0 354 354" style="enable-background:new 0 0 354 354;" xml:space="preserve">
<path d="M333.531,205.903l-2.878-2.352c-23.13-18.901-37.391-45.69-40.155-75.432c-2.766-29.741,6.313-58.7,25.561-81.541
	c0.724-0.858,1.053-1.98,0.908-3.093c-0.145-1.113-0.75-2.114-1.669-2.759l-57-40c-1.527-1.07-3.587-0.945-4.972,0.299
	l-38.461,34.567h-75.73L100.674,1.025c-1.386-1.245-3.445-1.369-4.972-0.299l-57,40c-0.919,0.645-1.524,1.646-1.669,2.759
	c-0.145,1.113,0.185,2.235,0.908,3.093c19.248,22.841,28.326,51.8,25.56,81.541c-2.765,29.742-17.025,56.531-40.155,75.432
	l-2.878,2.352C19.539,206.663,19,207.799,19,209v141c0,2.209,1.791,4,4,4h308c2.209,0,4-1.791,4-4V209
	C335,207.799,334.461,206.663,333.531,205.903z M325.591,209.745l1.409,1.152v44.787H181V127.972
	c0-27.527,9.938-54.049,27.655-74.732l74.053,51.585c-0.855,7.896-0.929,15.938-0.176,24.035
	C285.497,160.751,300.789,189.478,325.591,209.745z M327,284H181v-20.316h146V284z M27,263.684h146V284H27V263.684z M147.422,43.592
	h59.155C192.328,58.672,182.199,77.078,177,96.959C171.801,77.078,161.672,58.672,147.422,43.592z M256.307,9.102l50.883,35.707
	c-4.9,6.255-9.108,12.905-12.613,19.855l-58.661-37.235L256.307,9.102z M229.736,32.982l61.455,39.008
	c-3.247,7.716-5.653,15.749-7.185,23.988L214.124,47.3c1.6-1.621,3.246-3.203,4.949-4.733L229.736,32.982z M97.693,9.102
	l20.522,18.444l-58.716,37.27c-3.52-7.005-7.754-13.706-12.689-20.007L97.693,9.102z M62.874,72.149l61.519-39.049l10.534,9.468
	c1.748,1.571,3.436,3.197,5.076,4.863L70.029,96.173C68.509,87.922,66.113,79.877,62.874,72.149z M28.409,209.745
	c24.802-20.268,40.094-48.994,43.059-80.886c0.746-8.028,0.68-16.001-0.154-23.832l74.151-51.652
	C163.107,74.039,173,100.506,173,127.972v127.712H27v-44.787L28.409,209.745z M27,292h146v54H27V292z M181,346v-54h146v54H181z"/>
<g>
</g>
<g>
</g>
<g>
</g>
<g>
</g>
<g>
</g>
<g>
</g>
<g>
</g>
<g>
</g>
<g>
</g>
<g>
</g>
<g>
</g>
<g>
</g>
<g>
</g>
<g>
</g>
<g>
</g>
</svg>
