<svg xmlns="http://www.w3.org/2000/svg" width="35" height="34.236" viewBox="0 0 35 34.236">
  <g id="car-repair" transform="translate(0 -3.95)">
    <g id="Group_80" data-name="Group 80" transform="translate(4.416 20.334)">
      <g id="Group_79" data-name="Group 79">
        <path id="Path_699" data-name="Path 699" d="M47.074,180.05H40.035a1.139,1.139,0,0,0-1.135,1.135v4.882a1.139,1.139,0,0,0,1.135,1.135h7.039a1.139,1.139,0,0,0,1.135-1.135v-4.882A1.139,1.139,0,0,0,47.074,180.05Zm-1.135,4.882H41.171v-2.611h4.768Z" transform="translate(-38.9 -180.05)" fill="#0e294e"/>
      </g>
    </g>
    <g id="Group_82" data-name="Group 82" transform="translate(0 3.95)">
      <g id="Group_81" data-name="Group 81" transform="translate(0 0)">
        <path id="Path_700" data-name="Path 700" d="M34.1,18.549l-2.059-.193a10.819,10.819,0,0,0-1.015-2.388L32.331,14.4a.965.965,0,0,0-.058-1.3l-2.572-2.6a.967.967,0,0,0-1.305-.068L26.82,11.743a11.112,11.112,0,0,0-2.369-1.006l-.193-2.05a.965.965,0,0,0-.957-.87H20.014v-2.9a.967.967,0,0,0-1.934,0v1.74H8.431a3.534,3.534,0,0,0-3.287,2.3l-2.9,7.831c0,.01-.01.029-.01.039l-.725.677A4.771,4.771,0,0,0,0,20.976V32.52a3.491,3.491,0,0,0,3.539,3.452H5.646A3.5,3.5,0,0,0,9.185,32.52V31.031h8.9v6.188a.967.967,0,0,0,1.934,0V34.9H23.3a.968.968,0,0,0,.967-.88l.193-2.059a11.157,11.157,0,0,0,2.378-1l1.576,1.305a.964.964,0,0,0,1.3-.058l2.6-2.6A.977.977,0,0,0,32.37,28.3l-1.305-1.576A11.325,11.325,0,0,0,32.07,24.36l2.04-.193A.984.984,0,0,0,35,23.2V19.507A1.007,1.007,0,0,0,34.1,18.549ZM7.242,32.511a1.559,1.559,0,0,1-1.6,1.518H3.529a1.565,1.565,0,0,1-1.6-1.518V30.693a3.685,3.685,0,0,0,1.6.338H7.242ZM18.07,21.846H15.044a.967.967,0,1,0,0,1.934H18.07v.483H15.044a.967.967,0,1,0,0,1.934H18.07v2.9H3.529a1.575,1.575,0,0,1-1.6-1.537V20.967A2.885,2.885,0,0,1,2.833,18.9l.87-.822H18.07v3.771Zm-10.065-5.7a3.719,3.719,0,0,1,7.184,0Zm10.065,0h-.9a5.657,5.657,0,0,0-11.148,0H4.535L6.952,9.625A1.566,1.566,0,0,1,8.421,8.6H18.07ZM20,17.273a4.327,4.327,0,1,1,0,8.16ZM33.057,22.32h0l-1.847.174a.988.988,0,0,0-.86.754,9.164,9.164,0,0,1-1.286,3.036.959.959,0,0,0,.068,1.141l1.18,1.431L28.957,30.21l-1.431-1.18a.959.959,0,0,0-1.151-.058,8.819,8.819,0,0,1-3.026,1.276.955.955,0,0,0-.754.851l-.174,1.856H20V27.435a6.253,6.253,0,1,0,0-12.173v-5.5h2.407l.184,1.847a.966.966,0,0,0,.754.851,9.349,9.349,0,0,1,3.036,1.276.959.959,0,0,0,1.141-.068l1.421-1.18,1.334,1.344-1.189,1.441a.958.958,0,0,0-.058,1.151,8.819,8.819,0,0,1,1.276,3.026.977.977,0,0,0,.87.754l1.876.174V22.32Z" transform="translate(0 -3.95)" fill="#0e294e"/>
      </g>
    </g>
  </g>
</svg>
