<svg xmlns="http://www.w3.org/2000/svg" width="35" height="29.167" viewBox="0 0 35 29.167">
  <g id="map" transform="translate(0 -42.666)">
    <g id="Group_93" data-name="Group 93" transform="translate(0 42.666)">
      <path id="Path_707" data-name="Path 707" d="M34.95,70.839l-2.867-7.372V46.312a.731.731,0,0,0-.528-.7L21.347,42.694a.738.738,0,0,0-.4,0L10.937,45.553.93,42.694a.73.73,0,0,0-.93.7V65.27a.731.731,0,0,0,.528.7l10.208,2.917a.75.75,0,0,0,.2.028.729.729,0,0,0,.2-.028l10.008-2.859,3.7,1.056-1.46,3.754a.73.73,0,0,0,.88.966l4.9-1.4,4.9,1.4a.75.75,0,0,0,.2.028.729.729,0,0,0,.679-.993ZM10.208,67.22l-8.75-2.5V44.362l8.75,2.5Zm10.208-2.5-8.75,2.5V46.862l8.75-2.5Zm1.458,0V44.362l8.75,2.5V59.717l-.779-2a.759.759,0,0,0-1.359,0l-3.113,8Zm7.492,4.223a.741.741,0,0,0-.4,0L25.274,70,29.167,59.99,33.059,70Z" transform="translate(0 -42.666)" fill="#0e294e"/>
    </g>
  </g>
</svg>
