<svg height="512pt" viewBox="0 -26 512 512" width="512pt" xmlns="http://www.w3.org/2000/svg"><path d="m503.636719 367.242188-138.304688-239.546876c-2.109375-3.65625-6.785156-4.90625-10.4375-2.796874-3.65625 2.109374-4.910156 6.785156-2.796875 10.441406l138.304688 239.546875c8.382812 14.523437 8.382812 31.867187-.003906 46.394531-8.386719 14.523438-23.402344 23.195312-40.175782 23.195312h-388.445312c-16.773438 0-31.792969-8.671874-40.179688-23.199218-8.382812-14.523438-8.382812-31.867188 0-46.390625l194.222656-336.40625c8.386719-14.523438 23.40625-23.195313 40.179688-23.195313s31.792969 8.671875 40.179688 23.195313l38.925781 67.429687c2.113281 3.652344 6.789062 4.90625 10.441406 2.796875 3.65625-2.113281 4.90625-6.785156 2.796875-10.441406l-38.929688-67.425781c-11.148437-19.3125-31.113281-30.839844-53.414062-30.839844-22.296875 0-42.265625 11.53125-53.414062 30.839844l-194.222657 336.402344c-11.148437 19.3125-11.152343 42.371093 0 61.679687 11.148438 19.308594 31.117188 30.839844 53.414063 30.839844h388.445312c22.296875 0 42.265625-11.527344 53.414063-30.839844 11.152343-19.308594 11.152343-42.367187 0-61.679687zm0 0"/><path d="m141.359375 401.167969c0 4.21875 3.421875 7.640625 7.644531 7.640625h301.21875c5.117188 0 7.875-2.914063 9.289063-5.363282 1.414062-2.445312 2.558593-6.292968 0-10.726562l-194.222657-336.40625c-2.5625-4.429688-6.464843-5.359375-9.289062-5.359375s-6.730469.929687-9.289062 5.363281l-194.226563 336.40625c-2.554687 4.429688-1.410156 8.277344.003906 10.726563 1.410157 2.445312 4.171875 5.359375 9.289063 5.359375h56.65625c4.21875 0 7.640625-3.421875 7.640625-7.640625 0-4.222657-3.421875-7.644531-7.640625-7.644531h-48.761719l186.328125-322.726563 186.324219 322.726563h-293.320313c-4.222656 0-7.644531 3.421874-7.644531 7.644531zm0 0"/><path d="m298.199219 190.351562-2.542969-14.53125c-1.898438-10.84375-11.265625-18.714843-22.273438-18.714843h-34.765624c-11.011719 0-20.378907 7.871093-22.273438 18.714843l-2.542969 14.53125c-9.976562 2.410157-17.414062 11.410157-17.414062 22.117188v21.570312c0 4.222657 3.421875 7.644532 7.644531 7.644532h11.207031v9.679687c0 4.222657 3.421875 7.644531 7.644531 7.644531 4.222657 0 7.640626-3.421874 7.640626-7.644531v-9.679687h50.953124v9.679687c0 4.222657 3.421876 7.644531 7.640626 7.644531 4.222656 0 7.644531-3.421874 7.644531-7.644531v-9.679687h11.210937c4.21875 0 7.640625-3.421875 7.640625-7.644532v-21.570312c0-10.710938-7.4375-19.707031-17.414062-22.117188zm-66.800781-11.898437c.617187-3.511719 3.652343-6.0625 7.21875-6.0625h34.765624c3.566407 0 6.601563 2.550781 7.21875 6.066406l1.96875 11.257813h-53.140624zm68.929687 47.945313h-88.65625v-13.929688c0-4.121094 3.347656-7.46875 7.464844-7.46875h73.722656c4.117187 0 7.46875 3.351562 7.46875 7.46875zm0 0"/><path d="m171.933594 318.113281c0 17.980469 14.625 32.609375 32.609375 32.609375h10.699219c13.203124 0 23.945312 10.742188 23.945312 23.949219 0 4.21875 3.421875 7.640625 7.644531 7.640625 4.222657 0 7.640625-3.421875 7.640625-7.640625 0-21.632813-17.597656-39.234375-39.230468-39.234375h-10.699219c-9.554688 0-17.324219-7.769531-17.324219-17.324219 0-9.550781 7.769531-17.324219 17.324219-17.324219 14.046875 0 25.472656-11.425781 25.472656-25.472656v-1.53125c0-4.21875-3.417969-7.640625-7.640625-7.640625s-7.644531 3.421875-7.644531 7.640625v1.53125c0 5.617188-4.570313 10.1875-10.1875 10.1875-17.980469 0-32.609375 14.628906-32.609375 32.609375zm0 0"/><path d="m269.652344 300.789062c14.046875 0 25.476562-11.425781 25.476562-25.472656v-1.53125c0-4.21875-3.421875-7.640625-7.644531-7.640625s-7.640625 3.421875-7.640625 7.640625v1.53125c0 5.617188-4.574219 10.1875-10.191406 10.1875-17.980469 0-32.609375 14.628906-32.609375 32.609375s14.628906 32.609375 32.609375 32.609375h10.699218c13.207032 0 23.949219 10.742188 23.949219 23.949219 0 4.21875 3.417969 7.640625 7.640625 7.640625s7.644532-3.421875 7.644532-7.640625c0-21.632813-17.601563-39.234375-39.234376-39.234375h-10.699218c-9.550782 0-17.324219-7.769531-17.324219-17.324219 0-9.550781 7.773437-17.324219 17.324219-17.324219zm0 0"/></svg>