<svg xmlns="http://www.w3.org/2000/svg" width="35" height="31.445" viewBox="0 0 35 31.445"><defs><style>.a{fill:#0e294e;}</style></defs><path class="a" d="M246.652,100a.652.652,0,1,0,.652.652A.652.652,0,0,0,246.652,100Zm0,0" transform="translate(-229.152 -93.15)"/><path class="a" d="M80.652,261.3a.652.652,0,1,0-.652-.652A.652.652,0,0,0,80.652,261.3Zm0,0" transform="translate(-74.783 -242.189)"/><path class="a" d="M22.969,0c-6.154,0-11.205,4.243-11.6,9.588C5.512,9.882,0,14.108,0,19.824a9.552,9.552,0,0,0,2.666,6.537,4.157,4.157,0,0,1-1.1,3.917.684.684,0,0,0,.483,1.167,7.541,7.541,0,0,0,5.224-2.112,15.578,15.578,0,0,0,4.756.744c6.153,0,11.2-4.242,11.6-9.586a15.372,15.372,0,0,0,4.1-.729,7.541,7.541,0,0,0,5.224,2.112.684.684,0,0,0,.483-1.167,4.157,4.157,0,0,1-1.1-3.917A9.552,9.552,0,0,0,35,10.254C35,4.314,29.064,0,22.969,0ZM12.031,28.711A13.819,13.819,0,0,1,7.348,27.9a.684.684,0,0,0-.757.174A6.168,6.168,0,0,1,3.523,29.9a5.528,5.528,0,0,0,.417-4.069.682.682,0,0,0-.167-.289,8.215,8.215,0,0,1-2.405-5.717c0-4.817,4.883-8.887,10.664-8.887,5.459,0,10.254,3.8,10.254,8.887C22.285,24.724,17.685,28.711,12.031,28.711Zm19.2-12.74a.685.685,0,0,0-.167.289,5.528,5.528,0,0,0,.417,4.069,6.166,6.166,0,0,1-3.068-1.821.684.684,0,0,0-.757-.174,13.466,13.466,0,0,1-4.027.79A9.785,9.785,0,0,0,19.931,12.3h8.917a.684.684,0,0,0,0-1.367H17.831A12.749,12.749,0,0,0,12.743,9.59C13.136,5,17.572,1.367,22.969,1.367c5.781,0,10.664,4.07,10.664,8.887A8.215,8.215,0,0,1,31.228,15.97Zm0,0"/><path class="a" d="M128.87,260h-8.217a.652.652,0,0,0,0,1.3h8.217a.652.652,0,0,0,0-1.3Zm0,0" transform="translate(-111.646 -242.189)"/><path class="a" d="M91.478,320H80.652a.652.652,0,1,0,0,1.3H91.478a.652.652,0,1,0,0-1.3Zm0,0" transform="translate(-74.388 -298.079)"/><path class="a" d="M294.87,100h-8.217a.652.652,0,0,0,0,1.3h8.217a.652.652,0,0,0,0-1.3Zm0,0" transform="translate(-266.091 -93.15)"/></svg>