<svg xmlns="http://www.w3.org/2000/svg" width="35" height="38.957" viewBox="0 0 35 38.957"><defs><style>.a{fill:#0e294e;}</style></defs><g transform="translate(0)"><path class="a" d="M53.743,27.67l-3.616-1.205-1.3-2.6a8.333,8.333,0,0,0,2.256-4.409l.162-.97H52.63a2.285,2.285,0,0,0,2.283-2.283V11.413a11.413,11.413,0,0,0-22.826,0v4.793a2.286,2.286,0,0,0,1.522,2.152v.892a2.285,2.285,0,0,0,2.283,2.283h.668a8.254,8.254,0,0,0,1.276,1.976c.108.124.22.244.335.361l-1.3,2.6L33.257,27.67A11.215,11.215,0,0,0,26,38.2a.761.761,0,0,0,.761.761H60.239A.761.761,0,0,0,61,38.2,11.215,11.215,0,0,0,53.743,27.67Zm-.352-11.463a.762.762,0,0,1-.761.761H51.469c.193-1.5.322-3.092.374-4.663,0-.044,0-.087,0-.131h1.544Zm-19.022.761a.762.762,0,0,1-.761-.761V12.174h1.544q0,.119.008.239v.008h0c.053,1.527.18,3.08.369,4.545H34.37Zm1.522,3.043a.762.762,0,0,1-.761-.761v-.761h.624l.162.971c.031.185.069.368.113.551Zm-.76-9.359H33.638a9.892,9.892,0,0,1,19.725,0H51.868a7.706,7.706,0,0,0-7.687-7.609H42.819A7.706,7.706,0,0,0,35.132,10.652Zm7.687-6.087h1.362a6.187,6.187,0,0,1,6.167,6.194c0,.239,0,.448-.006.638,0,0,0,0,0,.007l-.952-.136a12.226,12.226,0,0,1-6.874-3.437.761.761,0,0,0-.538-.223,6.884,6.884,0,0,0-5.292,2.5A6.185,6.185,0,0,1,42.819,4.565ZM37.606,20.011a43.49,43.49,0,0,1-.913-7.384l1.024-1.365a5.356,5.356,0,0,1,3.96-2.122,13.762,13.762,0,0,0,7.5,3.636l1.12.16c-.075,1.589-.228,3.184-.447,4.65v0c-.07.472-.125.775-.265,1.622A6.463,6.463,0,0,1,45,24.407a5.986,5.986,0,0,1-6.72-2.874h1.551a2.286,2.286,0,0,0,2.152,1.522H43.5a2.283,2.283,0,1,0,0-4.565H41.978a2.284,2.284,0,0,0-2.153,1.522Zm4.308,5.936a7.632,7.632,0,0,0,2.83.064L43.4,27.432Zm.439,2.592L39.94,31.091a28.991,28.991,0,0,1-1.7-3.95l.906-1.813Zm5.374-3.468,1.035,2.07a28.982,28.982,0,0,1-1.7,3.951l-2.583-2.583Zm-6.51-4.3a.761.761,0,0,1,.761-.761H43.5a.761.761,0,0,1,0,1.522H41.978A.762.762,0,0,1,41.217,20.772ZM27.552,37.435a9.616,9.616,0,0,1,6.186-8.321l3.2-1.067a30.5,30.5,0,0,0,2.166,4.7l0,.008h0a30.509,30.509,0,0,0,2.083,3.18l.936,1.5ZM43.5,36.757,42.468,35.1q-.017-.028-.037-.054a29.012,29.012,0,0,1-1.714-2.561l2.713-2.87,2.859,2.859a28.977,28.977,0,0,1-1.72,2.571C44.532,35.1,44.585,35.017,43.5,36.757Zm1.37.678.936-1.5a30.5,30.5,0,0,0,2.1-3.206l.011-.02v0a30.476,30.476,0,0,0,2.143-4.658l3.2,1.067a9.616,9.616,0,0,1,6.186,8.321H44.87Z" transform="translate(-26)"/></g></svg>