<svg xmlns="http://www.w3.org/2000/svg" width="35" height="41.101" viewBox="0 0 35 41.101"><defs><style>.a{fill:#0e294e;}</style></defs><g transform="translate(0)"><path class="a" d="M34.959,11.151v-.032c-.018-.395-.03-.812-.037-1.277a4.356,4.356,0,0,0-4.1-4.267A16.9,16.9,0,0,1,19.315.725L19.288.7a2.63,2.63,0,0,0-3.575,0l-.027.025a16.905,16.905,0,0,1-11.5,4.849A4.356,4.356,0,0,0,.08,9.842c-.007.462-.019.879-.037,1.277l0,.074c-.092,4.819-.206,10.816,1.8,16.259a20.7,20.7,0,0,0,4.966,7.734,25.976,25.976,0,0,0,9.717,5.748,3,3,0,0,0,.4.108,2.942,2.942,0,0,0,1.156,0,3.007,3.007,0,0,0,.4-.109,25.992,25.992,0,0,0,9.707-5.751,20.728,20.728,0,0,0,4.966-7.736C35.165,21.987,35.051,15.979,34.959,11.151ZM30.888,26.612c-2.116,5.737-6.436,9.677-13.205,12.045a.62.62,0,0,1-.077.021.542.542,0,0,1-.212,0,.611.611,0,0,1-.076-.02c-6.777-2.363-11.1-6.3-13.214-12.039C2.255,21.6,2.36,16.1,2.453,11.239v-.027c.019-.417.031-.855.038-1.335A1.936,1.936,0,0,1,4.316,7.982,21.161,21.161,0,0,0,11.5,6.4,18.79,18.79,0,0,0,17.351,2.47a.222.222,0,0,1,.3,0A18.8,18.8,0,0,0,23.5,6.4a21.161,21.161,0,0,0,7.183,1.58,1.936,1.936,0,0,1,1.824,1.9c.007.483.02.92.039,1.335C32.64,16.075,32.743,21.584,30.888,26.612Zm0,0" transform="translate(0 0.001)"/><path class="a" d="M101.07,128.41c-5.884,0-10.671,4.324-10.671,9.638s4.787,9.639,10.671,9.639,10.671-4.324,10.671-9.639S106.954,128.41,101.07,128.41Zm0,17.007c-4.5,0-8.159-3.306-8.159-7.369s3.66-7.369,8.159-7.369,8.158,3.306,8.158,7.369S105.568,145.417,101.07,145.417Zm0,0" transform="translate(-83.57 -117.497)"/><path class="a" d="M161.3,212.324l-4.477,4.477-1.215-1.215a1.135,1.135,0,0,0-1.6,1.6l2.018,2.018a1.135,1.135,0,0,0,1.6,0l5.279-5.279a1.135,1.135,0,0,0-1.6-1.6Zm0,0" transform="translate(-141.039 -194.73)"/></g></svg>