<svg xmlns="http://www.w3.org/2000/svg" width="98.331" height="65.423" viewBox="0 0 98.331 65.423">
  <path id="Path_2073" data-name="Path 2073" d="M97.353,38.039c-.879-5.456-8.206-8.116-12.566-4.606-1.7,1.364-2.05,3.25-1.96,5.277.052,1.178-.268,1.774-1.632,1.781-1.394,0-1.826-.514-1.8-1.841.06-2.407.067-4.822-.022-7.237a5.062,5.062,0,0,0-4.9-5.105,20.728,20.728,0,0,0-3.905-.045c-2.02.216-2.541-.589-2.5-2.541.1-4.7-1.8-6.462-6.514-6.462h-7.8c-.1-.656-.186-1.036-.2-1.409-.119-2.743-.112-2.75,2.556-2.758,2.154-.007,4.3-.007,6.454-.007,1.617,0,2.691-.73,2.691-2.407s-1.066-2.422-2.683-2.422Q46.251,8.212,29.91,8.19c-1.535,0-2.668.708-2.758,2.415-.082,1.535.954,2.437,2.832,2.474,1.953.037,3.913.007,5.866.015,3.242,0,3.25,0,2.974,3.287a6.643,6.643,0,0,1-.238.879c-2.773,0-5.62-.022-8.467.007-3.354.037-5.023,1.461-5.828,4.636a2.039,2.039,0,0,1-1.438,1.252c-2.139.149-4.3.03-6.447.089-3.4.082-5.418,2.109-5.493,5.53-.052,2.348.045,4.7-.03,7.036-.045,1.334.686,3.1-1.945,3.063-2.512-.03-1.811-1.7-1.833-2.974-.06-3.324.022-6.648-.022-9.972C7.06,24.192,5.942,23.3,4.443,23.67c-1.52.38-4.427,4.1-4.435,5.709-.007,3.652.067,7.3-.03,10.948a4.129,4.129,0,0,0,1.595,3.756,3.563,3.563,0,0,1,1.379,3.227c-.06,4.189,0,8.362-.022,12.536-.007,1.468.4,2.691,2.072,2.728,1.722.045,2.1-1.185,2.094-2.661-.015-3.585.037-7.17-.022-10.755-.022-1.371.484-1.789,1.833-1.789s2.064.253,2.027,1.8c-.075,2.929-.089,5.866.03,8.795a5.152,5.152,0,0,0,5.016,5.016,10.243,10.243,0,0,0,2.34.007c5.217-.879,9.383.715,12.461,5.1a20.115,20.115,0,0,0,2.057,2.087,10.571,10.571,0,0,0,8.2,3.436c10.688-.06,21.383-.015,32.078-.022,4.367-.007,6.29-1.945,6.313-6.328.015-2.527,0-5.046,0-7.677h3.354c0,.917-.037,1.744.007,2.571a5.449,5.449,0,0,0,5.493,5.463c.783.037,1.565.022,2.348.015,3.823,0,6.111-1.893,6.715-5.694A74.972,74.972,0,0,0,97.353,38.039ZM92.5,61.054c-.38,2.325-2.169,1.587-3.54,1.64-1.535.06-1.267-1.148-1.3-2.094-.03-.85.03-1.7-.037-2.541a3.612,3.612,0,0,0-3.54-3.481c-1.759-.089-3.518-.052-5.277-.03-2.72.037-4.226,1.491-4.278,4.233-.052,2.668-.075,5.344.015,8.012.052,1.446-.432,1.93-1.893,1.915-5.344-.067-10.688-.03-16.031-.03v.015c-5.016,0-10.039-.067-15.055.03a6.744,6.744,0,0,1-5.374-2.243c-1.923-2.042-4-3.928-5.925-5.962a7.214,7.214,0,0,0-5.91-2.437c-2.273.1-4.561-.022-6.842.03-1.207.03-1.8-.343-1.8-1.647q.034-13.393,0-26.786c0-1.23.559-1.55,1.684-1.528,2.474.052,4.956.037,7.431,0,2.728-.037,4.315-1.446,4.345-4.174.022-1.655.723-1.938,2.132-1.93q14.958.056,29.916,0c1.535-.007,1.983.529,2,2.05.045,6.648.447,7,7.185,6.991,4.107,0,4.107,0,4.107,4.174,0,1.953-.045,3.913.007,5.866a3.957,3.957,0,0,0,4.166,4.2c1.692.067,3.391.075,5.083-.007A3.805,3.805,0,0,0,87.656,41.3c.015-.455,0-.909,0-1.371.015-2.638,1.252-3.563,3.741-2.646a2.086,2.086,0,0,1,1.051,1.431A67.675,67.675,0,0,1,92.5,61.054Z" transform="translate(0.023 -8.19)" fill="#0e294e"/>
</svg>
