<svg id="Group_205" data-name="Group 205" xmlns="http://www.w3.org/2000/svg" width="82.795" height="78.097" viewBox="0 0 82.795 78.097">
  <path id="Path_2076" data-name="Path 2076" d="M195.761,93.968c-3.592,0-6.588.015-9.585-.015a3.25,3.25,0,0,1-1.506-.268c-4.107-2.378-8.325-4.6-12.223-7.289-3.5-2.407-3.212-4.7.745-6.387,4.718-2.02,9.629-3.585,14.444-5.381,2.191-.812,4.427-1.565,6.529-2.579,1.938-.932,2.169-2.206.589-3.682-2.176-2.042-4.576-3.831-7.215-6.007,3.525.365,6.887-.745,9.994,1.163a66.212,66.212,0,0,1,7.073,4.464c2.37,1.915,2.31,4.2-.268,5.776A73.375,73.375,0,0,1,194.71,78.4c-2.75,1.17-5.634,2.027-8.437,3.071a13.586,13.586,0,0,0-2.452,1.2c-1.833,1.155-2.05,2.333-.455,3.741a31.115,31.115,0,0,0,4.762,3.384C190.447,91.188,192.884,92.411,195.761,93.968Z" transform="translate(-170.012 -15.875)" fill="#0e294e"/>
  <path id="Path_2077" data-name="Path 2077" d="M250.131,62.646c6.685-1.416,12.052,1.163,16.859,5.247,2.363,2.012,2.318,4.308-.343,5.94a65.635,65.635,0,0,1-9.108,4.382c-2.936,1.23-5.992,2.169-8.988,3.257a11.9,11.9,0,0,0-1.766.827c-2.556,1.438-2.854,2.892-.477,4.546,3.242,2.258,6.76,4.129,10.166,6.149a4.978,4.978,0,0,1,1.155.775c-4.934-.127-10,1.215-14.541-2.094-2.78-2.027-5.918-3.563-8.645-5.642-2.855-2.176-2.683-4.345.6-5.746,5.314-2.266,10.822-4.084,16.24-6.111a52.6,52.6,0,0,0,5.239-2.1c2-1.006,2.236-2.325.6-3.831-1.96-1.8-4.151-3.339-6.238-5C250.631,63.064,250.4,62.862,250.131,62.646Z" transform="translate(-185.91 -15.848)" fill="#0e294e"/>
  <path id="Path_2078" data-name="Path 2078" d="M247.807,16.073c1.55.082,1.915-.574,1.558-2.042-.857-3.5-.812-3.518-4.353-3.525a12.026,12.026,0,0,0-1.371,0,2.726,2.726,0,0,1-3-1.625c-.924-1.722-1.982-3.369-3.041-5.016A7.785,7.785,0,0,0,230.755,0q-12.219-.034-24.446.007A7.656,7.656,0,0,0,199.72,3.6a18.036,18.036,0,0,0-1.833,3c-1.319,3.2-3.54,4.435-7.006,3.958-2.117-.291-3.331,1.349-3.272,4.256.045,2.094,1.848.932,2.862,1.245a11.481,11.481,0,0,0,1.282.2,11.624,11.624,0,0,0-.9,1.744c-.656,2.281-1.789,4.584-1.759,6.864.067,5.2.686,10.4,1.14,15.584a2.625,2.625,0,0,0,2.862,2.6c1.17.007,2.348.007,3.518,0,2.989-.015,3.808-.693,3.7-3.659-.075-1.975.693-2.355,2.5-2.34,10.3.075,20.6.037,30.9.037,2.884,0,2.884.007,3.026,2.884.1,2.109,1.029,3.033,3.182,3.093,1.17.037,2.348.007,3.518-.015,2.474-.045,3.19-.581,3.436-3,.432-4.345.671-8.705,1.118-13.043a13.8,13.8,0,0,0-2.228-9.86,3.9,3.9,0,0,1-.261-1.081C246.391,16.066,247.1,16.036,247.807,16.073ZM208.821,5.587h19.326c4.04,0,4.867.6,6.395,4.725H202.635C204.051,6.28,204.975,5.594,208.821,5.587Zm33.2,24.737c-.067.417-.783.79-1.267,1.066-.246.142-.641.03-.961.03-14,0-28.016-.03-42.02.03-1.856.007-2.966-.291-2.832-2.459a29.683,29.683,0,0,0-.283-3.89h10.114V19.524h-7.759c1.155-3.264,1.379-3.451,4.151-3.451q17.4-.011,34.791-.007c2.773,0,3.071.231,4.122,3.376H232.4V25.1h10.047C242.307,27.014,242.277,28.684,242.024,30.323Z" transform="translate(-174.494 0.011)" fill="#0e294e"/>
</svg>
