<svg xmlns="http://www.w3.org/2000/svg" width="86.924" height="53.768" viewBox="0 0 86.924 53.768">
  <path id="Path_2075" data-name="Path 2075" d="M391.106,37.152a26.736,26.736,0,0,0-21.286,2.735,2.1,2.1,0,0,1-2.445.142c-9.711-5.4-19.5-5.336-29.268-.134a2.044,2.044,0,0,1-2.437.112,26.862,26.862,0,0,0-17.634-3.712,18.009,18.009,0,0,0-8.787,3.294c1.066,1.61,2.064,3.108,3.063,4.613,6.723-3.756,13.192-3,19.8.246a7.171,7.171,0,0,1-.522.865c-6.715,8.139-9.048,17.589-8.31,27.926a23.162,23.162,0,0,0,3.458,11.075c2.884,4.479,7.595,6.4,12.283,4.941,4.054-1.26,6.462-4.3,8.027-8.019,3.16-7.5,3.108-15.219,1.207-23a32.731,32.731,0,0,0-6.8-13.43c5.269-4.166,17.738-4.054,22.27.052A35.364,35.364,0,0,0,355.5,64.929c-.641,6.738-.112,13.326,3.6,19.236,4.517,7.2,13.423,7.5,18.349.589a18.3,18.3,0,0,0,2.713-5.582c3.3-11.9,1.386-22.948-5.88-33-.358-.5-.76-.976-1.215-1.55a21.538,21.538,0,0,1,10.076-2.914,16.738,16.738,0,0,1,9.868,2.541c1.051-1.625,2-3.086,3.16-4.867A40.309,40.309,0,0,0,391.106,37.152ZM342.379,77.5a13.926,13.926,0,0,1-2.407,4.412c-2.392,3-5.746,2.877-8.042-.2-2.273-3.041-2.936-6.618-3.093-10.3-.335-7.863,1.543-15.085,6.372-21.412.313-.41.656-.8,1.014-1.192a3.627,3.627,0,0,1,.656-.417,24.03,24.03,0,0,1,1.565,1.915A30.82,30.82,0,0,1,342.379,77.5ZM376.014,67.2a24.431,24.431,0,0,1-1.9,12.022c-1.111,2.407-2.5,4.77-5.582,4.777s-4.591-2.281-5.582-4.748c-3.317-8.213-2.415-16.337,1.081-24.237,1.051-2.385,2.705-4.5,4.278-7.058A30.683,30.683,0,0,1,376.014,67.2Z" transform="translate(-309.25 -35.987)" fill="#0e294e"/>
</svg>
