<svg xmlns="http://www.w3.org/2000/svg" width="62.566" height="67.115" viewBox="0 0 62.566 67.115">
  <path id="Path_2072" data-name="Path 2072" d="M83.642,191.716a69.012,69.012,0,0,0-1.438-7.065q-1.878-9.659-3.7-19.333c-.276-1.468.224-2.452,1.848-2.549,1.424-.089,1.647-.9,1.17-2a67.35,67.35,0,0,0-4.084-8.824A21.874,21.874,0,0,0,65.681,142.7c-1.707-.581-2.437-.1-2.184,1.662a5.069,5.069,0,0,0,1.543,2.691c5.284,5.008,9.145,10.606,8.988,18.334a35.771,35.771,0,0,0,1.029,8.116c1.3,5.977,2.862,11.9,4.189,17.857a5.621,5.621,0,0,1-3.555,6.268,5.43,5.43,0,0,1-6.715-2.042,9.61,9.61,0,0,1-1.155-4.42c-.142-5.21-.045-10.427-.067-15.644A8.415,8.415,0,0,0,62.4,167.39a22.908,22.908,0,0,0-3.51-.976c-.045-.715-.134-1.483-.134-2.251-.007-5.866.022-11.731-.007-17.6-.015-2.929-1.289-4.189-4.159-4.189q-12.812-.022-25.623.007c-3,.007-4.233,1.252-4.248,4.293-.022,5.344-.007,10.688-.007,16.031,0,13.229-.015,26.466.03,39.695.007,1.655-.186,2.877-2.281,2.691a1.208,1.208,0,0,0-.947.477,2.552,2.552,0,0,0,2.251,3.913H60.918c1.438-.022,1.26-1.1,1.185-1.975-.075-.9.626-2.467-1.066-2.4-2.333.1-2.3-1.3-2.3-2.892q.011-14.466.007-28.94c0-.641.067-1.282.112-2.05,3.018.239,4.5,1.871,4.517,4.785.03,5.6-.089,11.217.06,16.814a10.118,10.118,0,1,0,20.205-1.11Zm-31.347-25c-3.518-.052-7.028-.015-10.546-.015V166.7c-3.518,0-7.028-.045-10.546.022-1.528.03-2.079-.566-2.064-2.072q.078-8,.007-16.009c-.015-1.461.648-1.968,2-1.96q10.643.022,21.286,0c1.356,0,2.012.574,2,2q-.056,8,0,16.009C54.456,166.227,53.763,166.741,52.295,166.719Z" transform="translate(-21.116 -142.369)" fill="#0e294e"/>
</svg>
