<svg id="Group_207" data-name="Group 207" xmlns="http://www.w3.org/2000/svg" width="86.811" height="65.624" viewBox="0 0 86.811 65.624">
  <path id="Path_2081" data-name="Path 2081" d="M264.853,199.394c-1.632-1.573-3.264-3.145-5.008-4.83,6.656-7.2,10.367-15.547,10.367-25.415s-3.592-18.26-10.382-25.519c1.811-1.565,3.563-3.071,5.329-4.591C281.585,154.5,281.645,183.542,264.853,199.394Z" transform="translate(-190.652 -136.32)" fill="#0e294e"/>
  <path id="Path_2082" data-name="Path 2082" d="M179.568,138.53c1.684,1.677,3.287,3.264,5.016,4.971a36.241,36.241,0,0,0,0,50.9c-1.759,1.684-3.391,3.25-5.031,4.815C163.783,184.739,161.9,155.858,179.568,138.53Z" transform="translate(-167.011 -136.19)" fill="#0e294e"/>
  <path id="Path_2083" data-name="Path 2083" d="M214.3,135.39c-18.521-.007-33.084,14.34-33.1,32.607a32.8,32.8,0,1,0,33.1-32.607Zm-.335,59.937a27.192,27.192,0,1,1,27.166-26.846A27.151,27.151,0,0,1,213.963,195.327Z" transform="translate(-170.625 -135.39)" fill="#0e294e"/>
  <path id="Path_2084" data-name="Path 2084" d="M196.25,161.86c1.282-1.192,2.459-2.31,3.652-3.4a3.794,3.794,0,0,1,5-.358c7.2,5.4,15.428,7.952,24.252,8.862,1.2.119,1.684.589,2.012,1.833,1.23,4.636,4.4,7.93,8.176,10.613,1.6,1.133,1.811,2.169.79,3.667a35.18,35.18,0,0,1-3.346,4.785,81.715,81.715,0,0,0-6.8,7.259L219.123,184.19c.492-.552,1.088-1.215,1.833-2.05a17.538,17.538,0,0,0-8.482-5.262,4.105,4.105,0,0,1-1.9-.783C205.827,171.445,201.139,166.742,196.25,161.86Z" transform="translate(-174.458 -140.977)" fill="#0e294e"/>
</svg>
