<svg xmlns="http://www.w3.org/2000/svg" width="87.452" height="61.463" viewBox="0 0 87.452 61.463">
  <path id="Path_2074" data-name="Path 2074" d="M388.072,149.064q-41.4-21.543-82.7.231c-2.467,1.3-2.713,2.4-1.267,4.9q9.8,17.015,19.624,34.023c1.23,2.124,2.281,2.378,4.5,1.252,1.714-.865,3.481-1.632,5.493-2.571.209,4.83-1.655,8.7-3.369,12.856a27.251,27.251,0,0,1,3.339.022,2.2,2.2,0,0,0,2.817-1.915c.76-3.674,1.468-7.364,2.273-11.023.119-.552.6-1.371,1.029-1.438a54.259,54.259,0,0,1,6.589-.7,1.756,1.756,0,0,1,1.282,1.17,19.368,19.368,0,0,1-.291,5.225c-.723,2.877-1.8,5.664-2.78,8.653a24.459,24.459,0,0,1,3.22.03,2.174,2.174,0,0,0,2.7-1.819c.186-.686.566-1.334.7-2.027.686-3.481,1.319-6.976,2.042-10.844,2.042.552,4.315,1.237,6.633,1.781,1.669.4,2.064,1.364,1.625,2.869-.954,3.287-1.923,6.566-2.937,10.032a25.591,25.591,0,0,1,3.108.022,2.167,2.167,0,0,0,2.676-1.841c.6-2.2,1.215-4.39,1.923-6.551.156-.484.7-1.2,1.073-1.207,1.491-.022,2.184-.909,2.832-2.035q9.715-16.848,19.46-33.665C391.3,151.613,391.053,150.622,388.072,149.064Zm-21.271,35c-1.573-4.323-3.153-8.288-4.42-12.357a10.431,10.431,0,0,1-.209-4.8c.581-3.2,1.125-3.533,4.435-3.92-1.841-3.935-3.645-7.8-5.634-12.044-1.96,4.166-3.794,8.049-5.672,12.044.984.134,1.737.231,2.139.283,0,3.235-.417,6.38.119,9.354.537,3.018,2.012,5.866,3.168,9.026-3.018-.589-5.851-1.111-8.668-1.707-.291-.06-.6-.484-.73-.8a76.188,76.188,0,0,1-2.884-7.669,11.165,11.165,0,0,1-.082-4.792c.522-2.9,1.155-3.324,4.218-3.689-1.833-3.92-3.645-7.788-5.634-12.044-1.975,4.181-3.794,8.042-5.687,12.044,1.036.134,1.848.231,2.3.291-.067,2.936-.492,5.746-.1,8.437.388,2.638,1.6,5.157,2.482,7.833-2.467.32-4.837.678-7.222.894a1.59,1.59,0,0,1-1.252-.8c-1.073-2.653-2.169-5.307-3-8.042a10.309,10.309,0,0,1-.276-4.218c.417-3.235,1.163-3.913,4.33-4.472-1.841-3.913-3.659-7.773-5.627-11.97-1.975,4.2-3.8,8.1-5.664,12.066l2.914.343c-2.281,5.769-.358,10.866,1.863,15.942,1.111,2.527,1.029,2.556-1.625,3.637-1.014.41-2.012.865-3.182,1.371-6.029-10.434-12.014-20.779-18-31.131,19.661-12.007,51.374-13.863,75.5-.142C378.77,163.336,372.823,173.644,366.8,184.063Z" transform="translate(-303.217 -138.366)" fill="#0e294e"/>
</svg>
