<svg id="Group_208" data-name="Group 208" xmlns="http://www.w3.org/2000/svg" width="86.788" height="65.654" viewBox="0 0 86.788 65.654">
  <path id="Path_2085" data-name="Path 2085" d="M264.93,277.09c17.008,16.754,16.3,45.076-.142,60.839-1.61-1.6-3.22-3.2-4.979-4.949,6.685-7.185,10.427-15.592,10.419-25.512-.007-9.875-3.667-18.252-10.375-25.407C261.547,280.392,263.2,278.774,264.93,277.09Z" transform="translate(-190.617 -274.671)" fill="#0e294e"/>
  <path id="Path_2086" data-name="Path 2086" d="M179.6,277.03c1.535,1.655,3.071,3.309,4.777,5.143a36.23,36.23,0,0,0,.067,50.584c-1.707,1.647-3.376,3.257-5.061,4.874C163.087,322.464,162.506,293.292,179.6,277.03Z" transform="translate(-166.971 -274.656)" fill="#0e294e"/>
  <path id="Path_2087" data-name="Path 2087" d="M214.016,273.849c-18.9.306-33.144,14.831-32.838,33.494a32.765,32.765,0,0,0,33.457,32.152c18.208-.283,32.458-15.279,32.16-33.844C246.511,288.106,231.531,273.565,214.016,273.849Zm-.216,59.974a27.2,27.2,0,1,1,27.338-27.1A27.212,27.212,0,0,1,213.8,333.823Z" transform="translate(-170.588 -273.845)" fill="#0e294e"/>
  <path id="Path_2088" data-name="Path 2088" d="M248.943,306.953c-.775.663-1.461,1.245-1.953,1.662a17.449,17.449,0,0,0-3.346-1.461,2.613,2.613,0,0,0-3.2,1.908c-.492,1.506.462,2.355,1.64,2.922,1.051.5,2.2.8,3.294,1.207,3.086,1.148,4.248,3.1,3.905,6.559-.268,2.72-1.938,4.315-5.1,4.7-2.966.358-5.538-.365-7.4-3.145.768-.581,1.483-1.125,1.871-1.416a30.985,30.985,0,0,0,4.643,1.759,2.374,2.374,0,0,0,2.795-1.908,2.606,2.606,0,0,0-1.416-3.287c-1.267-.648-2.668-1.021-3.98-1.587-2.78-1.2-3.913-3.294-3.354-6.082a5.3,5.3,0,0,1,5.426-4.4C245.142,304.278,247.341,304.576,248.943,306.953Z" transform="translate(-184.751 -281.617)" fill="#0e294e"/>
  <path id="Path_2089" data-name="Path 2089" d="M226.927,313.862c2.638-1.394,2.564-3.645,2.132-5.88a3.919,3.919,0,0,0-3.659-3.309c-2.5-.209-5.023-.052-7.609-.052v19.75c2.027,0,3.905.015,5.784,0,3.19-.03,4.8-.961,5.612-3.242C230.222,318.245,229.573,316,226.927,313.862Zm-4.338-6.752c2.564.157,3.816.939,3.816,2.854,0,1.871-1.185,2.795-3.883,2.8-2.3.634-1.938-1.207-1.893-2.683C220.659,308.727,219.989,306.946,222.59,307.11Zm.045,14.571c-2.951.149-1.737-1.99-2.027-3.153.007-3.19.007-3.19,2.273-3.182,2.668.007,3.727.872,3.749,3.056C226.652,320.727,225.489,321.539,222.634,321.681Z" transform="translate(-179.914 -281.669)" fill="#0e294e"/>
  <path id="Path_2090" data-name="Path 2090" d="M203.981,304.687c-2.333-.708-3.272.149-3.816,2.288-1.356,5.284-2.966,10.494-4.464,15.741a13.706,13.706,0,0,0-.261,1.409c2.05.626,3.309.2,3.51-2,.157-1.8,1.185-2.43,2.914-2.154a4.964,4.964,0,0,0,1.558.007c1.55-.238,2.169.5,2.5,1.938.611,2.676.678,2.661,3.7,2.221C207.723,317.588,205.829,311.066,203.981,304.687Zm-3.727,12.543c.656-2.75,1.274-5.359,1.893-7.975.186-.015.373-.037.559-.052.619,2.609,1.237,5.21,1.908,8.027Z" transform="translate(-174.222 -281.638)" fill="#0e294e"/>
</svg>
