<svg xmlns="http://www.w3.org/2000/svg" width="35" height="35" viewBox="0 0 35 35">
  <path id="reflector-vest" d="M53.837,20.358l-.319-.233a10.571,10.571,0,0,1-4.448-7.458A10.1,10.1,0,0,1,51.9,4.605.366.366,0,0,0,52,4.3a.391.391,0,0,0-.185-.273L45.5.072a.485.485,0,0,0-.551.03l-4.26,3.418H32.306L28.046.1A.485.485,0,0,0,27.5.072L21.182,4.027A.391.391,0,0,0,21,4.3a.367.367,0,0,0,.1.306,10.1,10.1,0,0,1,2.831,8.062,10.571,10.571,0,0,1-4.448,7.458l-.319.233a.381.381,0,0,0-.163.306V34.6a.421.421,0,0,0,.443.4H53.557A.421.421,0,0,0,54,34.6V20.664A.38.38,0,0,0,53.837,20.358Zm-.879.38.156.114V25.28H36.943V12.653a10.68,10.68,0,0,1,3.063-7.389l8.2,5.1a10.593,10.593,0,0,0-.019,2.376A11.336,11.336,0,0,0,52.958,20.738Zm.156,7.342H36.943V26.071H53.114ZM19.886,26.071H36.057v2.009H19.886ZM33.224,4.31h6.552A11.872,11.872,0,0,0,36.5,9.586,11.871,11.871,0,0,0,33.224,4.31ZM45.284.9,50.92,4.43a11.706,11.706,0,0,0-1.4,1.963l-6.5-3.681ZM42.341,3.261l6.807,3.857a10.651,10.651,0,0,0-.8,2.372l-7.74-4.813q.266-.24.548-.468ZM27.716.9l2.273,1.824-6.5,3.685A11.708,11.708,0,0,0,22.08,4.43ZM23.859,7.134l6.814-3.861,1.167.936q.29.233.562.481l-7.75,4.819A10.647,10.647,0,0,0,23.859,7.134Zm-3.817,13.6a11.336,11.336,0,0,0,4.769-8,10.6,10.6,0,0,0-.017-2.356l8.213-5.107a10.679,10.679,0,0,1,3.05,7.375V25.28H19.886V20.852Zm-.156,8.133H36.057v5.339H19.886Zm17.057,5.339V28.87H53.114v5.339Z" transform="translate(-19 0)" fill="#0e294e"/>
</svg>
