<svg xmlns="http://www.w3.org/2000/svg" width="35" height="31.429" viewBox="0 0 35 31.429">
  <g id="Group_159" data-name="Group 159" transform="translate(-1581 -5214)">
    <g id="signaling" transform="translate(1581 5214)">
      <path id="Path_1440" data-name="Path 1440" d="M34.429,25.1,23.813,6.717c-.144-.25-.624.086-.624.086l-.281.437L33.524,25.627a3.172,3.172,0,0,1-2.747,4.757H4.224a3.171,3.171,0,0,1-2.747-4.757l13.277-23a3.172,3.172,0,0,1,5.493,0L22.908,7.24a.523.523,0,0,0,.9-.523L21.152,2.108a4.216,4.216,0,0,0-7.3,0L.572,25.1a4.216,4.216,0,0,0,3.651,6.325H30.777A4.216,4.216,0,0,0,34.429,25.1Zm0,0" transform="translate(0)" fill="#0e294e"/>
      <path id="Path_1441" data-name="Path 1441" d="M57.144,74.878c0,.288-1.855.522-1.566.522H78.245a.733.733,0,0,0,.635-1.1L65.61,51.319a.733.733,0,0,0-1.269,0L51.072,74.3a.733.733,0,0,0,.635,1.1h3.871c.288,0,7-.234,7-.522s-6.709-.522-7-.522H52.246l12.73-22.047,12.73,22.047H55.577S57.144,74.589,57.144,74.878Zm0,0" transform="translate(-47.476 -47.462)" fill="#0e294e"/>
      <path id="Path_1442" data-name="Path 1442" d="M203.363,159.383l-.174-1a1.547,1.547,0,0,0-1.526-1.282H199.28a1.546,1.546,0,0,0-1.526,1.282l-.174,1a1.562,1.562,0,0,0-1.193,1.515v1.478a.524.524,0,0,0,.524.524h.768v.663a.524.524,0,1,0,1.047,0V162.9h3.491v.663a.524.524,0,1,0,1.047,0V162.9h.768a.524.524,0,0,0,.524-.524V160.9A1.562,1.562,0,0,0,203.363,159.383Zm-4.577-.815a.5.5,0,0,1,.495-.415h2.382a.5.5,0,0,1,.495.416l.135.771h-3.641Zm4.723,3.285h-6.075V160.9a.512.512,0,0,1,.512-.512H203a.512.512,0,0,1,.512.512Zm0,0" transform="translate(-182.971 -146.373)" fill="#0e294e"/>
      <path id="Path_1443" data-name="Path 1443" d="M171.934,269.705a2.237,2.237,0,0,0,2.234,2.234h.733a1.643,1.643,0,0,1,1.641,1.641.524.524,0,0,0,1.047,0,2.691,2.691,0,0,0-2.688-2.688h-.733a1.187,1.187,0,1,1,0-2.374,1.747,1.747,0,0,0,1.745-1.745v-.1a.524.524,0,0,0-1.047,0v.1a.7.7,0,0,1-.7.7A2.237,2.237,0,0,0,171.934,269.705Zm0,0" transform="translate(-160.186 -247.966)" fill="#0e294e"/>
      <path id="Path_1444" data-name="Path 1444" d="M239.277,268.518a1.748,1.748,0,0,0,1.746-1.745v-.1a.524.524,0,0,0-1.047,0v.1a.7.7,0,0,1-.7.7,2.234,2.234,0,1,0,0,4.469h.733a1.643,1.643,0,0,1,1.641,1.641.524.524,0,0,0,1.047,0,2.691,2.691,0,0,0-2.688-2.688h-.733a1.187,1.187,0,1,1,0-2.374Zm0,0" transform="translate(-220.846 -247.966)" fill="#0e294e"/>
    </g>
  </g>
</svg>
