<svg id="Lag_1" data-name="Lag 1" xmlns="http://www.w3.org/2000/svg" viewBox="0 0 585 585"><defs><style>.cls-1{fill:none;}.cls-2{fill:#0e294e;}.cls-3{fill:#fff;}</style></defs><title>Driveclever DC logo</title><path class="cls-1" d="M273.91,281.24a33.85,33.85,0,0,0-1.46,4l0,.08a27.06,27.06,0,0,0,0,14.45l0,.07a34,34,0,0,0,1.46,4.05,37.69,37.69,0,0,0,9.19,11.53,86.5,86.5,0,0,0,9.79,7.24,86.39,86.39,0,0,0,9.78-7.24,37.69,37.69,0,0,0,9.19-11.53,34,34,0,0,0,1.46-4.05l0-.07a26.86,26.86,0,0,0,0-14.45l0-.08a33.85,33.85,0,0,0-1.46-4,37.69,37.69,0,0,0-9.19-11.53,86.48,86.48,0,0,0-9.78-7.25,86.59,86.59,0,0,0-9.79,7.25A37.69,37.69,0,0,0,273.91,281.24Z"/><path class="cls-2" d="M485.77,366c10.27-6.25,15.9-15.74,15.93-28V247.21c0-12.27-5.66-21.76-15.93-28h0l-68.43-38.58-36.81,24.31q-23.88,15.73-47.79,31.43-16.91,11.1-33.83,22.16c-2,1.33-4,2.62-6,3.94a86.48,86.48,0,0,1,9.78,7.25,37.69,37.69,0,0,1,9.19,11.53,33.85,33.85,0,0,1,1.46,4l0,.08a26.86,26.86,0,0,1,0,14.45l0,.07a34,34,0,0,1-1.46,4.05,37.69,37.69,0,0,1-9.19,11.53,86.39,86.39,0,0,1-9.78,7.24c2,1.32,4,2.62,6,3.95q16.92,11.07,33.83,22.16,23.91,15.69,47.79,31.43l36.84,24.32L485.76,366Z"/><path class="cls-2" d="M146.57,419c-12,7.9-24,15.7-36,23.65-5.86,3.89-12.15,7.21-16.84,12.69-5.17,6-9.59,12.38-9.57,20.82v1.94c0,10.71-.19,21.42,0,32.12q0,14.94-.1,29.86a27.65,27.65,0,0,0,4.39,14.83c8.39,13.9,26.91,19.61,41.66,11.64.62-.34,1.25-.66,1.87-1l7.4-4.17.72-.47h0L283,480.36l9.88-5.57L168.42,404.56Z"/><path class="cls-2" d="M128.65,17.88c-14.49-6.82-32.05-1-40.16,12.38A27.71,27.71,0,0,0,84.1,45.09Q84.21,60,84.2,75c-.24,10.69,0,21.41,0,32.11V109c0,8.45,4.4,14.79,9.57,20.83,4.69,5.47,11,8.8,16.84,12.69,12,7.94,24,15.75,36,23.65l21.87,14.44,124.45-70.15Z"/><path class="cls-3" d="M302.76,480.36l142.87,80.55h0l.71.47,7.4,4.17c.62.33,1.25.65,1.87,1,14.76,8,33.27,2.26,41.67-11.64a27.83,27.83,0,0,0,4.39-14.83q-.12-14.93-.1-29.86c.23-10.7,0-21.41,0-32.12v-1.94c0-8.44-4.4-14.78-9.57-20.82-4.68-5.48-11-8.8-16.84-12.69-12-7.95-24-15.75-36-23.65l-21.84-14.43L292.89,474.79Z"/><path class="cls-3" d="M253,348.81q16.91-11.1,33.83-22.16c2-1.33,4-2.63,6-3.95a86.5,86.5,0,0,1-9.79-7.24,37.69,37.69,0,0,1-9.19-11.53,34,34,0,0,1-1.46-4.05l0-.07a27.06,27.06,0,0,1,0-14.45l0-.08a33.85,33.85,0,0,1,1.46-4,37.69,37.69,0,0,1,9.19-11.53,86.59,86.59,0,0,1,9.79-7.25c-2-1.32-4-2.61-6-3.94Q269.95,247.45,253,236.36q-23.91-15.69-47.78-31.43l-36.82-24.31L100,219.2h0c-10.28,6.25-15.91,15.74-15.93,28V338c0,12.27,5.65,21.76,15.93,28h0l68.41,38.59q18.41-12.17,36.84-24.32Q229.13,364.51,253,348.81Z"/><path class="cls-3" d="M439.2,166.18c12-7.9,24.05-15.71,36-23.65,5.86-3.89,12.16-7.22,16.84-12.69,5.17-6,9.59-12.38,9.57-20.83v-1.94c0-10.7.19-21.42,0-32.11q0-14.94.1-29.87a27.88,27.88,0,0,0-4.39-14.83c-8.12-13.42-25.68-19.2-40.16-12.38L292.89,110.47l124.44,70.15Z"/><path class="cls-3" d="M332.73,348.81q-16.91-11.1-33.83-22.16c-2-1.33-4-2.63-6-3.95-2,1.32-4,2.62-6,3.95Q269.95,337.72,253,348.81q-23.91,15.69-47.78,31.43-18.44,12.15-36.84,24.32l124.47,70.23,124.47-70.23-36.84-24.32Q356.64,364.51,332.73,348.81Z"/><path class="cls-2" d="M253,236.36q16.91,11.1,33.83,22.16c2,1.33,4,2.62,6,3.94,2-1.32,4-2.61,6-3.94q16.92-11.07,33.83-22.16,23.91-15.69,47.79-31.43l36.81-24.31L292.89,110.47,168.44,180.62l36.82,24.31Q229.13,220.66,253,236.36Z"/></svg>