<svg xmlns="http://www.w3.org/2000/svg" width="170" height="49" viewBox="0 0 170 49">
  <g id="Group_163" data-name="Group 163" transform="translate(0.412 0.276)">
    <rect id="Rectangle_300" data-name="Rectangle 300" width="170" height="49" rx="23" transform="translate(-0.412 -0.276)" fill="#0e294e"/>
    <g id="Group_162" data-name="Group 162" transform="translate(13.729 6.337)">
      <text id="Ring_nu" data-name="Ring nu" transform="translate(142.859 26.388)" fill="#fff" font-size="21" font-family="OpenSans-Bold, Open Sans" font-weight="700"><tspan x="-78.996" y="0">Ring nu</tspan></text>
      <g id="headset" transform="translate(0 0)">
        <g id="Group_154" data-name="Group 154" transform="translate(0 0)">
          <g id="Group_153" data-name="Group 153">
            <path id="Path_1438" data-name="Path 1438" d="M8.711,13.95H5.842c.485-6.254,6.014-11.2,12.741-11.2a12.821,12.821,0,0,1,11.986,7.9,1.476,1.476,0,0,0,1.865.812,1.355,1.355,0,0,0,.858-1.766,14.938,14.938,0,0,0-5.653-6.968A16.353,16.353,0,0,0,7.5,4.348a14.364,14.364,0,0,0-4.59,10.341A5.455,5.455,0,0,0,0,19.448v4.673a5.665,5.665,0,0,0,5.807,5.5h2.9a1.415,1.415,0,0,0,1.452-1.374V15.325A1.415,1.415,0,0,0,8.711,13.95ZM7.259,26.87H5.807a2.833,2.833,0,0,1-2.9-2.749V19.448a2.833,2.833,0,0,1,2.9-2.749H7.259Z" transform="translate(0 0)" fill="#fff"/>
            <path id="Path_1439" data-name="Path 1439" d="M230.844,203h-2.749a1.374,1.374,0,0,0-1.374,1.374v14.363a1.376,1.376,0,0,1-1.374,1.374h-4.192v.044a2.749,2.749,0,1,0,0,2.662v.044h4.192a4.128,4.128,0,0,0,4.123-4.123v-.069h1.374a5.5,5.5,0,0,0,5.5-5.5V208.5A5.5,5.5,0,0,0,230.844,203Zm2.749,10.171a2.752,2.752,0,0,1-2.749,2.749h-1.374V205.749h1.374a2.752,2.752,0,0,1,2.749,2.749Z" transform="translate(-199.378 -187.271)" fill="#fff"/>
          </g>
        </g>
      </g>
    </g>
  </g>
</svg>
