<svg id="automobile-with-wrench" xmlns="http://www.w3.org/2000/svg" width="35" height="42.054" viewBox="0 0 35 42.054">
  <path id="Path_688" data-name="Path 688" d="M109.035,22.894c2.821,0,9.453-3.371,9.453-11.447,0-1.127-.028-2.215-.121-3.243a9.657,9.657,0,0,0-1.61-5.191C115.424,1.142,113.091,0,109.035,0s-6.387,1.142-7.72,3.011A9.655,9.655,0,0,0,99.7,8.2c-.093,1.028-.121,2.116-.121,3.243C99.583,19.524,106.215,22.894,109.035,22.894Zm3.085-18.7-.689,1.727a7.865,7.865,0,0,0-4.794,0l-.689-1.727A9.747,9.747,0,0,1,112.121,4.194ZM100.989,9.7c.109.236.572,1.146,1.288,1.231.823.1,2.19-2.895,6.759-2.9s5.935,3,6.759,2.9c.716-.085,1.179-.995,1.288-1.231.022.58.03,1.166.03,1.751a10.174,10.174,0,0,1-3.228,7.751,8.282,8.282,0,0,1-4.848,2.33,8.282,8.282,0,0,1-4.848-2.33,10.174,10.174,0,0,1-3.228-7.751C100.959,10.862,100.967,10.275,100.989,9.7Z" transform="translate(-91.536)" fill="#0e294e"/>
  <path id="Path_689" data-name="Path 689" d="M65.256,200.848c-.481-2.979-1.471-6.817-3.457-8.181-1.357-.932-6.089-3.45-8.11-4.526l-.034-.018a.662.662,0,0,0-.719.063,8.6,8.6,0,0,1-3.447,1.658.659.659,0,0,0-.474.409l-1.251,3.284-1.251-3.284a.659.659,0,0,0-.474-.409,8.6,8.6,0,0,1-3.446-1.658.663.663,0,0,0-.719-.063c-2,1.063-6.787,3.633-8.138,4.54-2.287,1.534-3.286,7.088-3.464,8.185a.658.658,0,0,0,.029.324c.048.136.8,2.088,4.587,3.656a1.879,1.879,0,0,1,.835-.6,1.855,1.855,0,0,1-1.017-2.643,5.538,5.538,0,0,1,9.446-.427h7.217a5.538,5.538,0,0,1,4.588-2.444h0a5.54,5.54,0,0,1,4.853,2.856,1.856,1.856,0,0,1-1.009,2.646,1.876,1.876,0,0,1,.847.606c3.772-1.568,4.527-3.516,4.576-3.652A.66.66,0,0,0,65.256,200.848Z" transform="translate(-30.265 -166.053)" fill="#0e294e"/>
  <path id="Path_690" data-name="Path 690" d="M103.545,299.357h0l-3.484,0a6.506,6.506,0,0,1,0-3.035l3.483-.005a.236.236,0,0,0,.2-.115.233.233,0,0,0,0-.232,3.919,3.919,0,0,0-6.189-.872,3.865,3.865,0,0,0-.862,1.3H87.509a3.912,3.912,0,0,0-7.052-.419.232.232,0,0,0,0,.232.235.235,0,0,0,.2.114h0l3.484-.005a6.506,6.506,0,0,1,0,3.035l-3.483.005a.236.236,0,0,0-.2.115.233.233,0,0,0,0,.232,3.911,3.911,0,0,0,3.423,2.014h.006a3.9,3.9,0,0,0,3.622-2.445H96.7a3.911,3.911,0,0,0,3.624,2.445h.005a3.912,3.912,0,0,0,3.423-2.024.233.233,0,0,0,0-.232A.235.235,0,0,0,103.545,299.357Z" transform="translate(-74.604 -259.674)" fill="#0e294e"/>
</svg>
