<svg xmlns="http://www.w3.org/2000/svg" width="47.162" height="47.162" viewBox="0 0 47.162 47.162">
  <g id="Group_266" data-name="Group 266" transform="translate(25.582 -11599.919)">
    <path id="Union_4" data-name="Union 4" d="M-977.348-880.924l-18.243-18.243-18.243,18.243a3.127,3.127,0,0,1-4.423,0,3.127,3.127,0,0,1,0-4.423l18.243-18.243-18.243-18.243a3.127,3.127,0,0,1,0-4.423,3.129,3.129,0,0,1,4.423,0l18.243,18.243,18.243-18.243a3.129,3.129,0,0,1,4.423,0,3.127,3.127,0,0,1,0,4.423l-18.243,18.243,18.243,18.243a3.127,3.127,0,0,1,0,4.423,3.117,3.117,0,0,1-2.211.916A3.117,3.117,0,0,1-977.348-880.924Z" transform="translate(993.59 12527.09)" fill="#0e294e"/>
  </g>
</svg>
