<svg xmlns="http://www.w3.org/2000/svg" width="78" height="78" viewBox="0 0 78 78">
  <g id="Group_261" data-name="Group 261" transform="translate(50 -11483)">
    <g id="Group_260" data-name="Group 260" transform="translate(-333 11477)">
      <circle id="Ellipse_44" data-name="Ellipse 44" cx="39" cy="39" r="39" transform="translate(283 6)" fill="#0e294e"/>
      <g id="envelope" transform="translate(297 -31.75)">
        <g id="Group_95" data-name="Group 95" transform="translate(0 57.75)">
          <path id="Path_709" data-name="Path 709" d="M43.9,57.75H6.114A6.12,6.12,0,0,0,0,63.864V89.687A6.12,6.12,0,0,0,6.114,95.8H43.886A6.12,6.12,0,0,0,50,89.687V63.875A6.113,6.113,0,0,0,43.9,57.75Zm3.321,31.937A3.325,3.325,0,0,1,43.9,93.008H6.114a3.325,3.325,0,0,1-3.321-3.321V63.875a3.325,3.325,0,0,1,3.321-3.321H43.886a3.325,3.325,0,0,1,3.321,3.321V89.687Z" transform="translate(0 -57.75)" fill="#fff"/>
          <path id="Path_710" data-name="Path 710" d="M77.919,119.909l10.521-9a1.115,1.115,0,0,0,.089-1.622,1.249,1.249,0,0,0-1.7-.085L72.321,121.624l-2.83-2.411c-.009-.008-.018-.017-.018-.025a1.758,1.758,0,0,0-.2-.161L57.759,109.2a1.241,1.241,0,0,0-1.7.093,1.108,1.108,0,0,0,.1,1.622L66.8,119.986l-10.6,9.466a1.114,1.114,0,0,0-.053,1.622,1.258,1.258,0,0,0,.881.365,1.237,1.237,0,0,0,.819-.306l10.761-9.6,2.919,2.488a1.242,1.242,0,0,0,1.6-.008l3-2.564,10.7,9.7a1.246,1.246,0,0,0,1.7-.042,1.113,1.113,0,0,0-.045-1.622Z" transform="translate(-47.294 -101.142)" fill="#fff"/>
        </g>
      </g>
      <circle id="Ellipse_45" data-name="Ellipse 45" cx="7" cy="7" r="7" transform="translate(338 55)" fill="#f22424"/>
    </g>
  </g>
</svg>
