<svg xmlns="http://www.w3.org/2000/svg" width="35" height="27.072" viewBox="0 0 35 27.072">
  <g id="Group_264" data-name="Group 264" transform="translate(208 -11611)">
    <g id="car" transform="translate(-208 11611)">
      <g id="Group_38" data-name="Group 38" transform="translate(0 0)">
        <g id="Group_37" data-name="Group 37" transform="translate(0 0)">
          <path id="Path_683" data-name="Path 683" d="M33.661,63.059l-.763-.808-2.677-7.217A3.14,3.14,0,0,0,27.3,53H8.174A3.13,3.13,0,0,0,5.25,55.034L2.61,62.161l-1.1,1.017A4.3,4.3,0,0,0,0,66.447V76.962a3.126,3.126,0,0,0,3.126,3.111H5.1a3.126,3.126,0,0,0,3.126-3.111V75.436H26.774v1.526A3.126,3.126,0,0,0,29.9,80.073h1.974A3.126,3.126,0,0,0,35,76.962V66.17A4.337,4.337,0,0,0,33.661,63.059ZM6.656,55.543A1.617,1.617,0,0,1,8.174,54.5H27.3a1.628,1.628,0,0,1,1.518,1.047l2.333,6.282H29.413a5.13,5.13,0,0,0-10.149,0H4.323Zm21.232,6.282H20.776a3.633,3.633,0,0,1,7.112,0ZM6.731,76.962A1.626,1.626,0,0,1,5.1,78.577H3.126A1.626,1.626,0,0,1,1.5,76.962V75a3.037,3.037,0,0,0,1.63.434h3.6Zm26.774,0a1.626,1.626,0,0,1-1.63,1.615H29.9a1.631,1.631,0,0,1-1.63-1.615V75.436h3.6A3.037,3.037,0,0,0,33.5,75v1.959Zm-1.63-3.021H3.126a1.613,1.613,0,0,1-1.63-1.6V66.447a2.808,2.808,0,0,1,.995-2.139l.03-.03,1.017-.957H31.859l.718.77c.007.015.03.022.037.037A2.819,2.819,0,0,1,33.5,66.17v6.17H33.5A1.618,1.618,0,0,1,31.874,73.94Z" transform="translate(0 -53)" fill="#0e294e"/>
        </g>
      </g>
      <g id="Group_40" data-name="Group 40" transform="translate(2.656 14.12)">
        <g id="Group_39" data-name="Group 39" transform="translate(0 0)">
          <path id="Path_684" data-name="Path 684" d="M51.8,231H47.565a.567.567,0,0,0-.565.565V234.5a.567.567,0,0,0,.565.565H51.8a.567.567,0,0,0,.565-.565v-2.938A.567.567,0,0,0,51.8,231Zm-.565,2.938H48.13V232.13h3.108Z" transform="translate(-47 -231)" fill="#0e294e"/>
        </g>
      </g>
      <g id="Group_42" data-name="Group 42" transform="translate(26.976 14.12)">
        <g id="Group_41" data-name="Group 41" transform="translate(0 0)">
          <path id="Path_685" data-name="Path 685" d="M330.8,231h-4.238a.567.567,0,0,0-.565.565V234.5a.567.567,0,0,0,.565.565H330.8a.567.567,0,0,0,.565-.565v-2.938A.567.567,0,0,0,330.8,231Zm-.565,2.938H327.13V232.13h3.108Z" transform="translate(-326 -231)" fill="#0e294e"/>
        </g>
      </g>
      <g id="Group_44" data-name="Group 44" transform="translate(14.206 16.688)">
        <g id="Group_43" data-name="Group 43" transform="translate(0 0)">
          <path id="Path_686" data-name="Path 686" d="M181.724,273h-5.459a.565.565,0,1,0,0,1.13h5.459a.565.565,0,1,0,0-1.13Z" transform="translate(-175.7 -273)" fill="#0e294e"/>
        </g>
      </g>
      <g id="Group_46" data-name="Group 46" transform="translate(14.206 14.337)">
        <g id="Group_45" data-name="Group 45" transform="translate(0 0)">
          <path id="Path_687" data-name="Path 687" d="M181.724,242h-5.459a.565.565,0,1,0,0,1.13h5.459a.565.565,0,0,0,0-1.13Z" transform="translate(-175.7 -242)" fill="#0e294e"/>
        </g>
      </g>
    </g>
  </g>
</svg>
