<svg xmlns="http://www.w3.org/2000/svg" width="35" height="44.305" viewBox="0 0 35 44.305">
  <g id="Group_265" data-name="Group 265" transform="translate(208 -11488)">
    <g id="file" transform="translate(-208 11488)">
      <g id="Group_36" data-name="Group 36">
        <g id="Group_35" data-name="Group 35">
          <path id="Path_676" data-name="Path 676" d="M73.552,9.835c-.048,0-.048-.048-.1-.1s-.048-.1-.1-.145L65.067.289c-.048-.048-.145-.1-.193-.145-.048,0-.048-.048-.1-.048a.908.908,0,0,0-.386-.1H44.048A5.473,5.473,0,0,0,38.6,5.448V38.857A5.473,5.473,0,0,0,44.048,44.3h24.1A5.473,5.473,0,0,0,73.6,38.857V10.172C73.6,10.076,73.552,9.931,73.552,9.835ZM65.308,3.278,70.659,9.3H65.308Zm6.46,35.53a3.621,3.621,0,0,1-3.616,3.664h-24.1a3.611,3.611,0,0,1-3.616-3.616V5.4a3.611,3.611,0,0,1,3.616-3.616H63.476v8.388a.915.915,0,0,0,.916.916h7.376v27.72Z" transform="translate(-38.6 0)" fill="#0e294e"/>
          <path id="Path_677" data-name="Path 677" d="M85.914,78.628h8.034a.913.913,0,0,0,.914-.914.885.885,0,0,0-.914-.914H85.914a.914.914,0,1,0,0,1.828Z" transform="translate(-79.403 -67.543)" fill="#0e294e"/>
          <path id="Path_678" data-name="Path 678" d="M93.948,275.6H85.914a.914.914,0,0,0,0,1.828h8.034a.913.913,0,0,0,.914-.914A.946.946,0,0,0,93.948,275.6Z" transform="translate(-79.403 -242.381)" fill="#0e294e"/>
          <path id="Path_679" data-name="Path 679" d="M85,128.114a.915.915,0,0,0,.917.914h21.524a.914.914,0,1,0,0-1.828H85.917A.915.915,0,0,0,85,128.114Z" transform="translate(-79.42 -111.868)" fill="#0e294e"/>
          <path id="Path_680" data-name="Path 680" d="M107.441,164.8H85.917a.914.914,0,1,0,0,1.828h21.524a.915.915,0,0,0,.917-.914A.886.886,0,0,0,107.441,164.8Z" transform="translate(-79.42 -144.936)" fill="#0e294e"/>
          <path id="Path_681" data-name="Path 681" d="M107.441,202H85.917a.914.914,0,1,0,0,1.828h21.524a.915.915,0,0,0,.917-.914A.886.886,0,0,0,107.441,202Z" transform="translate(-79.42 -177.652)" fill="#0e294e"/>
          <path id="Path_682" data-name="Path 682" d="M107.441,239.2H85.917a.914.914,0,1,0,0,1.828h21.524a.914.914,0,1,0,0-1.828Z" transform="translate(-79.42 -210.368)" fill="#0e294e"/>
        </g>
      </g>
    </g>
  </g>
</svg>
