<svg xmlns="http://www.w3.org/2000/svg" width="320" height="337.406" viewBox="0 0 320 337.406">
  <g id="Group_257" data-name="Group 257" transform="translate(-2677 -12030.675)">
    <g id="Group_256" data-name="Group 256" transform="translate(760 4865.675)">
      <path id="Path_2075" data-name="Path 2075" d="M391.106,37.152a26.736,26.736,0,0,0-21.286,2.735,2.1,2.1,0,0,1-2.445.142c-9.711-5.4-19.5-5.336-29.268-.134a2.044,2.044,0,0,1-2.437.112,26.862,26.862,0,0,0-17.634-3.712,18.009,18.009,0,0,0-8.787,3.294c1.066,1.61,2.064,3.108,3.063,4.613,6.723-3.756,13.192-3,19.8.246a7.171,7.171,0,0,1-.522.865c-6.715,8.139-9.048,17.589-8.31,27.926a23.162,23.162,0,0,0,3.458,11.075c2.884,4.479,7.595,6.4,12.283,4.941,4.054-1.26,6.462-4.3,8.027-8.019,3.16-7.5,3.108-15.219,1.207-23a32.731,32.731,0,0,0-6.8-13.43c5.269-4.166,17.738-4.054,22.27.052A35.364,35.364,0,0,0,355.5,64.929c-.641,6.738-.112,13.326,3.6,19.236,4.517,7.2,13.423,7.5,18.349.589a18.3,18.3,0,0,0,2.713-5.582c3.3-11.9,1.386-22.948-5.88-33-.358-.5-.76-.976-1.215-1.55a21.538,21.538,0,0,1,10.076-2.914,16.738,16.738,0,0,1,9.868,2.541c1.051-1.625,2-3.086,3.16-4.867A40.309,40.309,0,0,0,391.106,37.152ZM342.379,77.5a13.926,13.926,0,0,1-2.407,4.412c-2.392,3-5.746,2.877-8.042-.2-2.273-3.041-2.936-6.618-3.093-10.3-.335-7.863,1.543-15.085,6.372-21.412.313-.41.656-.8,1.014-1.192a3.627,3.627,0,0,1,.656-.417,24.03,24.03,0,0,1,1.565,1.915A30.82,30.82,0,0,1,342.379,77.5ZM376.014,67.2a24.431,24.431,0,0,1-1.9,12.022c-1.111,2.407-2.5,4.77-5.582,4.777s-4.591-2.281-5.582-4.748c-3.317-8.213-2.415-16.337,1.081-24.237,1.051-2.385,2.705-4.5,4.278-7.058A30.683,30.683,0,0,1,376.014,67.2Z" transform="translate(1840.826 7141.013)" fill="#0e294e"/>
      <path id="Path_2073" data-name="Path 2073" d="M97.353,38.039c-.879-5.456-8.206-8.116-12.566-4.606-1.7,1.364-2.05,3.25-1.96,5.277.052,1.178-.268,1.774-1.632,1.781-1.394,0-1.826-.514-1.8-1.841.06-2.407.067-4.822-.022-7.237a5.062,5.062,0,0,0-4.9-5.105,20.728,20.728,0,0,0-3.905-.045c-2.02.216-2.541-.589-2.5-2.541.1-4.7-1.8-6.462-6.514-6.462h-7.8c-.1-.656-.186-1.036-.2-1.409-.119-2.743-.112-2.75,2.556-2.758,2.154-.007,4.3-.007,6.454-.007,1.617,0,2.691-.73,2.691-2.407s-1.066-2.422-2.683-2.422Q46.251,8.212,29.91,8.19c-1.535,0-2.668.708-2.758,2.415-.082,1.535.954,2.437,2.832,2.474,1.953.037,3.913.007,5.866.015,3.242,0,3.25,0,2.974,3.287a6.643,6.643,0,0,1-.238.879c-2.773,0-5.62-.022-8.467.007-3.354.037-5.023,1.461-5.828,4.636a2.039,2.039,0,0,1-1.438,1.252c-2.139.149-4.3.03-6.447.089-3.4.082-5.418,2.109-5.493,5.53-.052,2.348.045,4.7-.03,7.036-.045,1.334.686,3.1-1.945,3.063-2.512-.03-1.811-1.7-1.833-2.974-.06-3.324.022-6.648-.022-9.972C7.06,24.192,5.942,23.3,4.443,23.67c-1.52.38-4.427,4.1-4.435,5.709-.007,3.652.067,7.3-.03,10.948a4.129,4.129,0,0,0,1.595,3.756,3.563,3.563,0,0,1,1.379,3.227c-.06,4.189,0,8.362-.022,12.536-.007,1.468.4,2.691,2.072,2.728,1.722.045,2.1-1.185,2.094-2.661-.015-3.585.037-7.17-.022-10.755-.022-1.371.484-1.789,1.833-1.789s2.064.253,2.027,1.8c-.075,2.929-.089,5.866.03,8.795a5.152,5.152,0,0,0,5.016,5.016,10.243,10.243,0,0,0,2.34.007c5.217-.879,9.383.715,12.461,5.1a20.115,20.115,0,0,0,2.057,2.087,10.571,10.571,0,0,0,8.2,3.436c10.688-.06,21.383-.015,32.078-.022,4.367-.007,6.29-1.945,6.313-6.328.015-2.527,0-5.046,0-7.677h3.354c0,.917-.037,1.744.007,2.571a5.449,5.449,0,0,0,5.493,5.463c.783.037,1.565.022,2.348.015,3.823,0,6.111-1.893,6.715-5.694A74.972,74.972,0,0,0,97.353,38.039ZM92.5,61.054c-.38,2.325-2.169,1.587-3.54,1.64-1.535.06-1.267-1.148-1.3-2.094-.03-.85.03-1.7-.037-2.541a3.612,3.612,0,0,0-3.54-3.481c-1.759-.089-3.518-.052-5.277-.03-2.72.037-4.226,1.491-4.278,4.233-.052,2.668-.075,5.344.015,8.012.052,1.446-.432,1.93-1.893,1.915-5.344-.067-10.688-.03-16.031-.03v.015c-5.016,0-10.039-.067-15.055.03a6.744,6.744,0,0,1-5.374-2.243c-1.923-2.042-4-3.928-5.925-5.962a7.214,7.214,0,0,0-5.91-2.437c-2.273.1-4.561-.022-6.842.03-1.207.03-1.8-.343-1.8-1.647q.034-13.393,0-26.786c0-1.23.559-1.55,1.684-1.528,2.474.052,4.956.037,7.431,0,2.728-.037,4.315-1.446,4.345-4.174.022-1.655.723-1.938,2.132-1.93q14.958.056,29.916,0c1.535-.007,1.983.529,2,2.05.045,6.648.447,7,7.185,6.991,4.107,0,4.107,0,4.107,4.174,0,1.953-.045,3.913.007,5.866a3.957,3.957,0,0,0,4.166,4.2c1.692.067,3.391.075,5.083-.007A3.805,3.805,0,0,0,87.656,41.3c.015-.455,0-.909,0-1.371.015-2.638,1.252-3.563,3.741-2.646a2.086,2.086,0,0,1,1.051,1.431A67.675,67.675,0,0,1,92.5,61.054Z" transform="translate(1917.023 7162.81)" fill="#0e294e"/>
      <g id="Group_205" data-name="Group 205" transform="translate(2039.694 7165)">
        <path id="Path_2076" data-name="Path 2076" d="M195.761,93.968c-3.592,0-6.588.015-9.585-.015a3.25,3.25,0,0,1-1.506-.268c-4.107-2.378-8.325-4.6-12.223-7.289-3.5-2.407-3.212-4.7.745-6.387,4.718-2.02,9.629-3.585,14.444-5.381,2.191-.812,4.427-1.565,6.529-2.579,1.938-.932,2.169-2.206.589-3.682-2.176-2.042-4.576-3.831-7.215-6.007,3.525.365,6.887-.745,9.994,1.163a66.212,66.212,0,0,1,7.073,4.464c2.37,1.915,2.31,4.2-.268,5.776A73.375,73.375,0,0,1,194.71,78.4c-2.75,1.17-5.634,2.027-8.437,3.071a13.586,13.586,0,0,0-2.452,1.2c-1.833,1.155-2.05,2.333-.455,3.741a31.115,31.115,0,0,0,4.762,3.384C190.447,91.188,192.884,92.411,195.761,93.968Z" transform="translate(-170.012 -15.875)" fill="#0e294e"/>
        <path id="Path_2077" data-name="Path 2077" d="M250.131,62.646c6.685-1.416,12.052,1.163,16.859,5.247,2.363,2.012,2.318,4.308-.343,5.94a65.635,65.635,0,0,1-9.108,4.382c-2.936,1.23-5.992,2.169-8.988,3.257a11.9,11.9,0,0,0-1.766.827c-2.556,1.438-2.854,2.892-.477,4.546,3.242,2.258,6.76,4.129,10.166,6.149a4.978,4.978,0,0,1,1.155.775c-4.934-.127-10,1.215-14.541-2.094-2.78-2.027-5.918-3.563-8.645-5.642-2.855-2.176-2.683-4.345.6-5.746,5.314-2.266,10.822-4.084,16.24-6.111a52.6,52.6,0,0,0,5.239-2.1c2-1.006,2.236-2.325.6-3.831-1.96-1.8-4.151-3.339-6.238-5C250.631,63.064,250.4,62.862,250.131,62.646Z" transform="translate(-185.91 -15.848)" fill="#0e294e"/>
        <path id="Path_2078" data-name="Path 2078" d="M247.807,16.073c1.55.082,1.915-.574,1.558-2.042-.857-3.5-.812-3.518-4.353-3.525a12.026,12.026,0,0,0-1.371,0,2.726,2.726,0,0,1-3-1.625c-.924-1.722-1.982-3.369-3.041-5.016A7.785,7.785,0,0,0,230.755,0q-12.219-.034-24.446.007A7.656,7.656,0,0,0,199.72,3.6a18.036,18.036,0,0,0-1.833,3c-1.319,3.2-3.54,4.435-7.006,3.958-2.117-.291-3.331,1.349-3.272,4.256.045,2.094,1.848.932,2.862,1.245a11.481,11.481,0,0,0,1.282.2,11.624,11.624,0,0,0-.9,1.744c-.656,2.281-1.789,4.584-1.759,6.864.067,5.2.686,10.4,1.14,15.584a2.625,2.625,0,0,0,2.862,2.6c1.17.007,2.348.007,3.518,0,2.989-.015,3.808-.693,3.7-3.659-.075-1.975.693-2.355,2.5-2.34,10.3.075,20.6.037,30.9.037,2.884,0,2.884.007,3.026,2.884.1,2.109,1.029,3.033,3.182,3.093,1.17.037,2.348.007,3.518-.015,2.474-.045,3.19-.581,3.436-3,.432-4.345.671-8.705,1.118-13.043a13.8,13.8,0,0,0-2.228-9.86,3.9,3.9,0,0,1-.261-1.081C246.391,16.066,247.1,16.036,247.807,16.073ZM208.821,5.587h19.326c4.04,0,4.867.6,6.395,4.725H202.635C204.051,6.28,204.975,5.594,208.821,5.587Zm33.2,24.737c-.067.417-.783.79-1.267,1.066-.246.142-.641.03-.961.03-14,0-28.016-.03-42.02.03-1.856.007-2.966-.291-2.832-2.459a29.683,29.683,0,0,0-.283-3.89h10.114V19.524h-7.759c1.155-3.264,1.379-3.451,4.151-3.451q17.4-.011,34.791-.007c2.773,0,3.071.231,4.122,3.376H232.4V25.1h10.047C242.307,27.014,242.277,28.684,242.024,30.323Z" transform="translate(-174.494 0.011)" fill="#0e294e"/>
      </g>
      <path id="Path_2074" data-name="Path 2074" d="M388.072,149.064q-41.4-21.543-82.7.231c-2.467,1.3-2.713,2.4-1.267,4.9q9.8,17.015,19.624,34.023c1.23,2.124,2.281,2.378,4.5,1.252,1.714-.865,3.481-1.632,5.493-2.571.209,4.83-1.655,8.7-3.369,12.856a27.251,27.251,0,0,1,3.339.022,2.2,2.2,0,0,0,2.817-1.915c.76-3.674,1.468-7.364,2.273-11.023.119-.552.6-1.371,1.029-1.438a54.259,54.259,0,0,1,6.589-.7,1.756,1.756,0,0,1,1.282,1.17,19.368,19.368,0,0,1-.291,5.225c-.723,2.877-1.8,5.664-2.78,8.653a24.459,24.459,0,0,1,3.22.03,2.174,2.174,0,0,0,2.7-1.819c.186-.686.566-1.334.7-2.027.686-3.481,1.319-6.976,2.042-10.844,2.042.552,4.315,1.237,6.633,1.781,1.669.4,2.064,1.364,1.625,2.869-.954,3.287-1.923,6.566-2.937,10.032a25.591,25.591,0,0,1,3.108.022,2.167,2.167,0,0,0,2.676-1.841c.6-2.2,1.215-4.39,1.923-6.551.156-.484.7-1.2,1.073-1.207,1.491-.022,2.184-.909,2.832-2.035q9.715-16.848,19.46-33.665C391.3,151.613,391.053,150.622,388.072,149.064Zm-21.271,35c-1.573-4.323-3.153-8.288-4.42-12.357a10.431,10.431,0,0,1-.209-4.8c.581-3.2,1.125-3.533,4.435-3.92-1.841-3.935-3.645-7.8-5.634-12.044-1.96,4.166-3.794,8.049-5.672,12.044.984.134,1.737.231,2.139.283,0,3.235-.417,6.38.119,9.354.537,3.018,2.012,5.866,3.168,9.026-3.018-.589-5.851-1.111-8.668-1.707-.291-.06-.6-.484-.73-.8a76.188,76.188,0,0,1-2.884-7.669,11.165,11.165,0,0,1-.082-4.792c.522-2.9,1.155-3.324,4.218-3.689-1.833-3.92-3.645-7.788-5.634-12.044-1.975,4.181-3.794,8.042-5.687,12.044,1.036.134,1.848.231,2.3.291-.067,2.936-.492,5.746-.1,8.437.388,2.638,1.6,5.157,2.482,7.833-2.467.32-4.837.678-7.222.894a1.59,1.59,0,0,1-1.252-.8c-1.073-2.653-2.169-5.307-3-8.042a10.309,10.309,0,0,1-.276-4.218c.417-3.235,1.163-3.913,4.33-4.472-1.841-3.913-3.659-7.773-5.627-11.97-1.975,4.2-3.8,8.1-5.664,12.066l2.914.343c-2.281,5.769-.358,10.866,1.863,15.942,1.111,2.527,1.029,2.556-1.625,3.637-1.014.41-2.012.865-3.182,1.371-6.029-10.434-12.014-20.779-18-31.131,19.661-12.007,51.374-13.863,75.5-.142C378.77,163.336,372.823,173.644,366.8,184.063Z" transform="translate(1845.859 7167.066)" fill="#0e294e"/>
      <path id="Path_2072" data-name="Path 2072" d="M83.642,191.716a69.012,69.012,0,0,0-1.438-7.065q-1.878-9.659-3.7-19.333c-.276-1.468.224-2.452,1.848-2.549,1.424-.089,1.647-.9,1.17-2a67.35,67.35,0,0,0-4.084-8.824A21.874,21.874,0,0,0,65.681,142.7c-1.707-.581-2.437-.1-2.184,1.662a5.069,5.069,0,0,0,1.543,2.691c5.284,5.008,9.145,10.606,8.988,18.334a35.771,35.771,0,0,0,1.029,8.116c1.3,5.977,2.862,11.9,4.189,17.857a5.621,5.621,0,0,1-3.555,6.268,5.43,5.43,0,0,1-6.715-2.042,9.61,9.61,0,0,1-1.155-4.42c-.142-5.21-.045-10.427-.067-15.644A8.415,8.415,0,0,0,62.4,167.39a22.908,22.908,0,0,0-3.51-.976c-.045-.715-.134-1.483-.134-2.251-.007-5.866.022-11.731-.007-17.6-.015-2.929-1.289-4.189-4.159-4.189q-12.812-.022-25.623.007c-3,.007-4.233,1.252-4.248,4.293-.022,5.344-.007,10.688-.007,16.031,0,13.229-.015,26.466.03,39.695.007,1.655-.186,2.877-2.281,2.691a1.208,1.208,0,0,0-.947.477,2.552,2.552,0,0,0,2.251,3.913H60.918c1.438-.022,1.26-1.1,1.185-1.975-.075-.9.626-2.467-1.066-2.4-2.333.1-2.3-1.3-2.3-2.892q.011-14.466.007-28.94c0-.641.067-1.282.112-2.05,3.018.239,4.5,1.871,4.517,4.785.03,5.6-.089,11.217.06,16.814a10.118,10.118,0,1,0,20.205-1.11Zm-31.347-25c-3.518-.052-7.028-.015-10.546-.015V166.7c-3.518,0-7.028-.045-10.546.022-1.528.03-2.079-.566-2.064-2.072q.078-8,.007-16.009c-.015-1.461.648-1.968,2-1.96q10.643.022,21.286,0c1.356,0,2.012.574,2,2q-.056,8,0,16.009C54.456,166.227,53.763,166.741,52.295,166.719Z" transform="translate(1913.884 7160.018)" fill="#0e294e"/>
      <g id="Group_207" data-name="Group 207" transform="translate(2037.698 7303.474)">
        <path id="Path_2081" data-name="Path 2081" d="M264.853,199.394c-1.632-1.573-3.264-3.145-5.008-4.83,6.656-7.2,10.367-15.547,10.367-25.415s-3.592-18.26-10.382-25.519c1.811-1.565,3.563-3.071,5.329-4.591C281.585,154.5,281.645,183.542,264.853,199.394Z" transform="translate(-190.652 -136.32)" fill="#0e294e"/>
        <path id="Path_2082" data-name="Path 2082" d="M179.568,138.53c1.684,1.677,3.287,3.264,5.016,4.971a36.241,36.241,0,0,0,0,50.9c-1.759,1.684-3.391,3.25-5.031,4.815C163.783,184.739,161.9,155.858,179.568,138.53Z" transform="translate(-167.011 -136.19)" fill="#0e294e"/>
        <path id="Path_2083" data-name="Path 2083" d="M214.3,135.39c-18.521-.007-33.084,14.34-33.1,32.607a32.8,32.8,0,1,0,33.1-32.607Zm-.335,59.937a27.192,27.192,0,1,1,27.166-26.846A27.151,27.151,0,0,1,213.963,195.327Z" transform="translate(-170.625 -135.39)" fill="#0e294e"/>
        <path id="Path_2084" data-name="Path 2084" d="M196.25,161.86c1.282-1.192,2.459-2.31,3.652-3.4a3.794,3.794,0,0,1,5-.358c7.2,5.4,15.428,7.952,24.252,8.862,1.2.119,1.684.589,2.012,1.833,1.23,4.636,4.4,7.93,8.176,10.613,1.6,1.133,1.811,2.169.79,3.667a35.18,35.18,0,0,1-3.346,4.785,81.715,81.715,0,0,0-6.8,7.259L219.123,184.19c.492-.552,1.088-1.215,1.833-2.05a17.538,17.538,0,0,0-8.482-5.262,4.105,4.105,0,0,1-1.9-.783C205.827,171.445,201.139,166.742,196.25,161.86Z" transform="translate(-174.458 -140.977)" fill="#0e294e"/>
      </g>
      <g id="Group_204" data-name="Group 204" transform="translate(2157.076 7436.587)">
        <path id="Path_2069" data-name="Path 2069" d="M366.893,334.909c-.559,3.853-.924,4.233-4.054,4.256-4.114.03-4.382-.194-5.046-4.218-1.178-.462-1.722-.164-1.856,1.215-.224,2.3-.991,2.936-3.249,3-.85.022-1.7.022-2.541-.007a2.708,2.708,0,0,1-2.817-2.653,6.015,6.015,0,0,0-.947-1.751c-.365.537-.961,1.043-1.058,1.625-.3,1.848-1.26,2.616-3.123,2.825-3.086.343-5.038-.641-6.551-3.533-4.248-8.139-7.952-16.4-8.75-25.705a37.491,37.491,0,0,1,4.151-20.779,10.689,10.689,0,0,0,1.043-4.032c.171-2.206.007-4.427.06-6.648a4.92,4.92,0,0,1,4.971-4.956,4.971,4.971,0,0,1,5.105,4.83,10.561,10.561,0,0,1-2.579,8.37c-6.223,7.371-8.347,16.039-6.812,25.586,1.26,7.848,7.155,13.855,15.838,15.853a31.269,31.269,0,0,0,6.961.8,171.348,171.348,0,0,0,18.156-.425c9.793-1.036,16.851-7.908,18.133-16.7a31.093,31.093,0,0,0-7.647-26.115c-2.527-2.877-1.983-5.933-1.468-8.988.365-2.206,3.078-3.51,5.418-3.19a4.994,4.994,0,0,1,4.323,4.822c.082,2.542.007,5.083.06,7.624a4.5,4.5,0,0,0,.4,2.057c6.536,11.47,6.208,23.32,1.662,35.238a151.15,151.15,0,0,1-6.633,13.907c-1.066,2.109-5.9,2.877-7.587,1.237-.574-.559-.641-1.61-1.029-2.392a8.722,8.722,0,0,0-.984-1.327c-.358.41-.961.783-1.036,1.237-.4,2.542-1.006,3.153-3.5,3.19-.589.007-1.17.007-1.759-.007-2.415-.067-3.115-.641-3.346-3.078C368.682,334.812,368.138,334.529,366.893,334.909Z" transform="translate(-326.756 -273.515)" fill="#0e294e"/>
        <path id="Path_2070" data-name="Path 2070" d="M367.676,294.7c0-3.51-.03-7.028.007-10.539.037-3.406,1.953-5.5,4.979-5.538,3.138-.037,5.2,2.05,5.232,5.515q.078,10.442-.008,20.891c-.03,3.317-2.124,5.478-5.105,5.485-3.018.015-5.076-2.251-5.105-5.657C367.661,301.463,367.676,298.08,367.676,294.7Z" transform="translate(-337.175 -274.815)" fill="#0e294e"/>
        <path id="Path_2071" data-name="Path 2071" d="M377.843,332.087a4.97,4.97,0,0,1-5.165,4.956,5.066,5.066,0,0,1-5.008-5.157,4.985,4.985,0,0,1,5.195-4.926A4.926,4.926,0,0,1,377.843,332.087Z" transform="translate(-337.176 -287.128)" fill="#0e294e"/>
      </g>
      <g id="Group_206" data-name="Group 206" transform="translate(1924 7439.587)">
        <path id="Path_2079" data-name="Path 2079" d="M95.981,309.8h10.106v5.731c-3.63,0-7.2.082-10.762-.037-1.565-.052-2.467.388-2.825,1.938-.552,2.37-1.148,4.733-1.819,7.46h15.413v5.59H91.069c.052,4.412,1.617,8.034,3.361,11.977-1.99,0-3.719.082-5.426-.052a1.9,1.9,0,0,1-1.267-1.17,72.977,72.977,0,0,1-2.109-8.288c-.3-1.811-.82-2.638-2.787-2.445-1.856.179-3.741.037-5.791.037.313-1.737.484-3.22.894-4.636a1.839,1.839,0,0,1,1.371-.9c1.491-.119,3,.022,4.487-.1.514-.037,1.356-.455,1.438-.835.589-2.713,1.014-5.463,1.535-8.444H79.1V309.86c3,0,5.925-.067,8.832.03a1.93,1.93,0,0,0,2.258-1.6c.611-2.43,1.215-4.867,1.93-7.706H82.9c-4.971,0-4.971,0-5.746-4.9a5.348,5.348,0,0,1,.037-.827H91.658c.052-4.263-1.55-7.826-3.227-11.716,2.012,0,3.734-.089,5.448.06a1.929,1.929,0,0,1,1.245,1.2c.8,2.869,1.595,5.754,2.139,8.683.253,1.356.648,1.923,2.079,1.856,2.2-.1,4.412-.03,6.76-.03v5.672c-2.146,0-4.338.089-6.521-.03-1.543-.082-2.161.388-2.318,2C97.017,304.919,96.443,307.251,95.981,309.8Z" transform="translate(-21.756 -283.114)" fill="#0e294e"/>
        <path id="Path_2080" data-name="Path 2080" d="M49.441,287.985c-1.23-3.272-4.069-5.105-7.319-4.576a110.407,110.407,0,0,0-11.478,2.273c-8.273,2.288-15.875,5.933-21.733,12.454-5.441,6.052-7.52,13.043-4.971,20.973,1.848,5.746,5.821,9.95,10.665,13.356,7.855,5.53,16.762,8.191,26.16,9.532,4.77.686,7.446-.827,9.026-5.359a73.89,73.89,0,0,0,3.92-24.066A71.3,71.3,0,0,0,49.441,287.985Zm-4.971,46.7c-.44,1.282-1.051,1.975-2.534,1.766-8.951-1.245-17.447-3.741-24.781-9.249a28.162,28.162,0,0,1-4.643-4.442c-5.381-6.439-5.3-13.818.164-20.235,4.353-5.12,10.024-8.3,16.292-10.33,4.062-1.312,8.332-1.983,12.491-3.026,1.692-.425,2.474.164,3.041,1.759.268.768.529,1.565.775,2.385a70.721,70.721,0,0,1,2.75,19.49A67.178,67.178,0,0,1,44.47,334.686Z" transform="translate(-2.86 -283.166)" fill="#0e294e"/>
      </g>
      <g id="Group_208" data-name="Group 208" transform="translate(2037.697 7436.587)">
        <path id="Path_2085" data-name="Path 2085" d="M264.93,277.09c17.008,16.754,16.3,45.076-.142,60.839-1.61-1.6-3.22-3.2-4.979-4.949,6.685-7.185,10.427-15.592,10.419-25.512-.007-9.875-3.667-18.252-10.375-25.407C261.547,280.392,263.2,278.774,264.93,277.09Z" transform="translate(-190.617 -274.671)" fill="#0e294e"/>
        <path id="Path_2086" data-name="Path 2086" d="M179.6,277.03c1.535,1.655,3.071,3.309,4.777,5.143a36.23,36.23,0,0,0,.067,50.584c-1.707,1.647-3.376,3.257-5.061,4.874C163.087,322.464,162.506,293.292,179.6,277.03Z" transform="translate(-166.971 -274.656)" fill="#0e294e"/>
        <path id="Path_2087" data-name="Path 2087" d="M214.016,273.849c-18.9.306-33.144,14.831-32.838,33.494a32.765,32.765,0,0,0,33.457,32.152c18.208-.283,32.458-15.279,32.16-33.844C246.511,288.106,231.531,273.565,214.016,273.849Zm-.216,59.974a27.2,27.2,0,1,1,27.338-27.1A27.212,27.212,0,0,1,213.8,333.823Z" transform="translate(-170.588 -273.845)" fill="#0e294e"/>
        <path id="Path_2088" data-name="Path 2088" d="M248.943,306.953c-.775.663-1.461,1.245-1.953,1.662a17.449,17.449,0,0,0-3.346-1.461,2.613,2.613,0,0,0-3.2,1.908c-.492,1.506.462,2.355,1.64,2.922,1.051.5,2.2.8,3.294,1.207,3.086,1.148,4.248,3.1,3.905,6.559-.268,2.72-1.938,4.315-5.1,4.7-2.966.358-5.538-.365-7.4-3.145.768-.581,1.483-1.125,1.871-1.416a30.985,30.985,0,0,0,4.643,1.759,2.374,2.374,0,0,0,2.795-1.908,2.606,2.606,0,0,0-1.416-3.287c-1.267-.648-2.668-1.021-3.98-1.587-2.78-1.2-3.913-3.294-3.354-6.082a5.3,5.3,0,0,1,5.426-4.4C245.142,304.278,247.341,304.576,248.943,306.953Z" transform="translate(-184.751 -281.617)" fill="#0e294e"/>
        <path id="Path_2089" data-name="Path 2089" d="M226.927,313.862c2.638-1.394,2.564-3.645,2.132-5.88a3.919,3.919,0,0,0-3.659-3.309c-2.5-.209-5.023-.052-7.609-.052v19.75c2.027,0,3.905.015,5.784,0,3.19-.03,4.8-.961,5.612-3.242C230.222,318.245,229.573,316,226.927,313.862Zm-4.338-6.752c2.564.157,3.816.939,3.816,2.854,0,1.871-1.185,2.795-3.883,2.8-2.3.634-1.938-1.207-1.893-2.683C220.659,308.727,219.989,306.946,222.59,307.11Zm.045,14.571c-2.951.149-1.737-1.99-2.027-3.153.007-3.19.007-3.19,2.273-3.182,2.668.007,3.727.872,3.749,3.056C226.652,320.727,225.489,321.539,222.634,321.681Z" transform="translate(-179.914 -281.669)" fill="#0e294e"/>
        <path id="Path_2090" data-name="Path 2090" d="M203.981,304.687c-2.333-.708-3.272.149-3.816,2.288-1.356,5.284-2.966,10.494-4.464,15.741a13.706,13.706,0,0,0-.261,1.409c2.05.626,3.309.2,3.51-2,.157-1.8,1.185-2.43,2.914-2.154a4.964,4.964,0,0,0,1.558.007c1.55-.238,2.169.5,2.5,1.938.611,2.676.678,2.661,3.7,2.221C207.723,317.588,205.829,311.066,203.981,304.687Zm-3.727,12.543c.656-2.75,1.274-5.359,1.893-7.975.186-.015.373-.037.559-.052.619,2.609,1.237,5.21,1.908,8.027Z" transform="translate(-174.222 -281.638)" fill="#0e294e"/>
      </g>
    </g>
  </g>
</svg>
