<svg id="Lag_1" data-name="Lag 1" xmlns="http://www.w3.org/2000/svg" viewBox="0 0 1194.46 1163.78"><defs><style>.cls-1{fill:#fff;}.cls-2{fill:#dcdcdc;}.cls-3{fill:#acd47c;}.cls-4{fill:#ff1717;}.cls-5,.cls-6,.cls-7{fill:#005dff;}.cls-5{opacity:0.4;isolation:isolate;}.cls-7{stroke:#fff;stroke-miterlimit:10;stroke-width:0.92px;}.cls-8{fill:#0e294e;opacity:0.32;}</style></defs><title>LINE</title><path class="cls-1" d="M92.35,602.13H452.28a0,0,0,0,1,0,0v561.65a0,0,0,0,1,0,0H0a0,0,0,0,1,0,0V694.48A92.35,92.35,0,0,1,92.35,602.13Z"/><path class="cls-1" d="M-358.81,3.11H-563.53a115.8,115.8,0,0,0-45.38,9.17A115.93,115.93,0,0,0-628.71,23,117.55,117.55,0,0,0-646,37.26a117,117,0,0,0-14.23,17.25,115.93,115.93,0,0,0-10.75,19.8,115.24,115.24,0,0,0-7.62,26.35V590.09h0l319.75-2Z" transform="translate(803.76 -3.11)"/><polygon class="cls-1" points="316.74 162.3 327.65 162.3 327.65 162.3 316.74 162.3 316.74 162.3 316.74 162.3"/><polygon class="cls-2" points="198.06 312.12 199.53 312.84 199.53 309.29 198.06 312.12"/><polygon class="cls-2" points="198.74 340.36 199.53 340.78 199.53 338.99 198.74 340.36"/><polygon class="cls-2" points="343.39 342 343.11 341.98 343.11 349.16 343.39 342"/><path class="cls-1" d="M-594.18,262.69c.25-1.14.53-2.27.85-3.38l-7.09-3.41,2.42-4.67,6.31,3a60.87,60.87,0,0,1,3.27-7.27l-4.37-2.1,1.35-2.59,4.48,2.09c.63-1.06,1.29-2.12,2-3.14l-4.73-2.28,2-3.87,5.34,2.59c.6-.77,1.22-1.51,1.85-2.25l-5.89-2.83,2.1-4.05,7,3.39c.71-.71,1.43-1.4,2.18-2.07l-7.92-3.8,2.75-5.29,10,5.18c1.48-1.09,3-2.13,4.59-3.09l-11.48-5.66,4.53-8.71,18.48,8.89c1.4-.5,2.82-.94,4.26-1.34l9.61-18.48,6.25,3.14-7.62,13.66c1.67-.22,3.35-.39,5.06-.48l6.12-10.81-6.12,10.81q1.64-.09,3.3-.09c.43,0,.85,0,1.28,0l5-9.59,8.08,4.07-3.49,6.45c1,.18,2,.39,3,.62l3.12-5.73,3,1.52-2.9,5a62.29,62.29,0,0,1,25.33,14.32l3.33-6.4,14.19,7.15-3.61,6.54-12.88-6.31a60.38,60.38,0,0,1,5,5.49l.13-.24,6.3,3-1.88,3.62a61.93,61.93,0,0,1,3.94,7.48l3.92-7.54c-1.07-1.83-2-3.73-2-5a5.46,5.46,0,0,1,5.83-5.07,5.46,5.46,0,0,1,4.87,3.94l3,1.84v-6.26l-3.43-2.07,3.43-4.13v-8.93l-.7-.6.7-.61v-2.75l-1.86,2.08-9.82-10.41,5.65-5.64,6,7.84v-4.78l-3.86-4.29,3.86-3.89V180a14.58,14.58,0,0,0-8.63-13.28l4.78,4.39,3.42,15.56-15.49,14.68L-491.32,192l15.21-26.62H-487l-12.63,22-3.89-1.86,4.55-8.76a10.05,10.05,0,0,1-1.15.1h-1.63l-4,7.6-7.76-3.73,2-3.86h-4.85l-1,2,1-2h-4.37l-.17.3-.64-.3H-532l-7.27,13.38-19.15-9.21,2.17-4.17h-6.06l-1,1.85-17.93-8.46,2.76-4.9h-4.46l-1.74,3.35-7.6-3.11a14.49,14.49,0,0,0-6.17,2.69l10.9,5.49-4.07,7.61-11.95-5.95a14.92,14.92,0,0,0-.65,3.23l11.39,5.26-4.33,7.82-7.12-3.38v4.06l5.47,2.42-5.1,9.55-.37-.22v7.07l1.42-2.54,4.36,2.15a8.12,8.12,0,0,1-1-3.12,5.32,5.32,0,0,1,.22-1.15l-1.89-.91,5.28-9.4,17.44,8.39-5,9.55-6.3-3c-.53,1-1.17,2.13-1.81,3.12l6.42,3.16-2.59,5-16.61-8v3l15.37,7.4-2.23,4.29L-604.23,223v2.85l11,5.22-2,3.73-9-4.29v3.36l7.57,3.71-1.85,3.55-5.72-2.72v24.83l2.23-4.3Zm101-37-13.49-6.81,1.93-3.38,13.36,6.71Zm18-18.3,13.81,15-4.91,7.05-17.12-10.35Zm-18.3-11.58,13.57,8.43-6.81,13.1-14.56-7.87Zm-11.9-6.71,4,1.39-8.28,14.44-3.67-2Zm-9.79-4.89,7.38,3.66-8,13.75-6.84-3.29Zm-4-1.9-7.36,14.16Zm-9.29-4.47,5.7,2.74-7.82,13.93-5.24-2.52Zm-24.18,37-18.69-9,3.56-6.84,18.82,9Zm-8.85-27.91,18.81,9.59-5,9.17-18.87-9.07Zm-22.67-11.41,17.9,9-3.8,7.26-18.3-8.8Zm-10.07,17.91,3.89-6.91,17.15,8.14-3.65,7Z" transform="translate(803.76 -3.11)"/><path class="cls-1" d="M-574.27,165.41h-1.57l3.46,1.66A2.6,2.6,0,0,0-574.27,165.41Z" transform="translate(803.76 -3.11)"/><path class="cls-1" d="M-475.28,253.42q.66,1.7,1.23,3.42l3.27,1.58-2,3.1a62.38,62.38,0,0,1,1.55,10l6.3-10.3,4.23,2v-2.81l-2.89-1.46,2.89-5v-11.7l-8.77,14Z" transform="translate(803.76 -3.11)"/><path class="cls-1" d="M-590.77,300.37l-1,1.7-5.72-2.75,1.83-3.5,3.76,1.81c-.53-1.46-1-3-1.43-4.48l-.17-.08.09-.18c-.35-1.28-.68-2.56-.95-3.87l-4.91,9.44-5-2.41v3.79l3.44,1.65-2.18,4.2-1.26-.61v7.32l.74-1.42,5.3,2.56-2.37,4.21-3.67-1.8v17.43l15.87-28C-589.23,303.77-590,302.09-590.77,300.37Zm-5.39,9.57-4.85-2.33,2.58-5,5,2.42Z" transform="translate(803.76 -3.11)"/><path class="cls-1" d="M-460.65,425v-2.18l-13.45-.68,2.38-6.15,11.07.56v-1.83l-10.75-.3,3.36-6.37,7.39.49v-1.69l-6.1-.4,6.1-9.91v-44.3l-.43,10.89-23.21-.72,1.62-18.46,22,1.12V333.94l-14.9-23.12,7.34-.69,7.56,6.55v-3.34l-5.79-4.77,5.79-5.5v-5.33l-9,8.42-2.89-2.2,11.88-13.82V285l-14.86,18.11-1.32-.61a62.85,62.85,0,0,1-4.21,7.58l20.35,31.33-32.19-1.74a5.45,5.45,0,0,1,2.34,3.94l3.92.2.36,6.81-7.27-.13c-1.22,1.88-2.34,3.37-2.4,3.45l8.89.53-.69,11.8-32.82-2,4.85-11.54,19.74,1.17c-.07-.09-1.22-1.62-2.46-3.54l-16.15-.3,3.17-7.55,10.09.51a5.44,5.44,0,0,1,2.76-3.69l-10.91-.59,3.48-6.59a61,61,0,0,1-7.94,3.21l-1.27,3.07-11.13-.37a62.22,62.22,0,0,1-7,.4,62.47,62.47,0,0,1-15-1.82l-1.33-.07.12-.24a62.5,62.5,0,0,1-6.08-2l-1.09,2.17-7.69-.76,2.26-4.35c-.31-.16-.64-.32-.95-.49l-2.49,4.78-7.67-.42,4.49-7.86a62.85,62.85,0,0,1-7.66-6.24l-3.76,6.55-4.79-2.55,4.65-8.09c-.62-.7-1.22-1.42-1.8-2.15l-5.17,9-4.79-2.55,6.48-11.28q-1.5-2.29-2.81-4.73l-15.87,28v8.72l7.86-13.68,4.82,2.49L-600.24,346l-4-2.13V350l1.82,1-1.82,3.17v7.3l.58-1.1,6.1,1.37-.32,13.06-6.36-1.72v3.65l3.32,1.09-3.32,5.25v4.62l5.47-8.84,3.24.87-.92,9.43-7.79,9V412l1.75-2,18.53,11.32-3,4.44h5l3.36-5.24,9.37,5.24h25.78l2-8.63,11.2,1.77-2.35,6.86h3.24l2-6,10,3.53-.61,2.51h3.08l.44-1.11,5.18,1.11h7.32l7.05-20.64,19,6.95,0,1.38-5.31,12.31h5.36l.65-1.46Zm-12.74-11.54-.3-12.32,6.83.12Zm11.14-20.79-3.08,5.75h-8.44l.2-6.8,11.35.45Zm.21-5.35-11.1-.27.61-6.95,10.74.88Zm.41-10.24-10.72-.9.19-5.12,10.74.52Zm.44-11.33-.14,3.54-23.49-.89,0-3.63Zm-23.45,4.71,9.85.53-.13,4.89-9.95-.79Zm-2.34,8.43,12,1-.17,5.78-12.49-.86Zm-10.37-10.87,9.2.66-.41,6.14-9.36-.79Zm-12.78-.7,10.05.46-.64,6-11.23-.94Zm-52.48,5.22-7.25,18.15-17.2-5.9,1.16-14.21Zm-23-5.89.36-4.63,25.74,1.1-1.46,5.6Zm23.23,17.16,5.86,1.94-3.67,9.6-6.55-3.15Zm8.14,3,6.61,3.25-4.19,9.31-5.67-2.73Zm1.12-2.16,5.64-10.85,6.84.72-6,13.26Zm24.24-13.24L-546,370l.27-5,19.19.76Zm3.5,4.24,9.56.81-1.69,5-10-.65Zm-12.06-1,6.92.73L-537,390.86l-6.06-2.91Zm4.24,19.59,10.88,1.21-2.85,8.34-11.6-1.07Zm1.53-3.63,3.35-8,10,1.16-2.87,8.49Zm12,5.65,13.52,5.41-3.29,6.33-12.29-5.5Zm.61-1.85,2.23-6.75,13.66,2.54-1.65,9.2Zm3.38-10.23,2.5-7.47,11.63.95-.95,8.43Zm3.13-17.16-1.92,5.61-9.27-.78,2.43-5.77Zm-39-26.76,34.77,2-2.81,6.69-34.77-2.05Zm-3.05,10.54,33.93.83-4.83,11.67-29.64-1Zm-1.74,13.84h9.07l-.26,5.23-9.68-.73Zm6.48,9-5.51,10-6-2.88L-558,373ZM-576,339.25l17.32.87-.93,7.46-21-1.78Zm16.49,11.07,0,9.95-25.44-1.88.56-7.21,2.26-3.21ZM-589,332.2l4.87,2.51-8.37,14.59-4.79-2.54Zm-10.34,24.5-.09-4.41,6.33,3-.48,4.64Zm2.7,18.14,1.09-12.6,1.74.3L-595,375Zm17.34,34.07-15.53-7.47,7.18-8.06.42-5.45,15.49,6.44Zm3.15,1.52,8.16-13.38,6.8,3.27-7.2,13.84ZM-566,415.3l6.83-14,5.41,2.6-6.39,14.23Zm17.36,8.35-8.16-3.93,6.18-14.33,7.2,3.47ZM-542,404l-6.75-3.24,4.06-9.25,6.27,3ZM-529,415l-11.71-1.35,2.82-8.26,11.83,1Zm13.08,5.41-10.27-4.5,2.94-8.92,11.58,5.24Zm9.94,3-7-1.64,4.82-9.29,4.74,2.27Zm4.66-12.77-5.24-1.29,3.31-6.35,5.15,1.46Zm4.67-9-5.93-1.7,2.3-8.22,6.91,1.28ZM-500,389.89l1.74-11.92,9.25.77-4,12Zm24.23,18.86-17.06-6,2.89-7.12,14.47,1.65Zm.37-14.13-14.48-.87,1.8-6.77,12.85,1.42Z" transform="translate(803.76 -3.11)"/><path class="cls-1" d="M-471,274.32c0,.61.05,1.21.05,1.82,0,.42,0,.84,0,1.26l10.37,5.85v-3l-.75-.43.75-.92v-3l-2.27,3.06-3-1.72,5.27-8.24v-4.78L-468.12,276Z" transform="translate(803.76 -3.11)"/><path class="cls-1" d="M-595.65,276.14c0-.73,0-1.45,0-2.18l-8.63-4.15v3.79l8.62,4.15C-595.63,277.21-595.65,276.68-595.65,276.14Z" transform="translate(803.76 -3.11)"/><path class="cls-1" d="M-595.33,282.54l-8.9-4.28v3.8l9.47,4.55C-595,285.27-595.19,283.92-595.33,282.54Z" transform="translate(803.76 -3.11)"/><path class="cls-2" d="M-592.23,165.65l7.6,3.11,1.74-3.35h-6.79A14.31,14.31,0,0,0-592.23,165.65Z" transform="translate(803.76 -3.11)"/><path class="cls-2" d="M-587.5,173.83l-10.9-5.49a14.53,14.53,0,0,0-5.12,7.15l11.95,5.95Z" transform="translate(803.76 -3.11)"/><path class="cls-2" d="M-592.78,184l-11.39-5.26c0,.41-.06.82-.06,1.24v8.46l7.12,3.38Z" transform="translate(803.76 -3.11)"/><polygon class="cls-2" points="205 191.79 199.53 189.37 199.53 201.12 199.9 201.33 205 191.79"/><path class="cls-2" d="M-571.46,171.27c-.27-1-.45-2-.6-2.82-.08-.42-.14-.79-.2-1.06,0-.11-.09-.21-.12-.32l-3.46-1.66h-2.59l-2.76,4.9,17.93,8.46,1-1.85h-2.07A7.27,7.27,0,0,1-571.46,171.27Z" transform="translate(803.76 -3.11)"/><polygon class="cls-2" points="237.54 181.42 219.65 172.42 215.44 179.88 233.74 188.68 237.54 181.42"/><polygon class="cls-2" points="230.62 191.56 213.46 183.42 209.58 190.32 226.97 198.57 230.62 191.56"/><path class="cls-2" d="M-593.56,202.76a5.46,5.46,0,0,1,5,5h0a8.83,8.83,0,0,1-1.15,3.45l6.3,3,5-9.55-17.44-8.39-5.28,9.4,1.89.91A5.45,5.45,0,0,1-593.56,202.76Z" transform="translate(803.76 -3.11)"/><path class="cls-2" d="M-585,217.52l-6.42-3.16c-1.29,2-2.51,3.62-2.51,3.62a51.07,51.07,0,0,1-4.49-7.07l-4.36-2.15-1.42,2.54v3.23l16.61,8Z" transform="translate(803.76 -3.11)"/><polygon class="cls-2" points="214.91 221.78 199.53 214.38 199.53 219.88 212.68 226.07 214.91 221.78"/><polygon class="cls-2" points="210.49 227.94 199.53 222.73 199.53 227.39 208.55 231.68 210.49 227.94"/><polygon class="cls-2" points="207.1 234.46 199.53 230.75 199.53 235.29 205.26 238.01 207.1 234.46"/><path class="cls-2" d="M-556.24,176.93l-2.17,4.17,19.15,9.21,7.27-13.38h-24.25Z" transform="translate(803.76 -3.11)"/><polygon class="cls-2" points="281.05 177.46 275.34 174.72 267.98 188.87 273.22 191.39 281.05 177.46"/><polygon class="cls-2" points="256.14 202.59 261.13 193.42 242.31 183.82 237.28 193.52 256.14 202.59"/><polygon class="cls-2" points="232.47 202.75 251.17 211.74 254.85 204.96 236.04 195.91 232.47 202.75"/><path class="cls-2" d="M-572.66,208.51l-4.53,8.71,11.48,5.66a61.89,61.89,0,0,1,11.53-5.48Z" transform="translate(803.76 -3.11)"/><path class="cls-2" d="M-580.26,220.79l-2.75,5.29,7.92,3.8c1.53-1.38,3.12-2.68,4.79-3.91Z" transform="translate(803.76 -3.11)"/><path class="cls-2" d="M-577.27,232l-7-3.39-2.1,4.05,5.89,2.83C-579.47,234.24-578.4,233.07-577.27,232Z" transform="translate(803.76 -3.11)"/><path class="cls-2" d="M-587.7,235.1l-2,3.87,4.73,2.28c.83-1.22,1.71-2.4,2.62-3.56Z" transform="translate(803.76 -3.11)"/><path class="cls-2" d="M-591.44,242.3l-1.35,2.59,4.37,2.1c.47-.88,1-1.74,1.46-2.6Z" transform="translate(803.76 -3.11)"/><path class="cls-2" d="M-534.06,200.72l-6.25-3.14-9.61,18.48a62.32,62.32,0,0,1,8.24-1.68Z" transform="translate(803.76 -3.11)"/><path class="cls-2" d="M-598,251.23l-2.42,4.67,7.09,3.41c.48-1.71,1-3.4,1.64-5.05Z" transform="translate(803.76 -3.11)"/><path class="cls-2" d="M-594.18,262.69l-7.82-3.76-2.23,4.3v6.58l8.63,4.15A63.39,63.39,0,0,1-594.18,262.69Z" transform="translate(803.76 -3.11)"/><path class="cls-2" d="M-595.61,277.75l-8.62-4.15v4.66l8.9,4.28C-595.49,281-595.57,279.36-595.61,277.75Z" transform="translate(803.76 -3.11)"/><path class="cls-2" d="M-594.31,289c-.17-.79-.31-1.6-.45-2.41l-9.47-4.55v14l5,2.41Z" transform="translate(803.76 -3.11)"/><polygon class="cls-2" points="202.97 298.38 199.53 296.73 199.53 301.97 200.79 302.57 202.97 298.38"/><path class="cls-2" d="M-593.45,293.07l.17.08-.08-.26Z" transform="translate(803.76 -3.11)"/><path class="cls-2" d="M-595.61,295.82l-1.83,3.5,5.72,2.75,1-1.7c-.38-.9-.74-1.81-1.08-2.74Z" transform="translate(803.76 -3.11)"/><polygon class="cls-2" points="202.75 304.5 207.6 306.83 210.36 301.94 205.34 299.52 202.75 304.5"/><polygon class="cls-2" points="205.57 310.43 200.27 307.87 199.53 309.29 199.53 312.84 203.2 314.64 205.57 310.43"/><path class="cls-2" d="M-520.87,177.23l.17-.3h-.81Z" transform="translate(803.76 -3.11)"/><path class="cls-2" d="M-513.49,180.78l7.76,3.73,4-7.6h-9.7Z" transform="translate(803.76 -3.11)"/><polygon class="cls-2" points="288.01 198.5 295.97 184.75 288.59 181.09 281.16 195.21 288.01 198.5"/><path class="cls-2" d="M-492.26,167.39c-.06.27-.12.63-.2,1.05-.15.81-.33,1.81-.6,2.83a7.32,7.32,0,0,1-5.94,5.54l-4.55,8.76,3.89,1.86,12.63-22h-3.24A2.55,2.55,0,0,0-492.26,167.39Z" transform="translate(803.76 -3.11)"/><polygon class="cls-2" points="294.07 201.81 302.35 187.37 298.39 185.97 290.4 199.83 294.07 201.81"/><path class="cls-2" d="M-476.11,165.41-491.32,192l14.75,9.28,15.49-14.68-3.42-15.56-4.78-4.39a14.45,14.45,0,0,0-5.92-1.27Z" transform="translate(803.76 -3.11)"/><polygon class="cls-2" points="323.86 201.12 310.29 192.69 302.48 206.35 317.05 214.22 323.86 201.12"/><path class="cls-2" d="M-513.28,211.18l-3-1.52-3.12,5.73c1.09.24,2.17.52,3.24.83Z" transform="translate(803.76 -3.11)"/><path class="cls-2" d="M-519,208.32l-8.08-4.07-5,9.59a63,63,0,0,1,9.58.93Z" transform="translate(803.76 -3.11)"/><path class="cls-2" d="M-592,321.42l4.79,2.55,5.17-9q-1.86-2.32-3.48-4.82Z" transform="translate(803.76 -3.11)"/><path class="cls-2" d="M-580.27,317.11l-4.65,8.09,4.79,2.55,3.76-6.55Q-578.41,319.24-580.27,317.11Z" transform="translate(803.76 -3.11)"/><polygon class="cls-2" points="212.21 327.8 207.39 325.31 199.53 338.99 199.53 340.78 203.53 342.91 212.21 327.8"/><polygon class="cls-2" points="199.53 346.93 199.53 351.06 201.35 347.9 199.53 346.93"/><polygon class="cls-2" points="219.62 331.6 214.75 329.09 206.46 343.65 211.24 346.19 219.62 331.6"/><polygon class="cls-2" points="297.1 215.76 310.59 222.56 312.39 219.09 299.04 212.38 297.1 215.76"/><path class="cls-2" d="M-476.94,237.83l3.61-6.54-14.19-7.15-3.33,6.4c.35.32.69.65,1,1Z" transform="translate(803.76 -3.11)"/><path class="cls-2" d="M-478.39,239.8l-6.3-3-.13.24a62.45,62.45,0,0,1,4.55,6.41Z" transform="translate(803.76 -3.11)"/><path class="cls-2" d="M-470.78,258.42l-3.27-1.58c.5,1.54.93,3.09,1.32,4.68Z" transform="translate(803.76 -3.11)"/><path class="cls-2" d="M-463.46,238.41h0c0,3-5.47,10.2-5.47,10.2a58.74,58.74,0,0,1-3.51-5.25l-3.92,7.54q.56,1.24,1.05,2.52l5.86,2.82,8.77-14v-3.16l-3-1.84A5.94,5.94,0,0,1-463.46,238.41Z" transform="translate(803.76 -3.11)"/><path class="cls-2" d="M-564.35,335.78l7.69.76,1.09-2.17a62.69,62.69,0,0,1-6.52-2.94Z" transform="translate(803.76 -3.11)"/><path class="cls-2" d="M-573.2,335.3l7.67.42,2.49-4.78a62.1,62.1,0,0,1-5.67-3.5Z" transform="translate(803.76 -3.11)"/><path class="cls-2" d="M-549.61,336.58l1.33.07-1.21-.31Z" transform="translate(803.76 -3.11)"/><path class="cls-2" d="M-515.19,338.44l1.27-3.07a62.06,62.06,0,0,1-12.4,2.7Z" transform="translate(803.76 -3.11)"/><polygon class="cls-2" points="287 339.15 252.22 337.18 249.41 343.79 284.18 345.84 287 339.15"/><polygon class="cls-2" points="283.11 348.55 249.18 347.72 248.63 359.26 278.28 360.21 283.11 348.55"/><polygon class="cls-2" points="245.11 337.01 227.79 336.14 223.18 342.69 244.18 344.47 245.11 337.01"/><polygon class="cls-2" points="218.82 355.28 244.27 357.16 244.28 347.21 221.65 344.86 219.39 348.07 218.82 355.28"/><polygon class="cls-2" points="244.28 360.04 218.54 358.94 218.18 363.57 242.83 365.64 244.28 360.04"/><polygon class="cls-2" points="256.51 361.55 247.44 361.56 246.56 366.05 256.24 366.78 256.51 361.55"/><polygon class="cls-2" points="257.81 366.91 274.91 368.34 277.26 362.67 258.07 361.91 257.81 366.91"/><polygon class="cls-2" points="206.21 358.64 200.11 357.26 199.53 358.37 199.53 369.97 205.89 371.7 206.21 358.64"/><polygon class="cls-2" points="199.53 373.63 199.53 379.97 202.85 374.72 199.53 373.63"/><polygon class="cls-2" points="208.25 376.62 205 375.75 199.53 384.59 199.53 395.09 207.32 386.05 208.25 376.62"/><polygon class="cls-2" points="210.65 352.22 204.31 349.18 204.4 353.59 210.17 356.86 210.65 352.22"/><polygon class="cls-2" points="208.19 359.13 207.1 371.73 208.72 371.85 209.94 359.43 208.19 359.13"/><polygon class="cls-2" points="219.81 418.2 201.29 406.88 199.53 408.85 199.53 422.65 216.77 422.65 219.81 418.2"/><polygon class="cls-2" points="221.72 422.65 234.46 422.65 225.08 417.4 221.72 422.65"/><polygon class="cls-2" points="216.71 381.7 233.9 387.61 241.15 369.46 217.87 367.5 216.71 381.7"/><polygon class="cls-2" points="216.52 384.82 216.09 390.27 208.91 398.33 224.44 405.8 232 391.26 216.52 384.82"/><polygon class="cls-2" points="248.41 380.49 253.91 370.52 245.72 369.84 242.43 377.61 248.41 380.49"/><polygon class="cls-2" points="263.15 371.44 256.31 370.73 250.67 381.58 257.19 384.71 263.15 371.44"/><polygon class="cls-2" points="273.27 372.3 266.35 371.57 260.69 384.84 266.75 387.75 273.27 372.3"/><polygon class="cls-2" points="247.28 382.67 241.42 380.73 237.05 389.12 243.6 392.27 247.28 382.67"/><polygon class="cls-2" points="256.17 386.98 249.55 383.74 246.3 393.57 251.98 396.3 256.17 386.98"/><polygon class="cls-2" points="259.11 388.36 255.06 397.61 261.8 400.85 265.38 391.38 259.11 388.36"/><polygon class="cls-2" points="235.76 393.94 227.59 407.31 235.35 411.04 242.55 397.2 235.76 393.94"/><polygon class="cls-2" points="244.55 398.17 237.72 412.19 243.57 415 249.97 400.77 244.55 398.17"/><polygon class="cls-2" points="246.92 416.61 255.08 420.53 260.31 405.75 253.1 402.28 246.92 416.61"/><polygon class="cls-2" points="337.49 226.36 342.39 219.31 328.59 204.27 320.36 216.01 337.49 226.36"/><polygon class="cls-2" points="343.11 229.75 343.11 223.55 339.68 227.68 343.11 229.75"/><polygon class="cls-2" points="331.44 202.33 341.26 212.74 343.11 210.66 343.11 204.53 337.08 196.68 331.44 202.33"/><polygon class="cls-2" points="343.11 214.62 343.11 213.41 342.41 214.02 343.11 214.62"/><polygon class="cls-2" points="343.11 199.75 343.11 191.57 339.25 195.46 343.11 199.75"/><polygon class="cls-2" points="343.11 310.22 343.11 299.96 337.33 305.46 343.11 310.22"/><polygon class="cls-2" points="328.21 307.71 343.11 330.83 343.11 313.57 335.55 307.02 328.21 307.71"/><path class="cls-3" d="M-506,332.16l-3.48,6.59,10.91.59a5.46,5.46,0,0,1,3-.64,5.56,5.56,0,0,1,2.66.94l32.19,1.74L-481,310.05A62.52,62.52,0,0,1-506,332.16Z" transform="translate(803.76 -3.11)"/><polygon class="cls-2" points="334.13 303.05 343.11 294.63 343.11 287.03 331.23 300.85 334.13 303.05"/><path class="cls-2" d="M-476.83,302.47l1.32.61L-460.65,285v-1.72L-471,277.4A62,62,0,0,1-476.83,302.47Z" transform="translate(803.76 -3.11)"/><polygon class="cls-2" points="343.11 257.31 343.11 250.87 340.22 255.85 343.11 257.31"/><path class="cls-2" d="M-471.18,271.55c.07.92.11,1.84.14,2.77l2.92,1.66,7.47-11.76v-1l-4.23-2Z" transform="translate(803.76 -3.11)"/><polygon class="cls-2" points="340.84 275.85 343.11 272.79 343.11 265.88 337.84 274.13 340.84 275.85"/><polygon class="cls-2" points="343.11 277.14 343.11 275.79 342.37 276.71 343.11 277.14"/><path class="cls-2" d="M-490.48,343.73c0,1.63-1.59,4.46-3,6.73l7.27.13-.36-6.81-3.92-.2,0,.15Z" transform="translate(803.76 -3.11)"/><path class="cls-2" d="M-501.31,343l-10.09-.51-3.17,7.55,16.15.3c-1.45-2.26-3-5-3-6.64A5.37,5.37,0,0,1-501.31,343Z" transform="translate(803.76 -3.11)"/><polygon class="cls-2" points="307.8 350.8 288.07 349.63 283.21 361.17 316.04 363.13 316.72 351.32 307.83 350.8 307.82 350.81 307.8 350.8"/><polygon class="cls-2" points="280.01 368.77 289.28 369.55 291.21 363.94 282.44 363 280.01 368.77"/><polygon class="cls-2" points="303.69 364.7 293.63 364.24 291.81 369.77 303.05 370.71 303.69 364.7"/><polygon class="cls-2" points="315.61 365.6 306.41 364.94 305.85 370.95 315.2 371.74 315.61 365.6"/><polygon class="cls-2" points="287.98 373.38 278.41 372.58 276.24 377.74 286.28 378.39 287.98 373.38"/><polygon class="cls-2" points="285.48 380.7 275.48 379.54 272.12 387.53 282.6 389.19 285.48 380.7"/><polygon class="cls-2" points="281.48 392.37 270.59 391.15 267.02 399.64 278.62 400.71 281.48 392.37"/><polygon class="cls-2" points="265.9 402.32 263.08 410.58 274.79 411.93 277.73 403.34 265.9 402.32"/><polygon class="cls-2" points="262.26 414.02 260.24 422.65 271.11 422.65 273.46 415.79 262.26 414.02"/><polygon class="cls-2" points="302.2 374.58 290.58 373.63 288.07 381.1 301.25 383.01 302.2 374.58"/><polygon class="cls-2" points="305.48 374.86 303.74 386.78 310.77 387.64 314.73 375.63 305.48 374.86"/><polygon class="cls-2" points="300.59 387.12 286.92 384.58 284.69 391.33 298.93 396.31 300.59 387.12"/><polygon class="cls-2" points="297.61 398.59 284.09 393.18 282.02 399.42 294.31 404.92 297.61 398.59"/><polygon class="cls-2" points="280.54 403.92 277.59 412.84 287.86 417.34 292.11 409.16 280.54 403.92"/><polygon class="cls-2" points="276.35 416.6 274.36 422.65 285.79 422.65 286.4 420.14 276.35 416.6"/><polygon class="cls-2" points="301.2 396.93 307.14 398.63 310.41 389.99 303.51 388.71 301.2 396.93"/><polygon class="cls-2" points="297.22 406.32 302.47 407.61 305.68 401.43 300.53 399.97 297.22 406.32"/><polygon class="cls-2" points="290.77 418.74 297.8 420.38 300.33 411.72 295.6 409.45 290.77 418.74"/><polygon class="cls-2" points="288.88 422.65 294.5 422.65 289.31 421.54 288.88 422.65"/><polygon class="cls-2" points="319.48 359.33 342.68 360.05 343.11 349.16 343.11 341.98 321.1 340.87 319.48 359.33"/><polygon class="cls-2" points="342.44 366.21 342.58 362.67 318.91 361.69 318.94 365.32 342.44 366.21"/><polygon class="cls-2" points="328.98 367.9 319.12 367.38 318.9 372.01 328.84 372.8 328.98 367.9"/><polygon class="cls-2" points="331.41 373.1 342.13 374 342.34 368.49 331.61 367.98 331.41 373.1"/><polygon class="cls-2" points="330.62 383.96 341.73 384.24 341.98 377.89 331.23 377.02 330.62 383.96"/><polygon class="cls-2" points="329.99 395.33 338.43 395.34 341.52 389.59 341.54 388.98 330.2 388.52 329.99 395.33"/><polygon class="cls-2" points="330.37 410.38 336.9 398.18 330.07 398.06 330.37 410.38"/><polygon class="cls-2" points="327.88 408.96 308.87 402.01 301.81 422.65 322.54 422.65 327.85 410.33 327.88 408.96"/><polygon class="cls-2" points="328.74 376.81 316.78 375.81 316.07 381.73 328.56 382.59 328.74 376.81"/><polygon class="cls-2" points="313.86 390.63 328.35 391.51 328.51 385.29 315.66 383.87 313.86 390.63"/><polygon class="cls-2" points="310.92 399.61 327.97 405.64 328.28 394.15 313.81 392.5 310.92 399.61"/><polygon class="cls-2" points="329.66 419.06 343.11 419.74 343.11 413.47 332.04 412.91 329.66 419.06"/><polygon class="cls-2" points="332.36 411.33 343.11 411.63 343.11 405.45 335.72 404.97 332.36 411.33"/><polygon class="cls-2" points="328.55 421.19 327.91 422.65 343.11 422.65 343.11 421.92 328.55 421.19"/><polygon class="cls-2" points="343.11 403.77 343.11 393.46 337.01 403.36 343.11 403.77"/><path class="cls-4" d="M-589.64,211.24l-3.5-1.68a2.7,2.7,0,0,1-.81.14,2.53,2.53,0,0,1-2.37-1.67l-2.89-1.39a5.32,5.32,0,0,0-.22,1.15,8.12,8.12,0,0,0,1,3.12l7,3.45C-590.81,213.37-590.17,212.28-589.64,211.24Z" transform="translate(803.76 -3.11)"/><path class="cls-4" d="M-596.48,207.16a2.54,2.54,0,0,1,2.53-2.54,2.54,2.54,0,0,1,2.54,2.54,2.54,2.54,0,0,1-1.73,2.4l3.5,1.68a8.83,8.83,0,0,0,1.15-3.45h0a5.46,5.46,0,0,0-5-5,5.45,5.45,0,0,0-5.65,3.88l2.89,1.39A2.53,2.53,0,0,1-596.48,207.16Z" transform="translate(803.76 -3.11)"/><path class="cls-4" d="M-591.45,214.36l-7-3.45A51.07,51.07,0,0,0-594,218S-592.74,216.37-591.45,214.36Z" transform="translate(803.76 -3.11)"/><path class="cls-1" d="M-593.95,209.7a2.7,2.7,0,0,0,.81-.14l-3.18-1.53A2.53,2.53,0,0,0-593.95,209.7Z" transform="translate(803.76 -3.11)"/><path class="cls-1" d="M-591.41,207.16a2.54,2.54,0,0,0-2.54-2.54,2.54,2.54,0,0,0-2.53,2.54,2.53,2.53,0,0,0,.16.87l3.18,1.53A2.54,2.54,0,0,0-591.41,207.16Z" transform="translate(803.76 -3.11)"/><path class="cls-4" d="M-501.31,343l2.85.15s0,0,0-.07a2.54,2.54,0,0,1,2.54-2.53,2.54,2.54,0,0,1,2.54,2.53,1.65,1.65,0,0,1,0,.32l2.89.15a5.45,5.45,0,0,0-2.34-3.94l-5.67-.3A5.44,5.44,0,0,0-501.31,343Z" transform="translate(803.76 -3.11)"/><path class="cls-4" d="M-496,353.91h0c.06-.08,1.18-1.57,2.4-3.45l-4.89-.09C-497.18,352.29-496,353.82-496,353.91Z" transform="translate(803.76 -3.11)"/><path class="cls-4" d="M-498.55,339.34l5.67.3a5.56,5.56,0,0,0-2.66-.94A5.46,5.46,0,0,0-498.55,339.34Z" transform="translate(803.76 -3.11)"/><path class="cls-4" d="M-495.93,345.65a2.53,2.53,0,0,1-2.53-2.47l-2.85-.15a5.37,5.37,0,0,0-.11.7c0,1.6,1.55,4.38,3,6.64l4.89.09c1.46-2.27,3-5.1,3-6.73h0l0-.15-2.89-.15A2.52,2.52,0,0,1-495.93,345.65Z" transform="translate(803.76 -3.11)"/><polygon class="cls-4" points="307.82 350.81 307.83 350.8 307.8 350.8 307.82 350.81"/><path class="cls-1" d="M-493.39,343.11a2.54,2.54,0,0,0-2.54-2.53,2.54,2.54,0,0,0-2.54,2.53s0,.05,0,.07l5,.25A1.65,1.65,0,0,0-493.39,343.11Z" transform="translate(803.76 -3.11)"/><path class="cls-1" d="M-495.93,345.65a2.52,2.52,0,0,0,2.5-2.22l-5-.25A2.53,2.53,0,0,0-495.93,345.65Z" transform="translate(803.76 -3.11)"/><path class="cls-1" d="M-473.75,275.86l2.73,1.54c0-.42,0-.84,0-1.26,0-.61,0-1.21-.05-1.82l-1.36-.78,1.22-2a62.38,62.38,0,0,0-1.55-10l-.77,1.22-7.19-3.46,2.34-4.5,4.3,2.06q-.57-1.72-1.23-3.42l-1.89-.91.84-1.61a61.93,61.93,0,0,0-3.94-7.48l-.46.89-6.3-3,2.21-4.27a60.38,60.38,0,0,0-5-5.49l-1.23-.6.2-.38a62.29,62.29,0,0,0-25.33-14.32l-14.51,25.29-2.37-1.13,13.64-25c-1-.23-2-.44-3-.62l-13.18,24.37-7.64-3.67L-532,213.84c-.43,0-.85,0-1.28,0q-1.66,0-3.3.09l-10.94,19.33,10.94-19.33c-1.71.09-3.39.26-5.06.48l-2.51,4.51-5.76-2.77,0-.06c-1.44.4-2.86.84-4.26,1.34l.16.07-4.79,8.81-6.9-3.4c-1.58,1-3.11,2-4.59,3.09l9.09,4.74-2.53,4.63-11.35-5.46c-.75.67-1.47,1.36-2.18,2.07l12.19,5.86-2.18,4-13.25-6.37c-.63.74-1.25,1.48-1.85,2.25l13.73,6.65-2,3.81-14.36-6.9c-.69,1-1.35,2.08-2,3.14l14.6,6.81-1.51,2.79-14.55-7a60.87,60.87,0,0,0-3.27,7.27l12.35,5.95-2.42,4.66-11.57-5.56c-.32,1.11-.6,2.24-.85,3.38l10.84,5.22-5,9.56L-595.6,274c0,.73,0,1.45,0,2.18,0,.54,0,1.07,0,1.61l5.73,2.75-1.94,3.73-3.51-1.69c.14,1.38.34,2.73.57,4.07l1.36.66-.91,1.75c.27,1.31.6,2.59.95,3.87l2.34-4.49,5.47,2.72-2.55,4.52-5.18-2.49c.43,1.52.9,3,1.43,4.48l2.07,1-1,1.75c.73,1.72,1.54,3.4,2.41,5L-566.53,267l-21.83,38.45q1.3,2.43,2.81,4.73l7.94-13.83,4.79,2.55-9.25,16.1c.58.73,1.18,1.45,1.8,2.15l9.77-17,4.79,2.55-10.66,18.56a62.85,62.85,0,0,0,7.66,6.24l4.68-8.19,5.65,2.72-4.66,9c.31.17.64.33.95.49l4.68-9,6.3,3-4.46,8.9a62.5,62.5,0,0,0,6.08,2l6.47-12.43,6.31,3L-541.94,337l-6.34-.34a62.47,62.47,0,0,0,15,1.82,62.22,62.22,0,0,0,7-.4l-.67,0,8.28-15.93,8.57,4.12-3.78,9.13a61,61,0,0,0,7.94-3.21l14.2-26.93,10.58,4.57.16.25a62.85,62.85,0,0,0,4.21-7.58l-10.36-4.74Zm-7.23-1-6.23-3,1-2,6.31,3Zm-73.22,27.25,2.55-4.47,6.26,3.07-2.34,4.5Zm2,7.94-2.35,4.51-5.34-2.57,2.49-4.36Zm1.38-13.92,2.49-4.37,6,3-2.34,4.5Zm23.26-22.41.75-1.44,6.3,3-2.34,4.5-4.4-2.11a6.3,6.3,0,0,1-6.11,4.79,6.31,6.31,0,0,1-6.31-6.31,6.32,6.32,0,0,1,3.45-5.62l1.26-2.2,7.18,3.45-.41.78A5.94,5.94,0,0,1-527.52,273.68Zm35.64-25.42-2.34,4.51-6.3-3,2.34-4.51Zm-5.53-4.5,2.34-4.51,6.3,3-2.34,4.51Zm2.43,10.48-2.34,4.51-6.31-3,2.35-4.51Zm-4.75,9.12-2.34,4.51-6.3-3,2.34-4.51Zm-3.1,6-2.34,4.51-6.3-3,2.34-4.51Zm-3.11,6-2.34,4.51-6.31-3,2.34-4.51Zm-7.54-13.49-6.3-3,2.34-4.5,6.3,3Zm-.77,1.48-2.34,4.5-6.3-3,2.34-4.5Zm-3.1,6-2.34,4.5-6.31-3,2.35-4.5Zm-.83,22-2.34,4.51-6.3-3,2.34-4.51Zm-19.25-3.63,2.34-4.5,6.31,3-2.35,4.5Zm5.54,4.51-2.34,4.5-6.3-3,2.34-4.5Zm-4.17-9.48-2.34,4.51-5.75-2.76,2.53-4.42Zm-3.11,6-2.34,4.51-6-2.88,2.53-4.41Zm-2.13,6.45,6.3,3-2.34,4.5-6.3-3Zm4.51,16.79,6.3,3-2.34,4.5-6.31-3Zm.64-1.2,2.35-4.51,6.3,3-2.34,4.51Zm3.11-6,2.34-4.5,6.31,3-2.35,4.5Zm3.11-6,2.35-4.5,6.3,3-2.34,4.5Zm9.62-1,6.3,3-2.34,4.51-6.31-3Zm.77-1.47,2.34-4.51,6.3,3-2.34,4.51Zm8.15-10.49-6.31-3,2.35-4.51,6.3,3Zm3.31-4,6.3,3-2.34,4.5-6.3-3Zm.77-1.48,2.34-4.5,6.31,3-2.34,4.5Zm3.11-6,2.34-4.5,6.31,3-2.35,4.5Zm3.11-6,2.34-4.5,6.3,3-2.34,4.5Zm4.74-9.12,2.34-4.5,6.3,3-2.34,4.5Zm3.1-6,2.34-4.5,6.31,3-2.35,4.5ZM-474.93,265l-2.73,4.32-7.18-3.45,2.34-4.51Zm-6.56-19.2-2.34,4.5-6.3-3,2.34-4.5Zm-4.17-9.48-2.34,4.51-6.3-3,2.34-4.51Zm-22.52-14.77,14,6.72-13.1,25.21-15-7.23Zm-16.71,29.26,6.47,3-2.34,4.51-6.63-3.19Zm-3.32,5.81,6.68,3.21-2.34,4.51-6.76-3.5Zm-3.36,5.86,6.94,3.33L-527,270.3l-7.11-3.42Zm-4-18,2.5,1.22-12.63,22-2.51-1.21Zm-9.84-4.91,7.4,3.71L-550.91,265l-7-4Zm-16.45,19.21,12.19-21.49Zm10.18-39.28,5.65,2.71-5.19,9.18-5.31-2.71Zm-32.41,69.07-5.6-2.69,2.42-4.66,5.73,2.83Zm4-7.1-5.86-2.82,2.42-4.67,5.89,3.05Zm4-7.12-6.11-2.93,5.19-10,6.3,3.35Zm5.37-19.82,11.51-22.14,5.69,3.16-12,21.47Zm.19,42-5.82-3.1,13.91-24.19,5.95,2.85Zm6.36,3.38-4-2.14,14.43-25.11,4,2.14Zm6.53,20.67-5.58-2.69,2.53-4.42,5.39,2.6Zm7.29,3.49-6.3-3,2.34-4.5,6.3,3Zm3.11-6-6.31-3,2.35-4.51,6.3,3Zm.47-12.37,2.34-4.51,6.31,3-2.35,4.51Zm4.5,16.79,2.35-4.5,6.3,3-2.34,4.5Zm9.56,15.06h-8l5-10.09,6.3,3Zm4-8.53-6.3-3,2.34-4.5,6.3,3Zm3.12-6-6.31-3,2.35-4.51,6.3,3Zm3-5.71-6.3-3,2.34-4.51,6.3,3Zm3.11-6-6.3-3,2.34-4.51,6.31,3Zm10.69,12.62-8.57-4.12,5.79-11.13,8.94,4.3Zm7.45-13.22-9-4.34,4.28-8.25,9.34,4.5Zm8.81-15.52-5.47-2.63,9.6-18.45,6.13,3Z" transform="translate(803.76 -3.11)"/><path class="cls-5" d="M-473.75,275.86l2.73,1.54c0-.42,0-.84,0-1.26,0-.61,0-1.21-.05-1.82l-1.36-.78,1.22-2a62.38,62.38,0,0,0-1.55-10l-.77,1.22-7.19-3.46,2.34-4.5,4.3,2.06q-.57-1.72-1.23-3.42l-1.89-.91.84-1.61a61.93,61.93,0,0,0-3.94-7.48l-.46.89-6.3-3,2.21-4.27a60.38,60.38,0,0,0-5-5.49l-1.23-.6.2-.38a62.29,62.29,0,0,0-25.33-14.32l-14.51,25.29-2.37-1.13,13.64-25c-1-.23-2-.44-3-.62l-13.18,24.37-7.64-3.67L-532,213.84c-.43,0-.85,0-1.28,0q-1.66,0-3.3.09l-10.94,19.33,10.94-19.33c-1.71.09-3.39.26-5.06.48l-2.51,4.51-5.76-2.77,0-.06c-1.44.4-2.86.84-4.26,1.34l.16.07-4.79,8.81-6.9-3.4c-1.58,1-3.11,2-4.59,3.09l9.09,4.74-2.53,4.63-11.35-5.46c-.75.67-1.47,1.36-2.18,2.07l12.19,5.86-2.18,4-13.25-6.37c-.63.74-1.25,1.48-1.85,2.25l13.73,6.65-2,3.81-14.36-6.9c-.69,1-1.35,2.08-2,3.14l14.6,6.81-1.51,2.79-14.55-7a60.87,60.87,0,0,0-3.27,7.27l12.35,5.95-2.42,4.66-11.57-5.56c-.32,1.11-.6,2.24-.85,3.38l10.84,5.22-5,9.56L-595.6,274c0,.73,0,1.45,0,2.18,0,.54,0,1.07,0,1.61l5.73,2.75-1.94,3.73-3.51-1.69c.14,1.38.34,2.73.57,4.07l1.36.66-.91,1.75c.27,1.31.6,2.59.95,3.87l2.34-4.49,5.47,2.72-2.55,4.52-5.18-2.49c.43,1.52.9,3,1.43,4.48l2.07,1-1,1.75c.73,1.72,1.54,3.4,2.41,5L-566.53,267l-21.83,38.45q1.3,2.43,2.81,4.73l7.94-13.83,4.79,2.55-9.25,16.1c.58.73,1.18,1.45,1.8,2.15l9.77-17,4.79,2.55-10.66,18.56a62.85,62.85,0,0,0,7.66,6.24l4.68-8.19,5.65,2.72-4.66,9c.31.17.64.33.95.49l4.68-9,6.3,3-4.46,8.9a62.5,62.5,0,0,0,6.08,2l6.47-12.43,6.31,3L-541.94,337l-6.34-.34a62.47,62.47,0,0,0,15,1.82,62.22,62.22,0,0,0,7-.4l-.67,0,8.28-15.93,8.57,4.12-3.78,9.13a61,61,0,0,0,7.94-3.21l14.2-26.93,10.58,4.57.16.25a62.85,62.85,0,0,0,4.21-7.58l-10.36-4.74Zm-7.23-1-6.23-3,1-2,6.31,3Zm-73.22,27.25,2.55-4.47,6.26,3.07-2.34,4.5Zm2,7.94-2.35,4.51-5.34-2.57,2.49-4.36Zm1.38-13.92,2.49-4.37,6,3-2.34,4.5Zm23.26-22.41.75-1.44,6.3,3-2.34,4.5-4.4-2.11a6.3,6.3,0,0,1-6.11,4.79,6.31,6.31,0,0,1-6.31-6.31,6.32,6.32,0,0,1,3.45-5.62l1.26-2.2,7.18,3.45-.41.78A5.94,5.94,0,0,1-527.52,273.68Zm35.64-25.42-2.34,4.51-6.3-3,2.34-4.51Zm-5.53-4.5,2.34-4.51,6.3,3-2.34,4.51Zm2.43,10.48-2.34,4.51-6.31-3,2.35-4.51Zm-4.75,9.12-2.34,4.51-6.3-3,2.34-4.51Zm-3.1,6-2.34,4.51-6.3-3,2.34-4.51Zm-3.11,6-2.34,4.51-6.31-3,2.34-4.51Zm-7.54-13.49-6.3-3,2.34-4.5,6.3,3Zm-.77,1.48-2.34,4.5-6.3-3,2.34-4.5Zm-3.1,6-2.34,4.5-6.31-3,2.35-4.5Zm-.83,22-2.34,4.51-6.3-3,2.34-4.51Zm-19.25-3.63,2.34-4.5,6.31,3-2.35,4.5Zm5.54,4.51-2.34,4.5-6.3-3,2.34-4.5Zm-4.17-9.48-2.34,4.51-5.75-2.76,2.53-4.42Zm-3.11,6-2.34,4.51-6-2.88,2.53-4.41Zm-2.13,6.45,6.3,3-2.34,4.5-6.3-3Zm4.51,16.79,6.3,3-2.34,4.5-6.31-3Zm.64-1.2,2.35-4.51,6.3,3-2.34,4.51Zm3.11-6,2.34-4.5,6.31,3-2.35,4.5Zm3.11-6,2.35-4.5,6.3,3-2.34,4.5Zm9.62-1,6.3,3-2.34,4.51-6.31-3Zm.77-1.47,2.34-4.51,6.3,3-2.34,4.51Zm8.15-10.49-6.31-3,2.35-4.51,6.3,3Zm3.31-4,6.3,3-2.34,4.5-6.3-3Zm.77-1.48,2.34-4.5,6.31,3-2.34,4.5Zm3.11-6,2.34-4.5,6.31,3-2.35,4.5Zm3.11-6,2.34-4.5,6.3,3-2.34,4.5Zm4.74-9.12,2.34-4.5,6.3,3-2.34,4.5Zm3.1-6,2.34-4.5,6.31,3-2.35,4.5ZM-474.93,265l-2.73,4.32-7.18-3.45,2.34-4.51Zm-6.56-19.2-2.34,4.5-6.3-3,2.34-4.5Zm-4.17-9.48-2.34,4.51-6.3-3,2.34-4.51Zm-22.52-14.77,14,6.72-13.1,25.21-15-7.23Zm-16.71,29.26,6.47,3-2.34,4.51-6.63-3.19Zm-3.32,5.81,6.68,3.21-2.34,4.51-6.76-3.5Zm-3.36,5.86,6.94,3.33L-527,270.3l-7.11-3.42Zm-4-18,2.5,1.22-12.63,22-2.51-1.21Zm-9.84-4.91,7.4,3.71L-550.91,265l-7-4Zm-16.45,19.21,12.19-21.49Zm10.18-39.28,5.65,2.71-5.19,9.18-5.31-2.71Zm-32.41,69.07-5.6-2.69,2.42-4.66,5.73,2.83Zm4-7.1-5.86-2.82,2.42-4.67,5.89,3.05Zm4-7.12-6.11-2.93,5.19-10,6.3,3.35Zm5.37-19.82,11.51-22.14,5.69,3.16-12,21.47Zm.19,42-5.82-3.1,13.91-24.19,5.95,2.85Zm6.36,3.38-4-2.14,14.43-25.11,4,2.14Zm6.53,20.67-5.58-2.69,2.53-4.42,5.39,2.6Zm7.29,3.49-6.3-3,2.34-4.5,6.3,3Zm3.11-6-6.31-3,2.35-4.51,6.3,3Zm.47-12.37,2.34-4.51,6.31,3-2.35,4.51Zm4.5,16.79,2.35-4.5,6.3,3-2.34,4.5Zm9.56,15.06h-8l5-10.09,6.3,3Zm4-8.53-6.3-3,2.34-4.5,6.3,3Zm3.12-6-6.31-3,2.35-4.51,6.3,3Zm3-5.71-6.3-3,2.34-4.51,6.3,3Zm3.11-6-6.3-3,2.34-4.51,6.31,3Zm10.69,12.62-8.57-4.12,5.79-11.13,8.94,4.3Zm7.45-13.22-9-4.34,4.28-8.25,9.34,4.5Zm8.81-15.52-5.47-2.63,9.6-18.45,6.13,3Z" transform="translate(803.76 -3.11)"/><path class="cls-1" d="M-533.32,281h.05a4.88,4.88,0,0,0,4.78-4l-.62-.3.65-1.24a4.69,4.69,0,0,0-.45-1.49l-1.17,2.27-.54-.25a.43.43,0,0,1,0,.11,2.72,2.72,0,0,1-2.72,2.72,2.72,2.72,0,0,1-2.72-2.72,2.69,2.69,0,0,1,1.11-2.18l-2.06-1a4.88,4.88,0,0,0-1.2,3.15A4.89,4.89,0,0,0-533.32,281Z" transform="translate(803.76 -3.11)"/><path class="cls-5" d="M-533.32,281h.05a4.88,4.88,0,0,0,4.78-4l-.62-.3.65-1.24a4.69,4.69,0,0,0-.45-1.49l-1.17,2.27-.54-.25a.43.43,0,0,1,0,.11,2.72,2.72,0,0,1-2.72,2.72,2.72,2.72,0,0,1-2.72-2.72,2.69,2.69,0,0,1,1.11-2.18l-2.06-1a4.88,4.88,0,0,0-1.2,3.15A4.89,4.89,0,0,0-533.32,281Z" transform="translate(803.76 -3.11)"/><path class="cls-2" d="M-554,217.47l-.16-.07a61.89,61.89,0,0,0-11.53,5.48l6.9,3.4Z" transform="translate(803.76 -3.11)"/><path class="cls-5" d="M-554,217.47l-.16-.07a61.89,61.89,0,0,0-11.53,5.48l6.9,3.4Z" transform="translate(803.76 -3.11)"/><path class="cls-2" d="M-561.21,230.71-570.3,226c-1.67,1.23-3.26,2.53-4.79,3.91l11.35,5.46Z" transform="translate(803.76 -3.11)"/><path class="cls-5" d="M-561.21,230.71-570.3,226c-1.67,1.23-3.26,2.53-4.79,3.91l11.35,5.46Z" transform="translate(803.76 -3.11)"/><path class="cls-2" d="M-565.08,237.81-577.27,232c-1.13,1.12-2.2,2.29-3.24,3.49l13.25,6.37Z" transform="translate(803.76 -3.11)"/><path class="cls-5" d="M-565.08,237.81-577.27,232c-1.13,1.12-2.2,2.29-3.24,3.49l13.25,6.37Z" transform="translate(803.76 -3.11)"/><path class="cls-2" d="M-568.63,244.34l-13.73-6.65c-.91,1.16-1.79,2.34-2.62,3.56l14.36,6.9Z" transform="translate(803.76 -3.11)"/><path class="cls-5" d="M-568.63,244.34l-13.73-6.65c-.91,1.16-1.79,2.34-2.62,3.56l14.36,6.9Z" transform="translate(803.76 -3.11)"/><path class="cls-2" d="M-572.36,251.2l-14.6-6.81c-.5.86-1,1.72-1.46,2.6l14.55,7Z" transform="translate(803.76 -3.11)"/><path class="cls-5" d="M-572.36,251.2l-14.6-6.81c-.5.86-1,1.72-1.46,2.6l14.55,7Z" transform="translate(803.76 -3.11)"/><path class="cls-2" d="M-544.19,218.89l2.51-4.51a62.32,62.32,0,0,0-8.24,1.68l0,.06Z" transform="translate(803.76 -3.11)"/><path class="cls-5" d="M-544.19,218.89l2.51-4.51a62.32,62.32,0,0,0-8.24,1.68l0,.06Z" transform="translate(803.76 -3.11)"/><polygon class="cls-2" points="257.73 219.06 252.09 216.35 247.23 225.53 252.54 228.24 257.73 219.06"/><polygon class="cls-5" points="257.73 219.06 252.09 216.35 247.23 225.53 252.54 228.24 257.73 219.06"/><polygon class="cls-2" points="250.27 232.4 244.58 229.23 233.07 251.38 238.24 253.87 250.27 232.4"/><polygon class="cls-5" points="250.27 232.4 244.58 229.23 233.07 251.38 238.24 253.87 250.27 232.4"/><path class="cls-2" d="M-579.34,260.21l-12.35-5.95c-.62,1.65-1.16,3.34-1.64,5.05l11.57,5.56Z" transform="translate(803.76 -3.11)"/><path class="cls-5" d="M-579.34,260.21l-12.35-5.95c-.62,1.65-1.16,3.34-1.64,5.05l11.57,5.56Z" transform="translate(803.76 -3.11)"/><path class="cls-2" d="M-583.34,267.91l-10.84-5.22A63.39,63.39,0,0,0-595.6,274l7.29,3.51Z" transform="translate(803.76 -3.11)"/><path class="cls-5" d="M-583.34,267.91l-10.84-5.22A63.39,63.39,0,0,0-595.6,274l7.29,3.51Z" transform="translate(803.76 -3.11)"/><path class="cls-2" d="M-589.88,280.5l-5.73-2.75c0,1.61.12,3.21.28,4.79l3.51,1.69Z" transform="translate(803.76 -3.11)"/><path class="cls-5" d="M-589.88,280.5l-5.73-2.75c0,1.61.12,3.21.28,4.79l3.51,1.69Z" transform="translate(803.76 -3.11)"/><path class="cls-2" d="M-594.76,286.61c.14.81.28,1.62.45,2.41l.91-1.75Z" transform="translate(803.76 -3.11)"/><path class="cls-5" d="M-594.76,286.61c.14.81.28,1.62.45,2.41l.91-1.75Z" transform="translate(803.76 -3.11)"/><path class="cls-2" d="M-585.55,291.12-591,288.4l-2.34,4.49.08.26,5.18,2.49Z" transform="translate(803.76 -3.11)"/><path class="cls-5" d="M-585.55,291.12-591,288.4l-2.34,4.49.08.26,5.18,2.49Z" transform="translate(803.76 -3.11)"/><polygon class="cls-2" points="214.07 282.73 219.67 285.42 222.22 280.89 216.5 278.06 214.07 282.73"/><polygon class="cls-5" points="214.07 282.73 219.67 285.42 222.22 280.89 216.5 278.06 214.07 282.73"/><polygon class="cls-2" points="217.83 275.5 223.7 278.32 226.14 273.88 220.25 270.83 217.83 275.5"/><polygon class="cls-5" points="217.83 275.5 223.7 278.32 226.14 273.88 220.25 270.83 217.83 275.5"/><polygon class="cls-2" points="221.59 268.27 227.69 271.2 233.07 261.64 226.77 258.29 221.59 268.27"/><polygon class="cls-5" points="221.59 268.27 227.69 271.2 233.07 261.64 226.77 258.29 221.59 268.27"/><path class="cls-2" d="M-591.85,297.63c.34.93.7,1.84,1.08,2.74l1-1.75Z" transform="translate(803.76 -3.11)"/><path class="cls-5" d="M-591.85,297.63c.34.93.7,1.84,1.08,2.74l1-1.75Z" transform="translate(803.76 -3.11)"/><path class="cls-2" d="M-530.69,241.51l14.51-25.29c-1.07-.31-2.15-.59-3.24-.83l-13.64,25Z" transform="translate(803.76 -3.11)"/><path class="cls-5" d="M-530.69,241.51l14.51-25.29c-1.07-.31-2.15-.59-3.24-.83l-13.64,25Z" transform="translate(803.76 -3.11)"/><path class="cls-2" d="M-535.64,239.14l13.18-24.37a63,63,0,0,0-9.58-.93l-11.24,21.63Z" transform="translate(803.76 -3.11)"/><path class="cls-5" d="M-535.64,239.14l13.18-24.37a63,63,0,0,0-9.58-.93l-11.24,21.63Z" transform="translate(803.76 -3.11)"/><polygon class="cls-2" points="252.85 261.92 265.75 240.13 258.35 236.41 245.91 257.92 252.85 261.92"/><polygon class="cls-5" points="252.85 261.92 265.75 240.13 258.35 236.41 245.91 257.92 252.85 261.92"/><polygon class="cls-2" points="258.06 264.58 270.7 242.55 268.19 241.33 255.55 263.37 258.06 264.58"/><polygon class="cls-5" points="258.06 264.58 270.7 242.55 268.19 241.33 255.55 263.37 258.06 264.58"/><polygon class="cls-2" points="241.34 266.05 227.43 290.24 233.26 293.34 247.3 268.9 241.34 266.05"/><polygon class="cls-5" points="241.34 266.05 227.43 290.24 233.26 293.34 247.3 268.9 241.34 266.05"/><polygon class="cls-2" points="250.01 269.47 235.59 294.58 239.62 296.72 254.03 271.61 250.01 269.47"/><polygon class="cls-5" points="250.01 269.47 235.59 294.58 239.62 296.72 254.03 271.61 250.01 269.47"/><path class="cls-2" d="M-577.61,296.31l-7.94,13.83q1.62,2.49,3.48,4.82l9.25-16.1Z" transform="translate(803.76 -3.11)"/><path class="cls-5" d="M-577.61,296.31l-7.94,13.83q1.62,2.49,3.48,4.82l9.25-16.1Z" transform="translate(803.76 -3.11)"/><path class="cls-2" d="M-570.5,300.09l-9.77,17q1.86,2.13,3.9,4.09l10.66-18.56Z" transform="translate(803.76 -3.11)"/><path class="cls-5" d="M-570.5,300.09l-9.77,17q1.86,2.13,3.9,4.09l10.66-18.56Z" transform="translate(803.76 -3.11)"/><polygon class="cls-3" points="309.56 225.14 295.58 218.42 281.44 243.12 296.46 250.34 309.56 225.14"/><polygon class="cls-5" points="309.56 225.14 295.58 218.42 281.44 243.12 296.46 250.34 309.56 225.14"/><path class="cls-2" d="M-489.82,231.52c-.34-.33-.68-.66-1-1l-.2.38Z" transform="translate(803.76 -3.11)"/><path class="cls-5" d="M-489.82,231.52c-.34-.33-.68-.66-1-1l-.2.38Z" transform="translate(803.76 -3.11)"/><polygon class="cls-2" points="283.98 255.69 290.28 258.72 292.62 254.22 286.32 251.19 283.98 255.69"/><polygon class="cls-5" points="283.98 255.69 290.28 258.72 292.62 254.22 286.32 251.19 283.98 255.69"/><polygon class="cls-2" points="285.34 250.72 278.87 247.68 276.37 252.04 283 255.23 285.34 250.72"/><polygon class="cls-5" points="285.34 250.72 278.87 247.68 276.37 252.04 283 255.23 285.34 250.72"/><polygon class="cls-2" points="280.87 261.67 287.17 264.7 289.51 260.2 283.21 257.17 280.87 261.67"/><polygon class="cls-5" points="280.87 261.67 287.17 264.7 289.51 260.2 283.21 257.17 280.87 261.67"/><polygon class="cls-2" points="282.24 256.7 275.55 253.48 273.13 257.71 279.89 261.21 282.24 256.7"/><polygon class="cls-5" points="282.24 256.7 275.55 253.48 273.13 257.71 279.89 261.21 282.24 256.7"/><polygon class="cls-2" points="277.77 267.65 284.07 270.68 286.41 266.18 280.11 263.15 277.77 267.65"/><polygon class="cls-5" points="277.77 267.65 284.07 270.68 286.41 266.18 280.11 263.15 277.77 267.65"/><polygon class="cls-2" points="276.79 267.19 279.13 262.68 272.2 259.35 269.67 263.77 276.79 267.19"/><polygon class="cls-5" points="276.79 267.19 279.13 262.68 272.2 259.35 269.67 263.77 276.79 267.19"/><path class="cls-2" d="M-527.21,277.66l4.4,2.11,2.34-4.5-6.3-3-.75,1.44a6.25,6.25,0,0,1,.5,2.46A6.39,6.39,0,0,1-527.21,277.66Z" transform="translate(803.76 -3.11)"/><path class="cls-5" d="M-527.21,277.66l4.4,2.11,2.34-4.5-6.3-3-.75,1.44a6.25,6.25,0,0,1,.5,2.46A6.39,6.39,0,0,1-527.21,277.66Z" transform="translate(803.76 -3.11)"/><path class="cls-2" d="M-528.49,277a4.73,4.73,0,0,0,.09-.93,6,6,0,0,0-.06-.61l-.65,1.24Z" transform="translate(803.76 -3.11)"/><path class="cls-5" d="M-528.49,277a4.73,4.73,0,0,0,.09-.93,6,6,0,0,0-.06-.61l-.65,1.24Z" transform="translate(803.76 -3.11)"/><path class="cls-2" d="M-533.32,273.42a2.71,2.71,0,0,1,2.7,2.61l.54.25,1.17-2.27a4.87,4.87,0,0,0-4.36-2.76A4.85,4.85,0,0,0-537,273l2.06,1A2.64,2.64,0,0,1-533.32,273.42Z" transform="translate(803.76 -3.11)"/><path class="cls-5" d="M-533.32,273.42a2.71,2.71,0,0,1,2.7,2.61l.54.25,1.17-2.27a4.87,4.87,0,0,0-4.36-2.76A4.85,4.85,0,0,0-537,273l2.06,1A2.64,2.64,0,0,1-533.32,273.42Z" transform="translate(803.76 -3.11)"/><path class="cls-2" d="M-534.92,268.32l-1.26,2.2a6.39,6.39,0,0,1,2.86-.69,6.32,6.32,0,0,1,4.46,1.85,5.87,5.87,0,0,1,.71.87l.41-.78Z" transform="translate(803.76 -3.11)"/><path class="cls-5" d="M-534.92,268.32l-1.26,2.2a6.39,6.39,0,0,1,2.86-.69,6.32,6.32,0,0,1,4.46,1.85,5.87,5.87,0,0,1,.71.87l.41-.78Z" transform="translate(803.76 -3.11)"/><polygon class="cls-2" points="311.32 263.75 305.01 260.72 302.67 265.22 308.98 268.25 311.32 263.75"/><polygon class="cls-5" points="311.32 263.75 305.01 260.72 302.67 265.22 308.98 268.25 311.32 263.75"/><polygon class="cls-2" points="295.39 261.72 301.69 264.75 304.04 260.25 297.74 257.22 295.39 261.72"/><polygon class="cls-5" points="295.39 261.72 301.69 264.75 304.04 260.25 297.74 257.22 295.39 261.72"/><polygon class="cls-2" points="308.21 269.73 301.91 266.7 299.56 271.2 305.87 274.23 308.21 269.73"/><polygon class="cls-5" points="308.21 269.73 301.91 266.7 299.56 271.2 305.87 274.23 308.21 269.73"/><polygon class="cls-2" points="292.29 267.71 298.59 270.74 300.93 266.23 294.63 263.2 292.29 267.71"/><polygon class="cls-5" points="292.29 267.71 298.59 270.74 300.93 266.23 294.63 263.2 292.29 267.71"/><polygon class="cls-2" points="305.1 275.71 298.8 272.68 296.46 277.18 302.76 280.21 305.1 275.71"/><polygon class="cls-5" points="305.1 275.71 298.8 272.68 296.46 277.18 302.76 280.21 305.1 275.71"/><polygon class="cls-2" points="289.18 273.68 295.48 276.71 297.82 272.21 291.52 269.18 289.18 273.68"/><polygon class="cls-5" points="289.18 273.68 295.48 276.71 297.82 272.21 291.52 269.18 289.18 273.68"/><polygon class="cls-2" points="301.99 281.69 295.68 278.66 293.34 283.16 299.64 286.19 301.99 281.69"/><polygon class="cls-5" points="301.99 281.69 295.68 278.66 293.34 283.16 299.64 286.19 301.99 281.69"/><polygon class="cls-2" points="288.41 275.16 286.07 279.67 292.37 282.7 294.71 278.19 288.41 275.16"/><polygon class="cls-5" points="288.41 275.16 286.07 279.67 292.37 282.7 294.71 278.19 288.41 275.16"/><path class="cls-2" d="M-480.73,244.31l.46-.89a62.45,62.45,0,0,0-4.55-6.41l-2.21,4.27Z" transform="translate(803.76 -3.11)"/><path class="cls-5" d="M-480.73,244.31l.46-.89a62.45,62.45,0,0,0-4.55-6.41l-2.21,4.27Z" transform="translate(803.76 -3.11)"/><polygon class="cls-2" points="315.76 237.7 318.11 233.19 311.8 230.16 309.46 234.66 315.76 237.7"/><polygon class="cls-5" points="315.76 237.7 318.11 233.19 311.8 230.16 309.46 234.66 315.76 237.7"/><polygon class="cls-2" points="313.63 244.14 319.93 247.17 322.27 242.67 315.97 239.64 313.63 244.14"/><polygon class="cls-5" points="313.63 244.14 319.93 247.17 322.27 242.67 315.97 239.64 313.63 244.14"/><path class="cls-2" d="M-480.69,259.28l7.19,3.46.77-1.22c-.39-1.59-.82-3.14-1.32-4.68l-4.3-2.06Z" transform="translate(803.76 -3.11)"/><path class="cls-5" d="M-480.69,259.28l7.19,3.46.77-1.22c-.39-1.59-.82-3.14-1.32-4.68l-4.3-2.06Z" transform="translate(803.76 -3.11)"/><polygon class="cls-2" points="318.92 262.74 326.11 266.19 328.83 261.86 321.26 258.22 318.92 262.74"/><polygon class="cls-5" points="318.92 262.74 326.11 266.19 328.83 261.86 321.26 258.22 318.92 262.74"/><path class="cls-2" d="M-475.28,253.42q-.5-1.28-1.05-2.52l-.84,1.61Z" transform="translate(803.76 -3.11)"/><path class="cls-5" d="M-475.28,253.42q-.5-1.28-1.05-2.52l-.84,1.61Z" transform="translate(803.76 -3.11)"/><polygon class="cls-2" points="316.56 268.71 322.79 271.71 323.87 269.8 317.57 266.76 316.56 268.71"/><polygon class="cls-5" points="316.56 268.71 322.79 271.71 323.87 269.8 317.57 266.76 316.56 268.71"/><polygon class="cls-2" points="315.38 270.98 305.79 289.43 311.25 292.05 321.52 273.96 315.38 270.98"/><polygon class="cls-5" points="315.38 270.98 305.79 289.43 311.25 292.05 321.52 273.96 315.38 270.98"/><polygon class="cls-2" points="315 239.17 308.69 236.14 306.35 240.65 312.66 243.68 315 239.17"/><polygon class="cls-5" points="315 239.17 308.69 236.14 306.35 240.65 312.66 243.68 315 239.17"/><polygon class="cls-2" points="319.16 248.65 312.86 245.62 310.51 250.12 316.82 253.15 319.16 248.65"/><polygon class="cls-5" points="319.16 248.65 312.86 245.62 310.51 250.12 316.82 253.15 319.16 248.65"/><polygon class="cls-2" points="303.24 246.63 309.54 249.66 311.88 245.15 305.58 242.12 303.24 246.63"/><polygon class="cls-5" points="303.24 246.63 309.54 249.66 311.88 245.15 305.58 242.12 303.24 246.63"/><polygon class="cls-2" points="316.06 254.63 309.75 251.6 307.41 256.1 313.71 259.13 316.06 254.63"/><polygon class="cls-5" points="316.06 254.63 309.75 251.6 307.41 256.1 313.71 259.13 316.06 254.63"/><polygon class="cls-2" points="300.14 252.61 306.44 255.64 308.78 251.13 302.48 248.1 300.14 252.61"/><polygon class="cls-5" points="300.14 252.61 306.44 255.64 308.78 251.13 302.48 248.1 300.14 252.61"/><polygon class="cls-2" points="274.98 283.11 268.68 280.07 266.34 284.58 272.64 287.61 274.98 283.11"/><polygon class="cls-5" points="274.98 283.11 268.68 280.07 266.34 284.58 272.64 287.61 274.98 283.11"/><polygon class="cls-2" points="259.62 281.36 265.36 284.12 267.7 279.61 262.14 276.94 259.62 281.36"/><polygon class="cls-5" points="259.62 281.36 265.36 284.12 267.7 279.61 262.14 276.94 259.62 281.36"/><polygon class="cls-2" points="263.23 290.56 269.53 293.59 271.88 289.09 265.57 286.06 263.23 290.56"/><polygon class="cls-5" points="263.23 290.56 269.53 293.59 271.88 289.09 265.57 286.06 263.23 290.56"/><polygon class="cls-2" points="256.26 287.22 262.25 290.1 264.6 285.59 258.79 282.81 256.26 287.22"/><polygon class="cls-5" points="256.26 287.22 262.25 290.1 264.6 285.59 258.79 282.81 256.26 287.22"/><polygon class="cls-2" points="268.76 295.06 262.46 292.03 260.12 296.54 266.42 299.57 268.76 295.06"/><polygon class="cls-5" points="268.76 295.06 262.46 292.03 260.12 296.54 266.42 299.57 268.76 295.06"/><polygon class="cls-2" points="261.48 291.57 255.47 288.61 252.98 292.98 259.14 296.08 261.48 291.57"/><polygon class="cls-5" points="261.48 291.57 255.47 288.61 252.98 292.98 259.14 296.08 261.48 291.57"/><polygon class="cls-2" points="265.66 301.05 259.36 298.02 257.01 302.53 263.32 305.56 265.66 301.05"/><polygon class="cls-5" points="265.66 301.05 259.36 298.02 257.01 302.53 263.32 305.56 265.66 301.05"/><polygon class="cls-2" points="258.38 297.56 252.11 294.49 249.57 298.95 256.03 302.06 258.38 297.56"/><polygon class="cls-5" points="258.38 297.56 252.11 294.49 249.57 298.95 256.03 302.06 258.38 297.56"/><polygon class="cls-2" points="292.87 291.71 286.56 288.68 284.22 293.19 290.52 296.22 292.87 291.71"/><polygon class="cls-5" points="292.87 291.71 286.56 288.68 284.22 293.19 290.52 296.22 292.87 291.71"/><polygon class="cls-2" points="276.94 289.69 283.24 292.72 285.58 288.21 279.28 285.18 276.94 289.69"/><polygon class="cls-5" points="276.94 289.69 283.24 292.72 285.58 288.21 279.28 285.18 276.94 289.69"/><polygon class="cls-2" points="289.75 297.69 283.45 294.66 281.11 299.17 287.41 302.2 289.75 297.69"/><polygon class="cls-5" points="289.75 297.69 283.45 294.66 281.11 299.17 287.41 302.2 289.75 297.69"/><polygon class="cls-2" points="282.48 294.2 276.18 291.17 273.84 295.67 280.14 298.7 282.48 294.2"/><polygon class="cls-5" points="282.48 294.2 276.18 291.17 273.84 295.67 280.14 298.7 282.48 294.2"/><polygon class="cls-2" points="280.35 300.64 278 305.15 284.31 308.18 286.65 303.67 280.35 300.64"/><polygon class="cls-5" points="280.35 300.64 278 305.15 284.31 308.18 286.65 303.67 280.35 300.64"/><polygon class="cls-2" points="279.37 300.18 273.07 297.14 270.72 301.65 277.03 304.68 279.37 300.18"/><polygon class="cls-5" points="279.37 300.18 273.07 297.14 270.72 301.65 277.03 304.68 279.37 300.18"/><polygon class="cls-2" points="274.89 311.13 281.19 314.16 283.54 309.65 277.23 306.62 274.89 311.13"/><polygon class="cls-5" points="274.89 311.13 281.19 314.16 283.54 309.65 277.23 306.62 274.89 311.13"/><polygon class="cls-2" points="276.26 306.15 269.96 303.12 267.62 307.63 273.92 310.66 276.26 306.15"/><polygon class="cls-5" points="276.26 306.15 269.96 303.12 267.62 307.63 273.92 310.66 276.26 306.15"/><polygon class="cls-2" points="250.24 311.87 256.54 314.9 258.88 310.39 252.58 307.36 250.24 311.87"/><polygon class="cls-5" points="250.24 311.87 256.54 314.9 258.88 310.39 252.58 307.36 250.24 311.87"/><polygon class="cls-2" points="243.92 308.84 249.25 311.41 251.6 306.9 246.41 304.48 243.92 308.84"/><polygon class="cls-5" points="243.92 308.84 249.25 311.41 251.6 306.9 246.41 304.48 243.92 308.84"/><polygon class="cls-2" points="247.13 317.85 253.43 320.88 255.77 316.38 249.47 313.35 247.13 317.85"/><polygon class="cls-5" points="247.13 317.85 253.43 320.88 255.77 316.38 249.47 313.35 247.13 317.85"/><polygon class="cls-2" points="243.09 310.28 240.56 314.7 246.15 317.39 248.49 312.88 243.09 310.28"/><polygon class="cls-5" points="243.09 310.28 240.56 314.7 246.15 317.39 248.49 312.88 243.09 310.28"/><path class="cls-2" d="M-557.41,322.44l-4.68,9a62.69,62.69,0,0,0,6.52,2.94l4.46-8.9Z" transform="translate(803.76 -3.11)"/><path class="cls-5" d="M-557.41,322.44l-4.68,9a62.69,62.69,0,0,0,6.52,2.94l4.46-8.9Z" transform="translate(803.76 -3.11)"/><path class="cls-2" d="M-564,319.25l-4.68,8.19a62.1,62.1,0,0,0,5.67,3.5l4.66-9Z" transform="translate(803.76 -3.11)"/><path class="cls-5" d="M-564,319.25l-4.68,8.19a62.1,62.1,0,0,0,5.67,3.5l4.66-9Z" transform="translate(803.76 -3.11)"/><polygon class="cls-2" points="271.91 316.84 278.21 319.87 280.55 315.36 274.25 312.33 271.91 316.84"/><polygon class="cls-5" points="271.91 316.84 278.21 319.87 280.55 315.36 274.25 312.33 271.91 316.84"/><polygon class="cls-2" points="270.93 316.37 273.27 311.86 266.97 308.83 264.63 313.34 270.93 316.37"/><polygon class="cls-5" points="270.93 316.37 273.27 311.86 266.97 308.83 264.63 313.34 270.93 316.37"/><polygon class="cls-2" points="268.79 322.82 275.1 325.85 277.44 321.35 271.13 318.31 268.79 322.82"/><polygon class="cls-5" points="268.79 322.82 275.1 325.85 277.44 321.35 271.13 318.31 268.79 322.82"/><polygon class="cls-2" points="270.16 317.85 263.86 314.81 261.52 319.32 267.82 322.35 270.16 317.85"/><polygon class="cls-5" points="270.16 317.85 263.86 314.81 261.52 319.32 267.82 322.35 270.16 317.85"/><polygon class="cls-2" points="263.03 334.38 271.07 334.38 274.32 327.33 268.02 324.29 263.03 334.38"/><polygon class="cls-5" points="263.03 334.38 271.07 334.38 274.32 327.33 268.02 324.29 263.03 334.38"/><path class="cls-2" d="M-536.71,326.94l-6.31-3-6.47,12.43,1.21.31,6.34.34Z" transform="translate(803.76 -3.11)"/><path class="cls-5" d="M-536.71,326.94l-6.31-3-6.47,12.43,1.21.31,6.34.34Z" transform="translate(803.76 -3.11)"/><polygon class="cls-2" points="286.43 316.68 295 320.8 301.15 309.85 292.21 305.55 286.43 316.68"/><polygon class="cls-5" points="286.43 316.68 295 320.8 301.15 309.85 292.21 305.55 286.43 316.68"/><path class="cls-2" d="M-518.71,322.12-527,338.05l.67,0a62.06,62.06,0,0,0,12.4-2.7l3.78-9.13Z" transform="translate(803.76 -3.11)"/><path class="cls-5" d="M-518.71,322.12-527,338.05l.67,0a62.06,62.06,0,0,0,12.4-2.7l3.78-9.13Z" transform="translate(803.76 -3.11)"/><polygon class="cls-2" points="293.41 303.24 302.44 307.57 307.03 299.49 297.7 294.99 293.41 303.24"/><polygon class="cls-5" points="293.41 303.24 302.44 307.57 307.03 299.49 297.7 294.99 293.41 303.24"/><path class="cls-3" d="M-491.78,305.23-506,332.16A62.52,62.52,0,0,0-481,310.05l-.16-.25Z" transform="translate(803.76 -3.11)"/><path class="cls-5" d="M-491.78,305.23-506,332.16A62.52,62.52,0,0,0-481,310.05l-.16-.25Z" transform="translate(803.76 -3.11)"/><path class="cls-2" d="M-473.75,275.86l-13.44,21.87,10.36,4.74A62,62,0,0,0-471,277.4Z" transform="translate(803.76 -3.11)"/><path class="cls-5" d="M-473.75,275.86l-13.44,21.87,10.36,4.74A62,62,0,0,0-471,277.4Z" transform="translate(803.76 -3.11)"/><path class="cls-2" d="M-471,274.32c0-.93-.07-1.85-.14-2.77l-1.22,2Z" transform="translate(803.76 -3.11)"/><path class="cls-5" d="M-471,274.32c0-.93-.07-1.85-.14-2.77l-1.22,2Z" transform="translate(803.76 -3.11)"/><path class="cls-6" d="M-528.46,275.5l.94-1.82a5.94,5.94,0,0,0-.63-1.13l-.76,1.46A4.69,4.69,0,0,1-528.46,275.5Z" transform="translate(803.76 -3.11)"/><path class="cls-6" d="M-533.27,281h-.05a4.89,4.89,0,0,1-4.87-4.92A4.88,4.88,0,0,1-537,273l-.46-.22,1.27-2.22a6.32,6.32,0,0,0-3.45,5.62,6.31,6.31,0,0,0,6.31,6.31,6.3,6.3,0,0,0,6.11-4.79l-1.28-.62A4.88,4.88,0,0,1-533.27,281Z" transform="translate(803.76 -3.11)"/><path class="cls-6" d="M-528.4,276.11a4.73,4.73,0,0,1-.09.93l1.28.62a6.39,6.39,0,0,0,.19-1.52,6.25,6.25,0,0,0-.5-2.46l-.94,1.82A6,6,0,0,1-528.4,276.11Z" transform="translate(803.76 -3.11)"/><path class="cls-6" d="M-533.32,269.83a6.39,6.39,0,0,0-2.86.69l-1.27,2.22.46.22a4.85,4.85,0,0,1,3.72-1.71,4.87,4.87,0,0,1,4.36,2.76l.76-1.46a5.87,5.87,0,0,0-.71-.87A6.32,6.32,0,0,0-533.32,269.83Z" transform="translate(803.76 -3.11)"/><path class="cls-7" d="M-536,276.14a2.72,2.72,0,0,0,2.72,2.72,2.72,2.72,0,0,0,2.72-2.72.43.43,0,0,0,0-.11l-4.31-2.07A2.69,2.69,0,0,0-536,276.14Z" transform="translate(803.76 -3.11)"/><path class="cls-7" d="M-533.32,273.42a2.64,2.64,0,0,0-1.61.54l4.31,2.07A2.71,2.71,0,0,0-533.32,273.42Z" transform="translate(803.76 -3.11)"/><path class="cls-4" d="M-471.43,237.78a2.54,2.54,0,0,1,2.54-2.54,2.83,2.83,0,0,1,.65.09l.33-.64,4.24,2.59a5.46,5.46,0,0,0-4.87-3.94,5.46,5.46,0,0,0-5.83,5.07c0,1.22.89,3.12,2,5l1.89-3.65A2.53,2.53,0,0,1-471.43,237.78Z" transform="translate(803.76 -3.11)"/><path class="cls-4" d="M-463.43,238.41h0a5.94,5.94,0,0,0-.21-1.13l-4.24-2.59-.33.64a2.54,2.54,0,0,1,1.89,2.45,2.54,2.54,0,0,1-2.54,2.53,2.53,2.53,0,0,1-1.63-.6l-1.89,3.65a58.74,58.74,0,0,0,3.51,5.25S-463.43,241.43-463.43,238.41Z" transform="translate(803.76 -3.11)"/><path class="cls-1" d="M-471.43,237.78a2.53,2.53,0,0,0,.91,1.93l2.28-4.38a2.83,2.83,0,0,0-.65-.09A2.54,2.54,0,0,0-471.43,237.78Z" transform="translate(803.76 -3.11)"/><path class="cls-1" d="M-468.89,240.31a2.54,2.54,0,0,0,2.54-2.53,2.54,2.54,0,0,0-1.89-2.45l-2.28,4.38A2.53,2.53,0,0,0-468.89,240.31Z" transform="translate(803.76 -3.11)"/><rect class="cls-8" x="897.46" y="139.49" width="297" height="2"/></svg>