<svg xmlns="http://www.w3.org/2000/svg" width="284" height="46" viewBox="0 0 284 46">
  <g id="Group_268" data-name="Group 268" transform="translate(1070 -12008)">
    <g id="Path_2131" data-name="Path 2131" transform="translate(-1070 12008)" fill="#fff">
      <path d="M 283 45 L 1 45 L 1 1 L 283 1 L 283 45 Z" stroke="none"/>
      <path d="M 2 2 L 2 44 L 282 44 L 282 2 L 2 2 M 0 0 L 284 0 L 284 46 L 0 46 L 0 0 Z" stroke="none" fill="#039"/>
    </g>
    <rect id="Rectangle_255" data-name="Rectangle 255" width="46" height="46" transform="translate(-1070 12008)" fill="#039"/>
    <text id="DK" transform="translate(-1047 12050)" fill="#fff" font-size="15" font-family="OpenSans-Regular, Open Sans"><tspan x="-10.071" y="0">DK</tspan></text>
    <g id="EU-Icon" transform="translate(-1063 12008.405)">
      <g id="Group_267" data-name="Group 267" transform="translate(3 1.791)">
        <path id="Path_2107" data-name="Path 2107" d="M1.6-1.5,2.316.7H4.629L2.758,2.059l.715,2.2L1.6,2.9-.27,4.259l.715-2.2L-1.427.7H.887Z" transform="translate(12.039 1.5)" fill="#fc3"/>
        <path id="Path_2108" data-name="Path 2108" d="M1.6-1.5,2.316.7H4.629L2.758,2.059l.715,2.2L1.6,2.9-.27,4.259l.715-2.2L-1.427.7H.887Z" transform="translate(17.345 2.922)" fill="#fc3"/>
        <path id="Path_2109" data-name="Path 2109" d="M1.6-1.5,2.316.7H4.629L2.758,2.059l.715,2.2L1.6,2.9-.27,4.259l.715-2.2L-1.427.7H.887Z" transform="translate(21.229 6.806)" fill="#fc3"/>
        <path id="Path_2110" data-name="Path 2110" d="M1.6-1.5,2.316.7H4.629L2.758,2.059l.715,2.2L1.6,2.9-.27,4.259l.715-2.2L-1.427.7H.887Z" transform="translate(22.651 12.112)" fill="#fc3"/>
        <path id="Path_2111" data-name="Path 2111" d="M1.6-1.5,2.316.7H4.629L2.758,2.059l.715,2.2L1.6,2.9-.27,4.259l.715-2.2L-1.427.7H.887Z" transform="translate(21.229 17.419)" fill="#fc3"/>
        <path id="Path_2112" data-name="Path 2112" d="M1.6-1.5,2.316.7H4.629L2.758,2.059l.715,2.2L1.6,2.9-.27,4.259l.715-2.2L-1.427.7H.887Z" transform="translate(17.345 21.303)" fill="#fc3"/>
        <path id="Path_2113" data-name="Path 2113" d="M1.6-1.5,2.316.7H4.629L2.758,2.059l.715,2.2L1.6,2.9-.27,4.259l.715-2.2L-1.427.7H.887Z" transform="translate(12.039 22.725)" fill="#fc3"/>
        <path id="Path_2114" data-name="Path 2114" d="M1.6-1.5,2.316.7H4.629L2.758,2.059l.715,2.2L1.6,2.9-.27,4.259l.715-2.2L-1.427.7H.887Z" transform="translate(6.733 21.303)" fill="#fc3"/>
        <path id="Path_2115" data-name="Path 2115" d="M1.6-1.5,2.316.7H4.629L2.758,2.059l.715,2.2L1.6,2.9-.27,4.259l.715-2.2L-1.427.7H.887Z" transform="translate(2.848 17.419)" fill="#fc3"/>
        <path id="Path_2116" data-name="Path 2116" d="M1.6-1.5,2.316.7H4.629L2.758,2.059l.715,2.2L1.6,2.9-.27,4.259l.715-2.2L-1.427.7H.887Z" transform="translate(1.427 12.112)" fill="#fc3"/>
        <path id="Path_2117" data-name="Path 2117" d="M1.6-1.5,2.316.7H4.629L2.758,2.059l.715,2.2L1.6,2.9-.27,4.259l.715-2.2L-1.427.7H.887Z" transform="translate(2.848 6.806)" fill="#fc3"/>
        <path id="Path_2118" data-name="Path 2118" d="M1.6-1.5,2.316.7H4.629L2.758,2.059l.715,2.2L1.6,2.9-.27,4.259l.715-2.2L-1.427.7H.887Z" transform="translate(6.733 2.922)" fill="#fc3"/>
      </g>
    </g>
  </g>
</svg>
