<svg xmlns="http://www.w3.org/2000/svg" width="284" height="46" viewBox="0 0 284 46">
  <g id="Group_252" data-name="Group 252" transform="translate(-46 -144)">
    <g id="Rectangle_81" data-name="Rectangle 81" transform="translate(46 144)" fill="#fff" stroke="#0084f0" stroke-width="2">
      <rect width="284" height="46" stroke="none"/>
      <rect x="1" y="1" width="282" height="44" fill="none"/>
    </g>
    <rect id="Rectangle_255" data-name="Rectangle 255" width="46" height="46" transform="translate(46 144)" fill="#0084f0"/>
    <text id="DK" transform="translate(69 186)" fill="#fff" font-size="15" font-family="OpenSans-Regular, Open Sans"><tspan x="-10.071" y="0">DK</tspan></text>
    <g id="Ellipse_46" data-name="Ellipse 46" transform="translate(59 149)" fill="none" stroke="#f5ff00" stroke-width="2">
      <circle cx="10.5" cy="10.5" r="10.5" stroke="none"/>
      <circle cx="10.5" cy="10.5" r="9.5" fill="none"/>
    </g>
    <g id="Union_2" data-name="Union 2" transform="translate(-261 -1137.996)" fill="#fff">
      <path d="M314.5,1313.285,329.793,1298H310v-1h18.793L315.5,1283.707l.707-.706L330,1296.789V1284.5h1v12.293L342.788,1285l.707.707L332.207,1297H350v1H331.207l13.289,13.289-.707.706L331,1299.2V1309.5h-1V1299.2l-14.789,14.789Z" stroke="none"/>
      <path d="M 315.2115173339844 1313.991088867188 L 314.5041198730469 1313.284545898438 L 329.7928466796875 1297.995727539062 L 329.7924194335938 1297.995361328125 L 309.9996032714844 1297.995361328125 L 309.9996032714844 1296.995483398438 L 328.7925109863281 1296.995483398438 L 315.5039978027344 1283.706909179688 L 316.2113952636719 1283.00048828125 L 330.0003051757812 1296.789306640625 L 330.0003051757812 1284.495361328125 L 331.0002136230469 1284.495361328125 L 331.0002136230469 1296.788452148438 L 342.7884216308594 1285.000244140625 L 343.4958190917969 1285.706787109375 L 332.2071228027344 1296.995483398438 L 350.0001220703125 1296.995483398438 L 350.0001220703125 1297.995361328125 L 331.2072143554688 1297.995361328125 L 331.2067565917969 1297.995727539062 L 344.4956970214844 1311.284790039062 L 343.7882995605469 1311.9912109375 L 331.0002136230469 1299.203125 L 331.0002136230469 1309.495483398438 L 330.0003051757812 1309.495483398438 L 330.0003051757812 1299.202270507812 L 315.2115173339844 1313.991088867188 Z" stroke="none" fill="#0084f0"/>
    </g>
  </g>
</svg>
